<svg xmlns="http://www.w3.org/2000/svg" width="238" height="59" viewBox="0 0 238 59">
  <g id="Group_678" data-name="Group 678" transform="translate(-140 -2747)">
    <g id="Group_666" data-name="Group 666" transform="translate(-20 48)">
      <path id="Path_114" data-name="Path 114" d="M141.252,106.122h0a19.634,19.634,0,1,0,0,39.267,19.836,19.836,0,0,0,13.634-5.509v4.962H164.7V132.682h2.891l7.089,12.161h11.343l-8.615-14.015a12.792,12.792,0,0,0-5.891-24.159H154.886v4.962a19.836,19.836,0,0,0-13.634-5.509m6.98,12.708,6.654-6.654v27.159l-6.654-6.654a9.816,9.816,0,1,1,0-13.852m16.47,5.29V115.23h5.344a4.493,4.493,0,0,1,4.472,4.472,4.446,4.446,0,0,1-4.472,4.418Z" transform="translate(69.383 2603.113)"/>
      <path id="Path_115" data-name="Path 115" d="M324.556,125.263v-7.045a4.022,4.022,0,0,1,4.729-3.635v-1.344a4.51,4.51,0,0,0-4.729,2.44l-.025-2.364h-1.27v11.948Z" transform="translate(36.732 2601.97)"/>
      <path id="Path_116" data-name="Path 116" d="M318.752,118.767a5.364,5.364,0,0,0-5.477-5.577,5.774,5.774,0,0,0-5.725,6.048,6.011,6.011,0,0,0,5.949,6.149,5.791,5.791,0,0,0,4.7-2.265l-.921-.771a4.486,4.486,0,0,1-3.784,1.817,4.684,4.684,0,0,1-4.63-4.556h9.883Zm-9.858-.349a4.448,4.448,0,0,1,4.356-4.033,4.133,4.133,0,0,1,4.157,4.033Z" transform="translate(39.276 2601.969)"/>
      <path id="Path_117" data-name="Path 117" d="M285.29,119.189c.049-3.161,1.643-4.8,3.859-4.8,1.867,0,3.111,1.2,3.087,3.336v7.543h1.294v-6.074c.05-3.161,1.643-4.8,3.859-4.8,1.867,0,3.112,1.2,3.087,3.336v7.543h1.294v-7.592c.025-2.788-1.544-4.481-4.232-4.481a4.539,4.539,0,0,0-4.231,2.838,3.9,3.9,0,0,0-4.008-2.838,4.411,4.411,0,0,0-4.008,2.514v-2.389h-1.295v11.948h1.295Z" transform="translate(43.091 2601.969)"/>
      <path id="Path_118" data-name="Path 118" d="M277.862,125.287h1.294V113.339h-1.294v6.074c-.05,3.162-1.793,4.8-4.207,4.8a3.01,3.01,0,0,1-3.186-3.336v-7.542h-1.295v7.592c0,2.788,1.593,4.481,4.332,4.481a4.722,4.722,0,0,0,4.356-2.639Z" transform="translate(45.49 2601.945)"/>
      <path id="Path_119" data-name="Path 119" d="M257.361,122.729l-.722,1.021a6.549,6.549,0,0,0,4.506,1.643c2.24,0,4.033-1.219,4.033-3.361,0-1.692-.822-2.414-3.486-3.336l-1.021-.348c-1.493-.5-2.29-1-2.29-2.091,0-1.369,1.27-1.892,2.44-1.892a5.118,5.118,0,0,1,3.186,1.369l.771-1.071a6.028,6.028,0,0,0-3.957-1.443c-2.042,0-3.709,1.095-3.709,3.112,0,1.543.921,2.513,3.186,3.31l1.145.4c1.693.6,2.465.921,2.465,1.99,0,1.544-1.344,2.216-2.763,2.216a5.584,5.584,0,0,1-3.784-1.519" transform="translate(47.521 2601.964)"/>
      <path id="Path_120" data-name="Path 120" d="M243.855,119.189c.05-3.161,1.792-4.8,4.206-4.8a3.012,3.012,0,0,1,3.187,3.336v7.543h1.294v-7.592c0-2.788-1.592-4.481-4.33-4.481a4.72,4.72,0,0,0-4.357,2.638v-2.513H242.56v11.948h1.295Z" transform="translate(49.8 2601.969)"/>
      <path id="Path_121" data-name="Path 121" d="M231.763,113.19a6.1,6.1,0,1,0,6.1,6.1,6.088,6.088,0,0,0-6.1-6.1m0,10.9a4.8,4.8,0,1,1,4.8-4.8,4.8,4.8,0,0,1-4.8,4.8" transform="translate(52.531 2601.969)"/>
      <path id="Path_122" data-name="Path 122" d="M219.9,120.044a7.448,7.448,0,1,1-5.9-12,7.336,7.336,0,0,1,5.9,2.888l1.045-1.022A9.025,9.025,0,0,0,214,106.626a8.85,8.85,0,1,0,6.9,14.388Z" transform="translate(55.859 2603.031)"/>
      <path id="Path_123" data-name="Path 123" d="M288.757,147.458l-.722,1.022a6.546,6.546,0,0,0,4.505,1.642c2.24,0,4.033-1.219,4.033-3.361,0-1.692-.821-2.414-3.486-3.335l-1.02-.349c-1.494-.5-2.29-1-2.29-2.091,0-1.369,1.27-1.892,2.44-1.892a5.115,5.115,0,0,1,3.186,1.369l.771-1.071a6.027,6.027,0,0,0-3.957-1.443c-2.042,0-3.709,1.1-3.709,3.112,0,1.543.921,2.514,3.186,3.311l1.145.4c1.693.6,2.465.921,2.465,1.99,0,1.544-1.344,2.216-2.763,2.216a5.581,5.581,0,0,1-3.783-1.519" transform="translate(42.437 2597.96)"/>
      <path id="Path_124" data-name="Path 124" d="M285.111,148.546l-.349-1.046a4.075,4.075,0,0,1-2.215.623c-1.17,0-1.718-.7-1.718-1.967v-7.691h4.182v-1.22h-4.182v-4.107H279.51v13.045c0,1.966.97,3.16,2.962,3.16a4.7,4.7,0,0,0,2.639-.8" transform="translate(43.816 2598.739)"/>
      <path id="Path_125" data-name="Path 125" d="M271.419,149.992v-7.044a4.023,4.023,0,0,1,4.73-3.636v-1.343a4.509,4.509,0,0,0-4.73,2.439l-.025-2.364h-1.269v11.948Z" transform="translate(45.336 2597.965)"/>
      <path id="Path_126" data-name="Path 126" d="M259.327,137.919a6.1,6.1,0,1,0,6.1,6.1,6.088,6.088,0,0,0-6.1-6.1m0,10.9a4.8,4.8,0,1,1,4.8-4.8,4.8,4.8,0,0,1-4.8,4.8" transform="translate(48.068 2597.965)"/>
      <path id="Path_127" data-name="Path 127" d="M242.882,137.919a5.511,5.511,0,0,0-4.729,2.764v-2.639h-1.295v16.8h1.295v-7.518a5.6,5.6,0,0,0,4.8,2.788,6.1,6.1,0,0,0-.075-12.2m0,10.9a4.8,4.8,0,1,1,4.729-4.8,4.775,4.775,0,0,1-4.729,4.8" transform="translate(50.723 2597.965)"/>
      <path id="Path_128" data-name="Path 128" d="M232.347,143.5a5.363,5.363,0,0,0-5.476-5.577,5.775,5.775,0,0,0-5.726,6.049,6.012,6.012,0,0,0,5.95,6.149,5.793,5.793,0,0,0,4.7-2.265l-.921-.772A4.486,4.486,0,0,1,227.1,148.9a4.685,4.685,0,0,1-4.63-4.557h9.882Zm-9.857-.349a4.449,4.449,0,0,1,4.356-4.033A4.135,4.135,0,0,1,231,143.147Z" transform="translate(53.268 2597.965)"/>
      <path id="Path_129" data-name="Path 129" d="M213.4,141.714a5.1,5.1,0,0,0,4.655-5.053c0-2.963-2.016-5.128-5.7-5.128h-5.825v17.425H207.9v-7.169h3.883l4.929,7.169h1.669Zm-5.5-1.219v-7.668h4.43c2.739,0,4.332,1.544,4.332,3.834,0,2.042-1.395,3.833-4.381,3.833Z" transform="translate(55.634 2598.999)"/>
    </g>
    <rect id="Rectangle_429" data-name="Rectangle 429" width="238" height="59" transform="translate(140 2747)" fill="none" opacity="0.213"/>
  </g>
</svg>
