<svg xmlns="http://www.w3.org/2000/svg" width="238" height="59" viewBox="0 0 238 59">
  <g id="Group_679" data-name="Group 679" transform="translate(-436 -2747)">
    <rect id="Rectangle_428" data-name="Rectangle 428" width="238" height="59" transform="translate(436 2747)" fill="none" opacity="0.213"/>
    <g id="Group_668" data-name="Group 668" transform="translate(12978 16239.215)">
      <g id="Group_667" data-name="Group 667" transform="translate(-12517 -13489)">
        <path id="DARK" d="M0,0H10.827A20.368,20.368,0,0,1,17.25.924a13.177,13.177,0,0,1,4.678,2.612A10.882,10.882,0,0,1,24.795,7.6a13.786,13.786,0,0,1,.971,5.263,17.237,17.237,0,0,1-.368,3.508,14.687,14.687,0,0,1-1.16,3.414A14.088,14.088,0,0,1,22.2,22.871a12.3,12.3,0,0,1-3,2.5,15.635,15.635,0,0,1-4.046,1.669A19.983,19.983,0,0,1,10,27.652L0,27.634ZM6.658,23.522h4.055a8.071,8.071,0,0,0,3.631-.764,7.051,7.051,0,0,0,2.546-2.113,9.233,9.233,0,0,0,1.5-3.178,15.337,15.337,0,0,0,.49-3.98q0-4.716-2.235-7.045a8.409,8.409,0,0,0-6.366-2.33H6.658Zm36.719-2.282H33.984l-1.792,6.394H26.628L35.418,0h8.035l8.771,27.634H45.188ZM42.34,17.41,39.794,8.318l-.943-4.15h-.377l-.924,4.15L35,17.41Zm19.309,0V27.634H54.991V0h9.922a16.818,16.818,0,0,1,4.7.585A10.433,10.433,0,0,1,72.938,2.16a6.572,6.572,0,0,1,1.99,2.292,5.968,5.968,0,0,1,.66,2.735,6.256,6.256,0,0,1-.49,2.462,9.084,9.084,0,0,1-1.264,2.131,12.434,12.434,0,0,1-1.726,1.773,20.944,20.944,0,0,1-1.858,1.405l7.734,12.676H70.25L65.158,17.41Zm0-3.829h4.772a4.446,4.446,0,0,0,1.009-.755,5.4,5.4,0,0,0,.849-1.085,5.992,5.992,0,0,0,.594-1.368A5.689,5.689,0,0,0,69.1,8.733a5.423,5.423,0,0,0-.3-1.83,4.019,4.019,0,0,0-.905-1.471,4.169,4.169,0,0,0-1.49-.971,5.647,5.647,0,0,0-2.075-.349H61.649ZM87.371,27.634H80.713V0h6.658Zm11.223,0L89.05,13.675,99.5,0h6.3L95.444,12.2l11.223,15.43Z"/>
      </g>
      <path id="PATTERNS" d="M6.658,60.542H0V32.909H9.922a17.428,17.428,0,0,1,4.848.613,10.186,10.186,0,0,1,3.556,1.764A7.441,7.441,0,0,1,20.5,38.058a8.765,8.765,0,0,1,.736,3.659,9.686,9.686,0,0,1-.8,4,9.079,9.079,0,0,1-2.179,3.046A9.719,9.719,0,0,1,15.043,50.7a11.209,11.209,0,0,1-3.914.679q-.3,0-.585-.019t-.66-.075l.321-3.773a1.918,1.918,0,0,0,.377.047q.226.009.415.009a3.26,3.26,0,0,0,1.65-.406,3.441,3.441,0,0,0,1.169-1.1,5.275,5.275,0,0,0,.7-1.622,7.991,7.991,0,0,0,.236-1.981,7.459,7.459,0,0,0-.368-2.5,4.031,4.031,0,0,0-2.716-2.631,7.328,7.328,0,0,0-2.179-.3H6.658Zm28.28-6.394H25.545l-1.792,6.394H18.189l8.79-27.634h8.035l8.771,27.634H36.749ZM33.9,50.319l-2.546-9.092-.943-4.15h-.377l-.924,4.15-2.546,9.092ZM56.193,60.542H49.534V37.021H40.952l.736-4.112H64.87l-.736,4.112H56.193Zm24.725,0H74.259V37.021H65.677l.736-4.112H89.595l-.736,4.112H80.918Zm11.05,0V32.909H110l-.736,4.112H98.626v7.338h9.28l-.679,3.829h-8.6V56.43h11.563l-.736,4.112Zm28.441-10.223V60.542H113.75V32.909h9.922a16.818,16.818,0,0,1,4.7.585,10.434,10.434,0,0,1,3.329,1.575,6.572,6.572,0,0,1,1.99,2.292,5.968,5.968,0,0,1,.66,2.735,6.256,6.256,0,0,1-.49,2.462,9.083,9.083,0,0,1-1.264,2.131,12.433,12.433,0,0,1-1.726,1.773,20.942,20.942,0,0,1-1.858,1.405l7.734,12.676H129.01l-5.093-10.223Zm0-3.829h4.772a4.446,4.446,0,0,0,1.009-.755,5.4,5.4,0,0,0,.849-1.085,5.992,5.992,0,0,0,.594-1.368,5.689,5.689,0,0,0,.226-1.641,5.423,5.423,0,0,0-.3-1.83,4.019,4.019,0,0,0-.905-1.471,4.169,4.169,0,0,0-1.49-.971,5.647,5.647,0,0,0-2.075-.349h-2.678Zm18.444,14.053V32.909h9.054L157.092,48l2.056,4.112h.377l-.207-4.621V32.909h5.3V60.542H157.7l-11.45-18.674-1.924-3.923h-.377l.207,4.338V60.542Zm37.476-3.735a7.133,7.133,0,0,0,1.7-.2A4.473,4.473,0,0,0,179.459,56a3.211,3.211,0,0,0,1-1.056,2.96,2.96,0,0,0,.377-1.528,2.991,2.991,0,0,0-.528-1.792,4.99,4.99,0,0,0-1.405-1.292,13.062,13.062,0,0,0-1.99-1.019q-1.113-.462-2.273-.962a25.156,25.156,0,0,1-2.264-1.113,9.049,9.049,0,0,1-1.981-1.481,6.638,6.638,0,0,1-1.405-2.065,7.048,7.048,0,0,1-.528-2.858,7.874,7.874,0,0,1,.736-3.442,7.331,7.331,0,0,1,2.094-2.612,9.843,9.843,0,0,1,3.273-1.66,14.6,14.6,0,0,1,4.272-.585q.641,0,1.5.047t1.839.16q.981.113,2.018.3t2.037.472l-.962,4.433-.34.151a16,16,0,0,0-1.764-.67q-.877-.274-1.7-.453a14.206,14.206,0,0,0-1.537-.255,12.242,12.242,0,0,0-1.264-.075,4.89,4.89,0,0,0-2.9.773,2.6,2.6,0,0,0-1.085,2.264,2.949,2.949,0,0,0,.528,1.783,5.181,5.181,0,0,0,1.405,1.292,12.528,12.528,0,0,0,1.99,1.028q1.113.462,2.273.971t2.273,1.113a8.731,8.731,0,0,1,1.99,1.471,6.7,6.7,0,0,1,1.405,2.047,6.861,6.861,0,0,1,.528,2.82,8.117,8.117,0,0,1-.755,3.518,7.951,7.951,0,0,1-2.16,2.754,10.166,10.166,0,0,1-3.4,1.8,14.571,14.571,0,0,1-4.48.641q-.924,0-2-.1t-2.216-.311a23.128,23.128,0,0,1-2.311-.547,17.356,17.356,0,0,1-2.264-.83l.981-4.452.377-.189q1.075.509,2.056.943t1.9.736a14.715,14.715,0,0,0,1.783.472A9.018,9.018,0,0,0,176.328,56.807Z" transform="translate(-12517 -13495.35)"/>
    </g>
  </g>
</svg>
