<?xml version="1.0" encoding="utf-8"?>
<!-- Generator: Adobe Illustrator 24.0.0, SVG Export Plug-In . SVG Version: 6.00 Build 0)  -->
<svg version="1.1" id="Layer_1" xmlns="http://www.w3.org/2000/svg" xmlns:xlink="http://www.w3.org/1999/xlink" x="0px" y="0px"
	 viewBox="0 0 300 300" style="enable-background:new 0 0 300 300;" xml:space="preserve">
<style type="text/css">
	.st0{fill:#353535;}
</style>
<g>
	<path class="st0" d="M273.5,73.2c-9.4-9.6-46.1-38.1-64.9-47.3c-18.2-9-38.3-13.7-58.6-13.8c-20.3,0.1-40.4,4.8-58.6,13.8
		c-18.8,9.2-55.5,37.7-64.9,47.3c-10.4,10.9-16.2,25.4-16.1,40.5v72.5c-0.1,15.1,5.7,29.6,16.1,40.6c9.4,9.6,46.1,38.1,64.9,47.3
		c18.2,9,38.2,13.7,58.6,13.8c20.3-0.1,40.4-4.8,58.6-13.8c18.8-9.2,55.5-37.8,64.9-47.3c10.4-10.9,16.2-25.5,16.1-40.6v-72.4
		C289.7,98.7,283.9,84.1,273.5,73.2z M42.2,88.6c8.3-8.5,42.8-35.1,58.9-42.9c15.2-7.5,31.9-11.5,48.9-11.6
		c17,0.1,33.7,4.1,48.9,11.6c16.1,7.9,50.5,34.4,58.9,43c6.4,6.8,10,15.8,9.9,25.2v12.6c0,11-5,21.4-13.6,28.2
		c-39.2,31.1-67.5,52.1-77,57.1c-8.4,4.3-17.6,6.4-27,6.3c-9.5,0-18.8-2.3-27.3-6.4c-9.1-4.5-38.7-27.3-42.4-30.8
		c-0.2-0.2-0.3-0.5-0.3-0.8c0-0.3,0.1-0.6,0.4-0.7l20.5-15.5l23.2,17.6c15.3,11.5,36.5,11.5,51.8,0l41.5-31.4l15-11.3
		c3.7-2.7,6.5-6.4,8.2-10.7c3.2-8.5,1-18.1-5.5-24.5c-3.9-3.8-36-28.8-48.1-34.8c-11.5-5.7-24.2-8.7-37-8.7
		c-13-0.1-25.8,2.9-37.3,8.9C99,76.2,61.6,105,32.4,128.2v-14.4C32.3,104.4,35.8,95.4,42.2,88.6z M119.1,150l18.3-13.8
		c7.5-5.7,17.8-5.7,25.3,0L181,150l-18.3,13.8c-7.5,5.7-17.8,5.7-25.3,0L119.1,150z M257.8,211.4c-8.3,8.5-42.8,35.1-58.9,42.9
		c-15.2,7.5-31.9,11.5-48.9,11.6c-17-0.1-33.7-4.1-48.9-11.6C85,246.5,50.6,220,42.2,211.4c-6.4-6.8-9.9-15.8-9.8-25.2v-12.6
		c0-11,5-21.4,13.7-28.2c39.2-31.1,67.5-52.1,77-57.2c15.1-8,36.6-8.6,54.3,0.2c9.1,4.5,38.7,27.3,42.5,30.9
		c0.2,0.2,0.3,0.5,0.3,0.8c0,0.3-0.2,0.6-0.4,0.7l-20.5,15.5l-23.2-17.6c-15.3-11.6-36.5-11.6-51.8,0L82.6,150l-15,11.3
		c-3.7,2.7-6.5,6.4-8.2,10.7c-3.2,8.5-1,18.1,5.5,24.5c3.9,3.8,36,28.9,48.1,34.8c11.5,5.7,24.2,8.7,37,8.7h0.1
		c13,0.1,25.7-2.9,37.2-8.9c13.7-7.3,51.1-36.1,80.4-59.3v14.4C267.8,195.7,264.2,204.7,257.8,211.4L257.8,211.4z"/>
</g>
</svg>
