<svg xmlns="http://www.w3.org/2000/svg" viewBox="0 0 360.97 360.97"><defs><style>.cls-1{fill:none;}.cls-2{fill:#fff;}.cls-3{isolation:isolate;}.cls-4{fill:#1f1c1f;}.cls-5{fill:#262626;}</style></defs><g id="Layer_2" data-name="Layer 2"><g id="Layer_1-2" data-name="Layer 1"><rect class="cls-1" width="360.97" height="360.97"/><g id="Rectangle_320" data-name="Rectangle 320"><rect class="cls-2" x="75.98" y="270.98" width="209" height="48" rx="13"/></g><g id="Action-2" class="cls-3"><g class="cls-3"><path class="cls-4" d="M138.45,297.83a15.3,15.3,0,0,0,.7-1.63,9.81,9.81,0,0,0,2.64,1,11.54,11.54,0,0,0,2.8.37,5.4,5.4,0,0,0,1.87-.23c.36-.16.54-.32.54-.5,0-.66-1-1-3-1a12.15,12.15,0,0,1-4.74-.68,2.28,2.28,0,0,1-1.47-2.2,3.41,3.41,0,0,1,1.79-3.18,9.27,9.27,0,0,1,4.66-1,14,14,0,0,1,3.41.43,13.1,13.1,0,0,1,3.16,1.16c-.31.7-.63,1.56-1,2.57-.07.21-.12.38-.16.48a6.73,6.73,0,0,0-2.47-1.09,11.12,11.12,0,0,0-2.91-.44,6.66,6.66,0,0,0-2.05.2c-.35.13-.52.32-.52.58s.24.46.72.62a7.55,7.55,0,0,0,2.11.23,11.75,11.75,0,0,1,4.93.77,2.53,2.53,0,0,1,1.53,2.38,3.46,3.46,0,0,1-1.63,3.22,9.75,9.75,0,0,1-4.94,1,16.8,16.8,0,0,1-3.62-.4,13.29,13.29,0,0,1-3.31-1.14A15.36,15.36,0,0,0,138.45,297.83Z"/><path class="cls-4" d="M161.9,289.1h4v6.36a5.3,5.3,0,0,1-1.61,3.89q-1.57,1.54-5.3,1.54t-5.17-1.47a5.23,5.23,0,0,1-1.36-3.84V289.1h4v6.22a5.06,5.06,0,0,0,.1,1.14,1.46,1.46,0,0,0,.67.83,3.42,3.42,0,0,0,1.83.38,4,4,0,0,0,2-.39,1.51,1.51,0,0,0,.76-.87,5.2,5.2,0,0,0,.12-1.23Z"/><path class="cls-4" d="M180.27,297.27a3.32,3.32,0,0,1-.5,1.85A3.2,3.2,0,0,1,178,300.3a11.55,11.55,0,0,1-3.56.43h-7.2c.09-2.07.13-4,.13-5.81s0-3.74-.13-5.81H171v0h3.41a12.26,12.26,0,0,1,3.13.32,3,3,0,0,1,1.62,1,2.71,2.71,0,0,1-.21,3.32,5,5,0,0,1-2.33,1.22C179.05,295,180.27,295.72,180.27,297.27ZM171,292v1.49h3.08a3.66,3.66,0,0,0,1.38-.18.64.64,0,0,0,.39-.64.53.53,0,0,0-.41-.52,4.32,4.32,0,0,0-1.36-.15Zm3.08,5.76a8.3,8.3,0,0,0,1.27-.07,1.23,1.23,0,0,0,.63-.26.65.65,0,0,0,.19-.5.62.62,0,0,0-.45-.6,4.75,4.75,0,0,0-1.64-.19H171v1.62Z"/><path class="cls-4" d="M196.28,289.11l1.25,11.62h-4.14l-.26-8.29-1.6,8.29h-4.19l-1.63-8.23-.24,8.23h-4.15l1.25-11.62H188l1.39,7.57,1.22-7.57Z"/><path class="cls-4" d="M208.2,292.3c-1.27-.07-2.2-.11-2.81-.12v5.48c.62,0,1.56-.05,2.81-.12v3.19h-9.29v-3.19c1.22.07,2.16.11,2.8.12v-5.48c-.64,0-1.58.05-2.8.12v-3.19h9.29Z"/><path class="cls-4" d="M223.32,292.47c-1.67-.05-3.3-.08-4.88-.09v8.35h-4v-8.35q-2.38,0-4.86.09v-3.36h13.74Z"/></g></g><g class="cls-3"><path class="cls-2" d="M130,50.35H123.7V57h-1.18V42.77h8.41v1H123.7v5.52H130Z"/><path class="cls-2" d="M141.35,46.23a8.49,8.49,0,0,1,.88.05,4.63,4.63,0,0,1,.73.15l-.14,1.13a8.27,8.27,0,0,0-.82-.14,7.89,7.89,0,0,0-.84-.05,4.37,4.37,0,0,0-2.52.7,3.76,3.76,0,0,0-1.46,2.16V57H136V46.42h1.12l.08,1.84v.21a4.72,4.72,0,0,1,1.71-1.64A4.93,4.93,0,0,1,141.35,46.23Z"/><path class="cls-2" d="M150.87,57.18a4.76,4.76,0,0,1-2-.41,4.68,4.68,0,0,1-1.55-1.11,5,5,0,0,1-1-1.64,5.83,5.83,0,0,1-.37-2v-.42a6.27,6.27,0,0,1,.38-2.11,5.42,5.42,0,0,1,1-1.7,4.74,4.74,0,0,1,1.49-1.14,4.31,4.31,0,0,1,1.85-.41,4.24,4.24,0,0,1,1.86.38,3.84,3.84,0,0,1,1.37,1,4.5,4.5,0,0,1,.84,1.54,6,6,0,0,1,.29,1.88v.71H147.1V52a5,5,0,0,0,.29,1.59,4.18,4.18,0,0,0,.77,1.33,3.77,3.77,0,0,0,1.2.92,3.5,3.5,0,0,0,1.56.35,4.09,4.09,0,0,0,1.77-.36A3.72,3.72,0,0,0,154,54.76l.74.56a4.48,4.48,0,0,1-.69.76,4.66,4.66,0,0,1-.9.59,4.73,4.73,0,0,1-1.08.38A5.48,5.48,0,0,1,150.87,57.18Zm-.22-10a3.13,3.13,0,0,0-1.31.27,3.22,3.22,0,0,0-1,.75,4.12,4.12,0,0,0-.75,1.13,5.59,5.59,0,0,0-.4,1.42h6.69v-.13a3.92,3.92,0,0,0-.24-1.27,3.3,3.3,0,0,0-.62-1.1,3,3,0,0,0-1-.77A2.91,2.91,0,0,0,150.65,47.22Z"/><path class="cls-2" d="M162.88,57.18a4.77,4.77,0,0,1-2-.41,4.68,4.68,0,0,1-1.55-1.11,5,5,0,0,1-1-1.64,5.83,5.83,0,0,1-.37-2v-.42a6.27,6.27,0,0,1,.38-2.11,5.61,5.61,0,0,1,1-1.7,4.78,4.78,0,0,1,1.5-1.14,4.24,4.24,0,0,1,1.84-.41,4.28,4.28,0,0,1,1.87.38,3.89,3.89,0,0,1,1.36,1,4.5,4.5,0,0,1,.84,1.54,6.33,6.33,0,0,1,.3,1.88v.71h-7.91V52a4.75,4.75,0,0,0,.28,1.59,4.18,4.18,0,0,0,.77,1.33,3.77,3.77,0,0,0,1.2.92,3.5,3.5,0,0,0,1.56.35,4,4,0,0,0,1.77-.36A3.72,3.72,0,0,0,166,54.76l.74.56a4.09,4.09,0,0,1-.69.76,4.91,4.91,0,0,1-.89.59,5.1,5.1,0,0,1-1.08.38A5.55,5.55,0,0,1,162.88,57.18Zm-.23-10a3.17,3.17,0,0,0-1.31.27,3.33,3.33,0,0,0-1,.75,3.88,3.88,0,0,0-.74,1.13,4.88,4.88,0,0,0-.4,1.42h6.68v-.13a4.19,4.19,0,0,0-.23-1.27,3.51,3.51,0,0,0-.63-1.1,3,3,0,0,0-1-.77A2.91,2.91,0,0,0,162.65,47.22Z"/><path class="cls-2" d="M191.61,43.8h-4.53V57h-1.15V43.8H181.4v-1h10.21Z"/><path class="cls-2" d="M201.36,46.23a8.49,8.49,0,0,1,.88.05,4.63,4.63,0,0,1,.73.15l-.14,1.13a8.27,8.27,0,0,0-.82-.14,7.89,7.89,0,0,0-.84-.05,4.37,4.37,0,0,0-2.52.7,3.76,3.76,0,0,0-1.46,2.16V57H196V46.42h1.12l.08,1.84v.21a4.72,4.72,0,0,1,1.71-1.64A4.93,4.93,0,0,1,201.36,46.23Z"/><path class="cls-2" d="M206.65,46.42h4.9V56h3.59v1h-8.49V56h3.73V47.47h-3.73ZM210,43.53a1,1,0,0,1,.21-.62,1,1,0,0,1,1.36,0,1,1,0,0,1,.21.62.91.91,0,0,1-.21.6,1,1,0,0,1-1.36,0A.91.91,0,0,1,210,43.53Z"/><path class="cls-2" d="M225.64,57a4.48,4.48,0,0,1-.17-.72,7,7,0,0,1-.07-.8,5.11,5.11,0,0,1-.71.68,4.53,4.53,0,0,1-.87.54,4.41,4.41,0,0,1-1,.36,4.8,4.8,0,0,1-1.14.13,4.45,4.45,0,0,1-1.39-.21,3.33,3.33,0,0,1-1.11-.61,2.71,2.71,0,0,1-.74-.94,2.77,2.77,0,0,1-.27-1.23,2.84,2.84,0,0,1,.4-1.55,3.23,3.23,0,0,1,1.08-1,5.64,5.64,0,0,1,1.59-.58,9.52,9.52,0,0,1,1.88-.18h2.29v-1.2a2.46,2.46,0,0,0-.24-1,2.2,2.2,0,0,0-.61-.77,2.65,2.65,0,0,0-.92-.46,4.2,4.2,0,0,0-1.15-.16,3.81,3.81,0,0,0-1.08.15,3.17,3.17,0,0,0-.91.42,2.27,2.27,0,0,0-.64.67,1.78,1.78,0,0,0-.26.89H218.4a2.67,2.67,0,0,1,.36-1.24,3.4,3.4,0,0,1,.88-1,4.66,4.66,0,0,1,1.3-.65,5.37,5.37,0,0,1,1.57-.23,5.69,5.69,0,0,1,1.58.21,3.77,3.77,0,0,1,1.28.65,3,3,0,0,1,.86,1.07,3.54,3.54,0,0,1,.33,1.51v5.11a6.53,6.53,0,0,0,.09,1.07,9.58,9.58,0,0,0,.23,1V57Zm-3.86-.84A3.82,3.82,0,0,0,223,56a4.3,4.3,0,0,0,1-.43,3.87,3.87,0,0,0,.83-.67,3,3,0,0,0,.57-.84V51.75h-2.13a9,9,0,0,0-1.49.11,4.65,4.65,0,0,0-1.26.39,2.37,2.37,0,0,0-.87.72,1.84,1.84,0,0,0-.33,1.12,1.88,1.88,0,0,0,.2.86,2,2,0,0,0,.52.65,2.58,2.58,0,0,0,.79.41A3.32,3.32,0,0,0,221.78,56.15Z"/><path class="cls-2" d="M230.65,42h4.92V56h3.58v1h-8.5V56h3.75V43h-3.75Z"/></g><rect class="cls-5" x="75.98" y="82.76" width="209" height="45.52"/><rect class="cls-5" x="75.98" y="142.3" width="209" height="45.52"/><rect class="cls-5" x="75.98" y="201.84" width="209" height="45.52"/><g class="cls-3"><path class="cls-2" d="M167.51,111.85h-1.1l-6.24-11.47v11.47h-1.11V98.26h1.11l6.24,11.45V98.26h1.1Z"/><path class="cls-2" d="M177.46,108.06h-5.17l-1.2,3.79H170l4.42-13.59h1l4.38,13.59h-1.11Zm-4.85-1h4.53l-2.25-7.15Z"/><path class="cls-2" d="M183.48,98.26l2.73,7.69,2.91-7.69h1.47v13.59H189.5v-6l.08-6.07-3,8h-.73L183,99.89l.09,5.94v6H182V98.26Z"/><path class="cls-2" d="M200.93,105.34h-6v5.54h6.9v1h-8V98.26h8v1h-6.86v5.13h6Z"/></g><g class="cls-3"><path class="cls-2" d="M139.14,168.44a6.34,6.34,0,0,1-.46,1.71,4.62,4.62,0,0,1-.91,1.37,4.07,4.07,0,0,1-1.35.91,4.62,4.62,0,0,1-1.75.32,4.28,4.28,0,0,1-1.47-.24,4,4,0,0,1-1.17-.68,4.5,4.5,0,0,1-.88-1,6,6,0,0,1-.61-1.24,7.28,7.28,0,0,1-.36-1.39,9.87,9.87,0,0,1-.13-1.43v-2a9.87,9.87,0,0,1,.13-1.43,7.28,7.28,0,0,1,.36-1.39,6,6,0,0,1,.61-1.24,4.56,4.56,0,0,1,.88-1,4.23,4.23,0,0,1,1.17-.68,4.28,4.28,0,0,1,1.47-.24,4.69,4.69,0,0,1,1.77.32,4.07,4.07,0,0,1,1.35.91,4.54,4.54,0,0,1,.91,1.38,6.3,6.3,0,0,1,.44,1.72H138a6.82,6.82,0,0,0-.36-1.31,3.68,3.68,0,0,0-.66-1.08,2.9,2.9,0,0,0-1-.73,3.28,3.28,0,0,0-1.35-.26,3,3,0,0,0-1.18.22,3.08,3.08,0,0,0-.9.6,3.8,3.8,0,0,0-.65.87,5.5,5.5,0,0,0-.44,1.06,6.26,6.26,0,0,0-.25,1.14,9,9,0,0,0-.08,1.14v2a9,9,0,0,0,.08,1.14,6.37,6.37,0,0,0,.25,1.15,5.5,5.5,0,0,0,.44,1.06,4.09,4.09,0,0,0,.65.88,3.08,3.08,0,0,0,.9.6,3,3,0,0,0,1.18.22,3.25,3.25,0,0,0,1.37-.26,2.81,2.81,0,0,0,1-.71,3.69,3.69,0,0,0,.65-1.07,6,6,0,0,0,.35-1.33Z"/><path class="cls-2" d="M150.61,168.44a6.34,6.34,0,0,1-.46,1.71,4.64,4.64,0,0,1-.92,1.37,4.13,4.13,0,0,1-1.34.91,4.66,4.66,0,0,1-1.75.32,4.24,4.24,0,0,1-1.47-.24,4,4,0,0,1-1.17-.68,4.5,4.5,0,0,1-.88-1,6.53,6.53,0,0,1-.62-1.24,8.1,8.1,0,0,1-.36-1.39,9.85,9.85,0,0,1-.12-1.43v-2a9.85,9.85,0,0,1,.12-1.43A8.1,8.1,0,0,1,142,162a6.53,6.53,0,0,1,.62-1.24,4.56,4.56,0,0,1,.88-1,3.92,3.92,0,0,1,2.64-.92,4.64,4.64,0,0,1,1.76.32,4.07,4.07,0,0,1,1.35.91,4.54,4.54,0,0,1,.91,1.38,6,6,0,0,1,.45,1.72H149.5a6.82,6.82,0,0,0-.36-1.31,3.91,3.91,0,0,0-.66-1.08,3.11,3.11,0,0,0-1-.73,3.35,3.35,0,0,0-1.35-.26A2.89,2.89,0,0,0,145,160a3.08,3.08,0,0,0-.9.6,3.57,3.57,0,0,0-.66.87,6.22,6.22,0,0,0-.44,1.06,7.21,7.21,0,0,0-.24,1.14,7.46,7.46,0,0,0-.08,1.14v2a7.46,7.46,0,0,0,.08,1.14,7.33,7.33,0,0,0,.24,1.15,6.22,6.22,0,0,0,.44,1.06,3.82,3.82,0,0,0,.66.88,3.08,3.08,0,0,0,.9.6,2.89,2.89,0,0,0,1.18.22,3.21,3.21,0,0,0,1.36-.26,2.73,2.73,0,0,0,1-.71,3.48,3.48,0,0,0,.65-1.07,5.53,5.53,0,0,0,.36-1.33Z"/><path class="cls-2" d="M173.25,172.57h-1.11l-6.23-11.47v11.47h-1.11V159h1.11l6.23,11.45V159h1.11Z"/><path class="cls-2" d="M184.74,159v9.21a5.43,5.43,0,0,1-.32,1.76,4.66,4.66,0,0,1-.85,1.45,4.29,4.29,0,0,1-1.34,1,4.15,4.15,0,0,1-1.75.36,4.24,4.24,0,0,1-1.77-.36,4,4,0,0,1-1.33-1,4.68,4.68,0,0,1-.86-1.45,5.43,5.43,0,0,1-.32-1.76l0-9.21h1.06l0,9.21a4.34,4.34,0,0,0,.22,1.35,3.65,3.65,0,0,0,.62,1.15,2.81,2.81,0,0,0,1,.79,3,3,0,0,0,1.35.3,2.91,2.91,0,0,0,1.34-.3,3,3,0,0,0,1-.79,3.82,3.82,0,0,0,.6-1.15,4.66,4.66,0,0,0,.23-1.35l0-9.21Z"/><path class="cls-2" d="M189.21,159l2.74,7.69,2.91-7.69h1.46v13.59h-1.09v-6l.08-6.07-3,8h-.73l-2.8-7.87.1,5.94v6h-1.1V159Z"/><path class="cls-2" d="M199.49,172.57V159h3.72a6.64,6.64,0,0,1,1.6.22,4.18,4.18,0,0,1,1.38.65,3.11,3.11,0,0,1,1.34,2.69,2.86,2.86,0,0,1-1.38,2.48,4.29,4.29,0,0,1-.88.45,3.64,3.64,0,0,1,1.08.43,3.19,3.19,0,0,1,.87.71,3.22,3.22,0,0,1,.57,1,3.19,3.19,0,0,1,.21,1.16,3.46,3.46,0,0,1-.33,1.61,3.69,3.69,0,0,1-.94,1.2,4.43,4.43,0,0,1-1.35.75,5.43,5.43,0,0,1-1.61.27Zm1.12-7.49h2.74a4.67,4.67,0,0,0,1.13-.17,3.09,3.09,0,0,0,1-.48,2.36,2.36,0,0,0,.68-.79,2.28,2.28,0,0,0,.27-1.13,2.34,2.34,0,0,0-.27-1.16,2.37,2.37,0,0,0-.72-.79,3.12,3.12,0,0,0-1-.44,5.08,5.08,0,0,0-1.17-.16h-2.62Zm0,1v5.56h3.18a3.85,3.85,0,0,0,1.18-.21,3.28,3.28,0,0,0,1-.57,2.57,2.57,0,0,0,.68-.88,2.76,2.76,0,0,0,.24-1.18,2.58,2.58,0,0,0-.24-1.14,2.28,2.28,0,0,0-.65-.85,3.08,3.08,0,0,0-1-.53,3.9,3.9,0,0,0-1.14-.2Z"/><path class="cls-2" d="M218.13,166.05h-6v5.55H219v1h-8V159h8v1h-6.87v5.12h6Z"/><path class="cls-2" d="M227,166.89h-3.36v5.68h-1.1V159h3.83a5.81,5.81,0,0,1,1.69.29,4.21,4.21,0,0,1,1.39.78,3.75,3.75,0,0,1,.93,1.25,3.92,3.92,0,0,1,.34,1.69,3.79,3.79,0,0,1-.2,1.24,3.66,3.66,0,0,1-.55,1,4.05,4.05,0,0,1-.85.8,5.3,5.3,0,0,1-1.08.58l3.1,5.83v.12H230Zm-3.36-.95h3a3.31,3.31,0,0,0,1.18-.24,3,3,0,0,0,1-.61,2.73,2.73,0,0,0,.63-.93,2.86,2.86,0,0,0,.23-1.18,3,3,0,0,0-.25-1.28,2.77,2.77,0,0,0-.69-.95,3,3,0,0,0-1-.59,4.4,4.4,0,0,0-1.28-.23h-2.72Z"/></g><g class="cls-3"><path class="cls-2" d="M148.8,227.9h-5.17l-1.21,3.79h-1.13l4.43-13.59h1l4.39,13.59H150Zm-4.86-1h4.54l-2.26-7.14Z"/><path class="cls-2" d="M153.47,231.69V218.1h3.28a5.63,5.63,0,0,1,2.34.52,5.28,5.28,0,0,1,1.73,1.32,5.75,5.75,0,0,1,1.08,1.94,7.82,7.82,0,0,1,.4,2.35v1.34a7.82,7.82,0,0,1-.4,2.35,5.65,5.65,0,0,1-1.08,1.94,5.28,5.28,0,0,1-1.73,1.32,5.47,5.47,0,0,1-2.34.51Zm1.12-12.63v11.69h2.16a4.45,4.45,0,0,0,1.92-.45,4.26,4.26,0,0,0,1.38-1.14,5.33,5.33,0,0,0,.83-1.65,6.9,6.9,0,0,0,.3-1.94v-1.36a6.9,6.9,0,0,0-.3-1.94,5.23,5.23,0,0,0-.83-1.63,4.26,4.26,0,0,0-1.38-1.14,4.31,4.31,0,0,0-1.92-.44Z"/><path class="cls-2" d="M164.94,231.69V218.1h3.28a5.58,5.58,0,0,1,2.33.52,5.32,5.32,0,0,1,1.74,1.32,5.92,5.92,0,0,1,1.08,1.94,7.52,7.52,0,0,1,.39,2.35v1.34a7.52,7.52,0,0,1-.39,2.35,5.82,5.82,0,0,1-1.08,1.94,5.32,5.32,0,0,1-1.74,1.32,5.43,5.43,0,0,1-2.33.51Zm1.11-12.63v11.69h2.17a4.45,4.45,0,0,0,1.92-.45,4.12,4.12,0,0,0,1.37-1.14,5.14,5.14,0,0,0,.84-1.65,6.55,6.55,0,0,0,.29-1.94v-1.36a6.55,6.55,0,0,0-.29-1.94,5,5,0,0,0-.84-1.63,4.12,4.12,0,0,0-1.37-1.14,4.31,4.31,0,0,0-1.92-.44Z"/><path class="cls-2" d="M181.11,226h-3.35v5.68h-1.11V218.1h3.84a5.81,5.81,0,0,1,1.69.29,4.06,4.06,0,0,1,1.38.78,3.65,3.65,0,0,1,.94,1.25,4.08,4.08,0,0,1,.34,1.69,3.79,3.79,0,0,1-.2,1.24,3.68,3.68,0,0,1-.56,1,4.26,4.26,0,0,1-.84.8,5.58,5.58,0,0,1-1.08.58l3.1,5.83v.12h-1.17Zm-3.35-.95h3a3.32,3.32,0,0,0,1.19-.24,3,3,0,0,0,.95-.61,2.76,2.76,0,0,0,.64-.93,3.21,3.21,0,0,0,0-2.46,2.71,2.71,0,0,0-.68-.95,3,3,0,0,0-1-.59,4,4,0,0,0-1.27-.22h-2.72Z"/><path class="cls-2" d="M195.19,225.18h-6v5.54h6.91v1h-8V218.1h8v1H189.2v5.13h6Z"/><path class="cls-2" d="M206.92,228.35a2.58,2.58,0,0,0-.14-.86,2.2,2.2,0,0,0-.41-.67,2.73,2.73,0,0,0-.59-.53,5,5,0,0,0-.72-.41c-.25-.11-.51-.22-.78-.31l-.77-.26-1-.33c-.33-.13-.64-.27-.95-.42a5.56,5.56,0,0,1-.87-.55,3.83,3.83,0,0,1-.71-.68,3,3,0,0,1-.47-.86,2.87,2.87,0,0,1-.18-1,3,3,0,0,1,.38-1.51,3.58,3.58,0,0,1,1-1.1,4.32,4.32,0,0,1,1.36-.67,5.09,5.09,0,0,1,1.54-.23,4.77,4.77,0,0,1,1.65.28,4.34,4.34,0,0,1,1.37.8,3.74,3.74,0,0,1,.95,1.24,4,4,0,0,1,.38,1.63h-1.13a3.92,3.92,0,0,0-.32-1.21,3,3,0,0,0-.67-.93,2.94,2.94,0,0,0-1-.61,3.3,3.3,0,0,0-1.24-.22,4.33,4.33,0,0,0-1.13.15,3.17,3.17,0,0,0-1,.47,2.52,2.52,0,0,0-.71.78,2.11,2.11,0,0,0-.28,1.11,2,2,0,0,0,.32,1.15,3,3,0,0,0,.82.81,5.27,5.27,0,0,0,1.09.54c.39.15.77.27,1.12.38s.66.21,1,.34a10.63,10.63,0,0,1,1,.44,6,6,0,0,1,.88.57,3.46,3.46,0,0,1,.72.71,3.3,3.3,0,0,1,.47.89,3.16,3.16,0,0,1,.18,1.09,3,3,0,0,1-.39,1.56,3.52,3.52,0,0,1-1,1.1,4.43,4.43,0,0,1-1.4.67,6.15,6.15,0,0,1-1.59.21,5.58,5.58,0,0,1-1.73-.26,4.82,4.82,0,0,1-1.5-.76,3.91,3.91,0,0,1-1.07-1.25,3.72,3.72,0,0,1-.44-1.69h1.13a3.68,3.68,0,0,0,.39,1.29,2.87,2.87,0,0,0,.78.94,3,3,0,0,0,1.1.57,4.43,4.43,0,0,0,1.34.19,5.06,5.06,0,0,0,1.17-.14,3.13,3.13,0,0,0,1-.47,2.33,2.33,0,0,0,.74-.79A2.2,2.2,0,0,0,206.92,228.35Z"/><path class="cls-2" d="M218.39,228.35a2.35,2.35,0,0,0-.15-.86,2.38,2.38,0,0,0-.4-.67,3,3,0,0,0-.59-.53,6.37,6.37,0,0,0-.72-.41c-.26-.11-.52-.22-.78-.31l-.78-.26q-.48-.15-1-.33t-1-.42a6,6,0,0,1-.86-.55,3.83,3.83,0,0,1-.71-.68,3.28,3.28,0,0,1-.48-.86,3.11,3.11,0,0,1-.17-1,3,3,0,0,1,.38-1.51,3.68,3.68,0,0,1,1-1.1,4.27,4.27,0,0,1,1.37-.67,5,5,0,0,1,1.53-.23,4.77,4.77,0,0,1,1.65.28,4.39,4.39,0,0,1,1.38.8,4,4,0,0,1,.95,1.24,4.15,4.15,0,0,1,.38,1.63h-1.13a3.93,3.93,0,0,0-.33-1.21,2.84,2.84,0,0,0-.67-.93,3,3,0,0,0-1-.61,3.35,3.35,0,0,0-1.25-.22,4.26,4.26,0,0,0-1.12.15,3.17,3.17,0,0,0-1,.47,2.44,2.44,0,0,0-.72.78,2.2,2.2,0,0,0-.27,1.11,2,2,0,0,0,.32,1.15,3,3,0,0,0,.81.81,5.54,5.54,0,0,0,1.09.54c.4.15.77.27,1.13.38s.66.21,1,.34a9.71,9.71,0,0,1,1,.44,6.63,6.63,0,0,1,.88.57,3.67,3.67,0,0,1,.71.71,3.07,3.07,0,0,1,.48.89,3.16,3.16,0,0,1,.17,1.09,3.11,3.11,0,0,1-.38,1.56,3.55,3.55,0,0,1-1,1.1,4.32,4.32,0,0,1-1.4.67,6.07,6.07,0,0,1-1.58.21,5.64,5.64,0,0,1-1.74-.26,4.82,4.82,0,0,1-1.5-.76,4,4,0,0,1-1.06-1.25,3.59,3.59,0,0,1-.44-1.69h1.13a3.47,3.47,0,0,0,.38,1.29,3.1,3.1,0,0,0,1.88,1.51,4.54,4.54,0,0,0,1.35.19,5.06,5.06,0,0,0,1.17-.14,3.33,3.33,0,0,0,1-.47,2.44,2.44,0,0,0,.74-.79A2.3,2.3,0,0,0,218.39,228.35Z"/></g></g></g></svg>