<svg xmlns="http://www.w3.org/2000/svg" viewBox="0 0 360.97 360.97"><defs><style>.cls-1{fill:none;}.cls-2{isolation:isolate;}.cls-3{fill:#fff;}.cls-4{fill:#1f1c1f;}.cls-5{fill:#fed230;}</style></defs><g id="Layer_2" data-name="Layer 2"><g id="Layer_1-2" data-name="Layer 1"><rect class="cls-1" width="360.97" height="360.97"/><g id="Separated_they_live" data-name="Separated they live" class="cls-2"><g class="cls-2"><path class="cls-3" d="M35.12,88.09H34V81.27H27.33v6.82h-1.1V73.87h1.1v6.38H34V73.87h1.11Z"/><path class="cls-3" d="M38,82.65a6.81,6.81,0,0,1,.33-2,5.35,5.35,0,0,1,.92-1.7,4.57,4.57,0,0,1,1.48-1.16,4.51,4.51,0,0,1,5.44,1.16,5,5,0,0,1,.93,1.7,6.23,6.23,0,0,1,.33,2V83a6.55,6.55,0,0,1-.32,2,5,5,0,0,1-.93,1.69,4.4,4.4,0,0,1-1.47,1.16,4.9,4.9,0,0,1-4,0,4.44,4.44,0,0,1-1.48-1.16A5.32,5.32,0,0,1,38.29,85,6.86,6.86,0,0,1,38,83Zm1.17.32a5.48,5.48,0,0,0,.24,1.62A4.24,4.24,0,0,0,40.05,86a3.42,3.42,0,0,0,1.11,1,3.14,3.14,0,0,0,1.53.36,3.07,3.07,0,0,0,1.51-.36,3.42,3.42,0,0,0,1.11-1A4.45,4.45,0,0,0,46,84.59,5.82,5.82,0,0,0,46.22,83v-.32A5.75,5.75,0,0,0,46,81a4.41,4.41,0,0,0-.69-1.39,3.42,3.42,0,0,0-1.11-1,3.31,3.31,0,0,0-3,0,3.42,3.42,0,0,0-1.11,1A4.38,4.38,0,0,0,39.37,81a5.41,5.41,0,0,0-.24,1.61Z"/><path class="cls-3" d="M51.85,84.66l.31,1.87.39-1.87,1.79-7.14h.82l1.78,7.14.39,1.92.35-1.92,1.44-7.14h1.09L57.86,88.09h-1l-1.86-7.23-.31-1.69-.32,1.69-1.84,7.23h-.95L49.29,77.52h1.08Z"/><path class="cls-3" d="M81.84,88.09a4.75,4.75,0,0,1-.17-.72c0-.27-.06-.53-.08-.81a4.16,4.16,0,0,1-.7.69,6.36,6.36,0,0,1-.87.54,5.44,5.44,0,0,1-1,.36,4.69,4.69,0,0,1-1.14.13,4.43,4.43,0,0,1-1.38-.21,3.49,3.49,0,0,1-1.11-.61,2.74,2.74,0,0,1-.75-.94,2.93,2.93,0,0,1-.26-1.24,2.8,2.8,0,0,1,.4-1.54,3.05,3.05,0,0,1,1.08-1,5.28,5.28,0,0,1,1.58-.58,8.91,8.91,0,0,1,1.89-.19h2.28v-1.2a2.35,2.35,0,0,0-.23-1,2.25,2.25,0,0,0-.61-.76,2.65,2.65,0,0,0-.92-.46,4.12,4.12,0,0,0-2.24,0,2.66,2.66,0,0,0-.9.42,2,2,0,0,0-.64.67,1.79,1.79,0,0,0-.27.89H74.6A2.67,2.67,0,0,1,75,79.19a3.16,3.16,0,0,1,.88-1,4.12,4.12,0,0,1,1.29-.65,5.12,5.12,0,0,1,1.58-.24,5.74,5.74,0,0,1,1.58.22,3.75,3.75,0,0,1,1.28.64,3.14,3.14,0,0,1,.86,1.08,3.38,3.38,0,0,1,.32,1.5v5.12a6.44,6.44,0,0,0,.1,1.06,10.37,10.37,0,0,0,.23,1v.12ZM78,87.25a4.6,4.6,0,0,0,1.18-.15,4.1,4.1,0,0,0,1-.44A3.55,3.55,0,0,0,81,86a3,3,0,0,0,.56-.84V82.84H79.45A9,9,0,0,0,78,83a4.79,4.79,0,0,0-1.26.38,2.29,2.29,0,0,0-.87.72,1.87,1.87,0,0,0-.33,1.13,1.83,1.83,0,0,0,.19.85,1.88,1.88,0,0,0,.53.65,2.23,2.23,0,0,0,.78.41A3,3,0,0,0,78,87.25Z"/><path class="cls-3" d="M93.57,77.32a6.36,6.36,0,0,1,.87.06,3.2,3.2,0,0,1,.74.15L95,78.65a7.76,7.76,0,0,0-.82-.13,5.75,5.75,0,0,0-.84,0,4.37,4.37,0,0,0-2.52.7,3.75,3.75,0,0,0-1.45,2.16v6.76H88.19V77.52h1.13l.08,1.84v.21a4.72,4.72,0,0,1,1.7-1.65A4.94,4.94,0,0,1,93.57,77.32Z"/><path class="cls-3" d="M103.09,88.28a4.93,4.93,0,0,1-2-.41,4.68,4.68,0,0,1-1.55-1.11,5,5,0,0,1-1-1.65,5.54,5.54,0,0,1-.36-2v-.42a6,6,0,0,1,.37-2.11,5.49,5.49,0,0,1,1-1.7,4.78,4.78,0,0,1,1.5-1.14,4.11,4.11,0,0,1,1.84-.42,4.25,4.25,0,0,1,1.87.39,3.89,3.89,0,0,1,1.36,1,4.46,4.46,0,0,1,.84,1.53,6.45,6.45,0,0,1,.3,1.89v.71H99.32v.23a4.65,4.65,0,0,0,.28,1.58,4.23,4.23,0,0,0,.77,1.34,3.77,3.77,0,0,0,1.2.92,3.51,3.51,0,0,0,1.57.34,3.88,3.88,0,0,0,1.76-.36,3.59,3.59,0,0,0,1.35-1.07l.74.56a4,4,0,0,1-.69.75,4.17,4.17,0,0,1-.89.59,4.6,4.6,0,0,1-1.08.38A5,5,0,0,1,103.09,88.28Zm-.23-10a3.17,3.17,0,0,0-1.31.27,3.33,3.33,0,0,0-1,.75,4,4,0,0,0-.74,1.12,5.06,5.06,0,0,0-.4,1.42h6.69v-.12a4.67,4.67,0,0,0-.24-1.28,3.63,3.63,0,0,0-.63-1.1,3.3,3.3,0,0,0-1-.77A3,3,0,0,0,102.86,78.32Z"/><path class="cls-3" d="M126.55,85.94l.22.57,3.82-9h1.32l-5.45,12.26a9.41,9.41,0,0,1-.51.93,4.28,4.28,0,0,1-.7.83,3.22,3.22,0,0,1-.92.59,3,3,0,0,1-1.19.22,3.28,3.28,0,0,1-.52,0l-.48-.09.14-1,.41,0,.42,0a1.86,1.86,0,0,0,.82-.18,2.66,2.66,0,0,0,.66-.45,3.08,3.08,0,0,0,.5-.63,4.55,4.55,0,0,0,.37-.68l.72-1.56-4.74-10.29h1.31Z"/><path class="cls-3" d="M134,82.65a6.23,6.23,0,0,1,.33-2,5.16,5.16,0,0,1,.92-1.7,4.51,4.51,0,0,1,6.92,0,5.37,5.37,0,0,1,.93,1.7,6.81,6.81,0,0,1,.33,2V83a6.86,6.86,0,0,1-.33,2,5.11,5.11,0,0,1-.92,1.69,4.32,4.32,0,0,1-3.46,1.58,4.57,4.57,0,0,1-2-.42,4.4,4.4,0,0,1-1.47-1.16,5,5,0,0,1-.93-1.69,6.28,6.28,0,0,1-.33-2Zm1.17.32a5.82,5.82,0,0,0,.23,1.62,4.47,4.47,0,0,0,.69,1.38,3.28,3.28,0,0,0,1.1,1,3.14,3.14,0,0,0,1.53.36,3.11,3.11,0,0,0,1.52-.36,3.28,3.28,0,0,0,1.1-1,4.24,4.24,0,0,0,.68-1.38,5.48,5.48,0,0,0,.24-1.62v-.32A5.41,5.41,0,0,0,142,81a4.19,4.19,0,0,0-.68-1.39,3.42,3.42,0,0,0-1.11-1,3.07,3.07,0,0,0-1.53-.37,3,3,0,0,0-1.52.37,3.38,3.38,0,0,0-1.1,1,4.4,4.4,0,0,0-.68,1.39,5.75,5.75,0,0,0-.23,1.61Z"/><path class="cls-3" d="M153.67,86.44a3.75,3.75,0,0,1-1.39,1.35,4.05,4.05,0,0,1-2,.49,3.9,3.9,0,0,1-1.55-.28,3,3,0,0,1-1.13-.83,3.86,3.86,0,0,1-.69-1.34,6.25,6.25,0,0,1-.24-1.81v-6.5h1.16V84a4.08,4.08,0,0,0,.65,2.42,2.29,2.29,0,0,0,1.93.82,3.55,3.55,0,0,0,2.14-.61A3.07,3.07,0,0,0,153.65,85V77.52h1.18V88.09h-1.09Z"/><path class="cls-3" d="M178.74,78.48h-4.21l0,9.61h-1.21V78.48h-2.88v-1h2.89v-.84a4.7,4.7,0,0,1,.34-1.83,3.2,3.2,0,0,1,.89-1.2,3.5,3.5,0,0,1,1.3-.67,6.32,6.32,0,0,1,1.6-.2,9.48,9.48,0,0,1,1.08.07,10.73,10.73,0,0,1,1.08.2l-.15,1a7,7,0,0,0-.89-.17,6.36,6.36,0,0,0-1-.07,4.57,4.57,0,0,0-1.19.14,2.49,2.49,0,0,0-1,.46,2.2,2.2,0,0,0-.66.88,3.53,3.53,0,0,0-.26,1.4v.84h4.21Z"/><path class="cls-3" d="M187.11,88.28a4.85,4.85,0,0,1-2-.41,4.62,4.62,0,0,1-1.56-1.11,5.12,5.12,0,0,1-1-1.65,6,6,0,0,1-.36-2v-.42a6.27,6.27,0,0,1,.37-2.11,5.33,5.33,0,0,1,1-1.7A4.74,4.74,0,0,1,185,77.74a4.15,4.15,0,0,1,1.85-.42,4.24,4.24,0,0,1,1.86.39,3.8,3.8,0,0,1,1.36,1,4.46,4.46,0,0,1,.84,1.53,6.13,6.13,0,0,1,.3,1.89v.71h-7.91v.23a4.91,4.91,0,0,0,.28,1.58A4.25,4.25,0,0,0,184.4,86a3.77,3.77,0,0,0,1.2.92,3.5,3.5,0,0,0,1.56.34,4,4,0,0,0,1.77-.36,3.64,3.64,0,0,0,1.34-1.07l.75.56a4.49,4.49,0,0,1-.7.75,3.93,3.93,0,0,1-.89.59,4.6,4.6,0,0,1-1.08.38A5,5,0,0,1,187.11,88.28Zm-.22-10a3.1,3.1,0,0,0-1.31.27,3.26,3.26,0,0,0-1.05.75,4.19,4.19,0,0,0-.74,1.12,5.06,5.06,0,0,0-.4,1.42h6.69v-.12a4,4,0,0,0-.24-1.28,3.43,3.43,0,0,0-.63-1.1,3.18,3.18,0,0,0-1-.77A3,3,0,0,0,186.89,78.32Z"/><path class="cls-3" d="M199.11,88.28a4.91,4.91,0,0,1-2-.41,4.72,4.72,0,0,1-1.56-1.11,5.1,5.1,0,0,1-1-1.65,5.77,5.77,0,0,1-.37-2v-.42a6,6,0,0,1,.38-2.11,5.13,5.13,0,0,1,1-1.7A4.74,4.74,0,0,1,197,77.74a4.15,4.15,0,0,1,1.85-.42,4.24,4.24,0,0,1,1.86.39,3.8,3.8,0,0,1,1.36,1,4.46,4.46,0,0,1,.84,1.53,5.85,5.85,0,0,1,.3,1.89v.71h-7.91v.23a4.66,4.66,0,0,0,.29,1.58A4.23,4.23,0,0,0,196.4,86a3.77,3.77,0,0,0,1.2.92,3.5,3.5,0,0,0,1.56.34,4,4,0,0,0,1.77-.36,3.59,3.59,0,0,0,1.35-1.07l.74.56a4.49,4.49,0,0,1-.7.75,3.93,3.93,0,0,1-.89.59,4.6,4.6,0,0,1-1.08.38A5,5,0,0,1,199.11,88.28Zm-.22-10a3.13,3.13,0,0,0-1.31.27,3.26,3.26,0,0,0-1.05.75,4.45,4.45,0,0,0-.74,1.12,5.42,5.42,0,0,0-.4,1.42h6.69v-.12a4,4,0,0,0-.24-1.28,3.4,3.4,0,0,0-.62-1.1,3.3,3.3,0,0,0-1-.77A3.06,3.06,0,0,0,198.89,78.32Z"/><path class="cls-3" d="M206.88,73.09h4.92v14h3.57v1h-8.49v-1h3.75V74.13h-3.75Z"/><path class="cls-3" d="M218.88,77.52h4.9v9.53h3.59v1h-8.49v-1h3.73V78.56h-3.73Zm3.39-2.89a1,1,0,0,1,.2-.63.85.85,0,0,1,.69-.26.82.82,0,0,1,.67.26,1,1,0,0,1,.21.63.91.91,0,0,1-.21.6.82.82,0,0,1-.67.26.85.85,0,0,1-.69-.26A.91.91,0,0,1,222.27,74.63Z"/><path class="cls-3" d="M231.68,77.52l.09,2a4.4,4.4,0,0,1,1.48-1.58,4,4,0,0,1,2.11-.6,3.37,3.37,0,0,1,2.66,1,4.41,4.41,0,0,1,.93,3v6.77h-1.18V81.34a3.34,3.34,0,0,0-.66-2.23,2.47,2.47,0,0,0-2-.77,3,3,0,0,0-1.08.19,3.69,3.69,0,0,0-.94.5,4.15,4.15,0,0,0-.75.76,4.1,4.1,0,0,0-.53,1v7.34h-1.17V77.52Z"/><path class="cls-3" d="M242.28,82.71a8,8,0,0,1,.25-2,5.3,5.3,0,0,1,.78-1.72,3.89,3.89,0,0,1,1.3-1.19,3.72,3.72,0,0,1,1.87-.45,3.8,3.8,0,0,1,1.82.44A3.9,3.9,0,0,1,249.64,79l.05-1.46h1.09V87.9a5.36,5.36,0,0,1-.3,1.78,4,4,0,0,1-.85,1.39,3.64,3.64,0,0,1-1.33.9,4.45,4.45,0,0,1-1.76.32,4.77,4.77,0,0,1-1-.1,5.32,5.32,0,0,1-1-.33,5.06,5.06,0,0,1-.93-.57,3.49,3.49,0,0,1-.78-.8l.66-.7a3.75,3.75,0,0,0,2.95,1.52,3.29,3.29,0,0,0,1.33-.25,2.65,2.65,0,0,0,1-.68,3.05,3.05,0,0,0,.61-1.07,4.51,4.51,0,0,0,.22-1.36v-1.2a3.92,3.92,0,0,1-1.36,1.14,4.08,4.08,0,0,1-1.79.39,3.67,3.67,0,0,1-1.85-.45,4.26,4.26,0,0,1-1.3-1.2,5.88,5.88,0,0,1-.78-1.72,7.89,7.89,0,0,1-.25-2Zm1.17.2a7.55,7.55,0,0,0,.17,1.57,4.45,4.45,0,0,0,.55,1.4,2.9,2.9,0,0,0,1,1,2.75,2.75,0,0,0,1.5.39,3.31,3.31,0,0,0,1-.14,2.9,2.9,0,0,0,.82-.37,3.47,3.47,0,0,0,.68-.59,3.12,3.12,0,0,0,.49-.78v-5a4.12,4.12,0,0,0-.48-.81,3,3,0,0,0-2.44-1.21,2.76,2.76,0,0,0-1.51.39,3,3,0,0,0-1,1,4.24,4.24,0,0,0-.56,1.4,7.64,7.64,0,0,0-.17,1.58Z"/><path class="cls-3" d="M270.51,74.81v2.71h3.91v1h-3.91v6.65a2.69,2.69,0,0,0,.19,1,1.62,1.62,0,0,0,.49.65,1.75,1.75,0,0,0,.72.36,3.7,3.7,0,0,0,.9.11,8.55,8.55,0,0,0,1-.07c.35,0,.64-.09.88-.14l.17.89a4.75,4.75,0,0,1-1,.25,9.9,9.9,0,0,1-1.23.08,4.87,4.87,0,0,1-1.3-.17,2.74,2.74,0,0,1-1-.55,2.59,2.59,0,0,1-.69-1,3.75,3.75,0,0,1-.26-1.47V78.48h-2.94v-1h2.94V74.81Z"/><path class="cls-3" d="M278,82.65a6.81,6.81,0,0,1,.33-2,5.35,5.35,0,0,1,.92-1.7,4.57,4.57,0,0,1,1.48-1.16,4.51,4.51,0,0,1,5.44,1.16,5,5,0,0,1,.93,1.7,6.51,6.51,0,0,1,.33,2V83a6.28,6.28,0,0,1-.33,2,4.94,4.94,0,0,1-.92,1.69,4.4,4.4,0,0,1-1.47,1.16,4.9,4.9,0,0,1-4,0,4.44,4.44,0,0,1-1.48-1.16,5.14,5.14,0,0,1-.93-1.69,6.86,6.86,0,0,1-.33-2Zm1.17.32a5.82,5.82,0,0,0,.23,1.62A4.47,4.47,0,0,0,280.1,86a3.42,3.42,0,0,0,1.11,1,3.14,3.14,0,0,0,1.53.36,3.09,3.09,0,0,0,1.51-.36,3.42,3.42,0,0,0,1.11-1,4.68,4.68,0,0,0,.68-1.38,5.82,5.82,0,0,0,.23-1.62v-.32A5.75,5.75,0,0,0,286,81a4.41,4.41,0,0,0-.69-1.39,3.42,3.42,0,0,0-1.11-1,3.31,3.31,0,0,0-3,0,3.42,3.42,0,0,0-1.11,1,4.62,4.62,0,0,0-.68,1.39,5.75,5.75,0,0,0-.23,1.61Z"/><path class="cls-3" d="M290.26,82.71a7.54,7.54,0,0,1,.27-2,5.52,5.52,0,0,1,.78-1.72,3.92,3.92,0,0,1,1.31-1.19,3.67,3.67,0,0,1,1.85-.45A3.66,3.66,0,0,1,297.61,79V73.09h1.16v15h-1.09l-.05-1.38a3.75,3.75,0,0,1-1.37,1.17,4,4,0,0,1-1.81.4,3.65,3.65,0,0,1-1.83-.45,4.3,4.3,0,0,1-1.31-1.2,5.63,5.63,0,0,1-.78-1.72,7.48,7.48,0,0,1-.27-2Zm1.19.2a6.93,6.93,0,0,0,.17,1.57,4.23,4.23,0,0,0,.55,1.4,2.87,2.87,0,0,0,1,1,2.78,2.78,0,0,0,1.51.39,3.56,3.56,0,0,0,.94-.13,3.21,3.21,0,0,0,.82-.37,3.37,3.37,0,0,0,.68-.57,4,4,0,0,0,.5-.76V80.32a3.43,3.43,0,0,0-.49-.8,3.17,3.17,0,0,0-.65-.62,2.74,2.74,0,0,0-.82-.41,3,3,0,0,0-1-.15,2.79,2.79,0,0,0-1.52.39,3.08,3.08,0,0,0-1,1,4.45,4.45,0,0,0-.55,1.4,7,7,0,0,0-.17,1.58Z"/><path class="cls-3" d="M309.88,88.09a4.78,4.78,0,0,1-.16-.72,7.17,7.17,0,0,1-.08-.81,4.57,4.57,0,0,1-.7.69,5.91,5.91,0,0,1-.88.54,5.11,5.11,0,0,1-1,.36,4.69,4.69,0,0,1-1.14.13,4.39,4.39,0,0,1-1.38-.21,3.66,3.66,0,0,1-1.12-.61,2.84,2.84,0,0,1-.74-.94,2.79,2.79,0,0,1-.27-1.24,2.89,2.89,0,0,1,.4-1.54,3.08,3.08,0,0,1,1.09-1,5.18,5.18,0,0,1,1.58-.58,8.88,8.88,0,0,1,1.88-.19h2.29v-1.2a2.49,2.49,0,0,0-.23-1,2.28,2.28,0,0,0-.62-.76,2.6,2.6,0,0,0-.91-.46,3.92,3.92,0,0,0-1.16-.16,3.81,3.81,0,0,0-1.08.15,2.81,2.81,0,0,0-.91.42,2.27,2.27,0,0,0-.64.67,1.78,1.78,0,0,0-.26.89h-1.17a2.78,2.78,0,0,1,.35-1.24,3.19,3.19,0,0,1,.89-1,4.12,4.12,0,0,1,1.29-.65,5.08,5.08,0,0,1,1.58-.24,5.8,5.8,0,0,1,1.58.22,3.71,3.71,0,0,1,1.27.64,3,3,0,0,1,.86,1.08,3.25,3.25,0,0,1,.33,1.5v5.12a6.41,6.41,0,0,0,.09,1.06c.07.36.14.7.23,1v.12ZM306,87.25a4.47,4.47,0,0,0,1.17-.15,3.81,3.81,0,0,0,1-.44,3.36,3.36,0,0,0,.83-.66,3.28,3.28,0,0,0,.57-.84V82.84H307.5A8.87,8.87,0,0,0,306,83a4.79,4.79,0,0,0-1.26.38,2.33,2.33,0,0,0-.88.72,1.86,1.86,0,0,0-.32,1.13,1.83,1.83,0,0,0,.19.85,1.88,1.88,0,0,0,.53.65,2.23,2.23,0,0,0,.78.41A3,3,0,0,0,306,87.25Z"/><path class="cls-3" d="M318.59,85.94l.22.57,3.82-9H324L318.5,89.78a9.41,9.41,0,0,1-.51.93,4.61,4.61,0,0,1-.69.83,3.42,3.42,0,0,1-.93.59,2.94,2.94,0,0,1-1.19.22,3.28,3.28,0,0,1-.52,0l-.48-.09.14-1,.41,0,.42,0a1.86,1.86,0,0,0,.82-.18,2.34,2.34,0,0,0,.66-.45,3.08,3.08,0,0,0,.5-.63,4.55,4.55,0,0,0,.37-.68l.72-1.56-4.74-10.29h1.32Z"/><path class="cls-3" d="M330,84.14a7.8,7.8,0,0,1,.09-1.07,3.5,3.5,0,0,1,.26-.83,3.07,3.07,0,0,1,.48-.73,8.31,8.31,0,0,1,.73-.75c.26-.24.5-.48.74-.74a6,6,0,0,0,.64-.79,3.66,3.66,0,0,0,.45-.88,3,3,0,0,0,.17-1,3.14,3.14,0,0,0-.19-1.08,2.23,2.23,0,0,0-.53-.83,2.59,2.59,0,0,0-.85-.52,3.25,3.25,0,0,0-1.12-.18,3.49,3.49,0,0,0-1.08.16,2.68,2.68,0,0,0-.88.48,2.23,2.23,0,0,0-.61.78,2.4,2.4,0,0,0-.25,1.06h-1.17a3.56,3.56,0,0,1,.34-1.45,3.33,3.33,0,0,1,.84-1.11,3.84,3.84,0,0,1,1.25-.71,4.64,4.64,0,0,1,1.56-.25,4.71,4.71,0,0,1,1.6.26,3.27,3.27,0,0,1,2,1.89,4,4,0,0,1,.07,2.76,5.74,5.74,0,0,1-.55,1.11,6.23,6.23,0,0,1-.8,1,12.06,12.06,0,0,1-.91.85,3.93,3.93,0,0,0-.53.58,2.52,2.52,0,0,0-.33.6,2.45,2.45,0,0,0-.18.67,6,6,0,0,0-.05.77Zm-.22,3.24a.82.82,0,0,1,.22-.58.79.79,0,0,1,.61-.24.82.82,0,0,1,.61.24.8.8,0,0,1,.24.58.74.74,0,0,1-.24.56.85.85,0,0,1-.61.22.82.82,0,0,1-.61-.22A.76.76,0,0,1,329.79,87.38Z"/></g></g><g id="Rectangle_320" data-name="Rectangle 320"><rect class="cls-3" x="81.21" y="268.84" width="209" height="48" rx="13"/></g><g id="Action-2" class="cls-2"><g class="cls-2"><path class="cls-4" d="M165.05,295.13a3.34,3.34,0,0,1-.49,1.85,3.28,3.28,0,0,1-1.78,1.18,11.84,11.84,0,0,1-3.55.42H152c.08-2.07.13-4,.13-5.8s0-3.74-.13-5.81h7.17a11.81,11.81,0,0,1,3.13.33,3,3,0,0,1,1.61.95,2.54,2.54,0,0,1,.47,1.59,2.47,2.47,0,0,1-.68,1.73,4.83,4.83,0,0,1-2.32,1.23C163.84,292.81,165.05,293.58,165.05,295.13Zm-9.26-5.23v1.48h3.07a3.8,3.8,0,0,0,1.39-.17.64.64,0,0,0,.39-.64.54.54,0,0,0-.41-.52,4.39,4.39,0,0,0-1.37-.15Zm3.07,5.76a7.89,7.89,0,0,0,1.27-.08,1.16,1.16,0,0,0,.64-.25.69.69,0,0,0,.19-.51.63.63,0,0,0-.46-.6,5,5,0,0,0-1.64-.18h-3.07v1.62Z"/><path class="cls-4" d="M170.21,295.66c4,0,7-.08,8.81-.18a10,10,0,0,0-.13,1.35c0,.47,0,1.05,0,1.75H166.43c.08-2.07.13-4,.13-5.8s-.05-3.74-.13-5.81h12.43v2.89h-8.65v1.54l2.27,0c1.69,0,3.45,0,5.26-.1v2.75c-1.81-.06-3.57-.09-5.26-.09h-2.27Z"/><path class="cls-4" d="M187,292h6.83v6.62H191l-.34-2.83A3.86,3.86,0,0,1,189,298a5.79,5.79,0,0,1-3,.73,5.64,5.64,0,0,1-2.87-.72,5,5,0,0,1-2-2.06,6.55,6.55,0,0,1-.71-3.14,6,6,0,0,1,1.71-4.52q1.71-1.67,5.33-1.67a9.38,9.38,0,0,1,3.64.67,6.84,6.84,0,0,1,2.68,2.08l-2.82,1.48-.4.22a4,4,0,0,0-1.45-.94,5.23,5.23,0,0,0-1.77-.31,3,3,0,0,0-2.28.81,2.82,2.82,0,0,0-.76,2,2.76,2.76,0,0,0,.81,2.07,3.46,3.46,0,0,0,2.48.78,4.75,4.75,0,0,0,1.4-.21,2.53,2.53,0,0,0,1.14-.72H187Z"/><path class="cls-4" d="M204.49,290.15c-1.27-.06-2.21-.1-2.81-.11v5.47c.62,0,1.55-.05,2.81-.11v3.18H195.2V295.4c1.22.06,2.16.1,2.8.11V290c-.64,0-1.58,0-2.8.11V287h9.29Z"/><path class="cls-4" d="M219.29,287c-.07,1.81-.11,3.74-.11,5.8s0,4,.11,5.8h-5.72l-3.88-8.73.29,8.73h-4.11c.08-2.07.13-4,.13-5.8s-.05-3.73-.13-5.8h5.89l3.89,9-.28-9Z"/></g></g><g id="Action-2-2" data-name="Action-2" class="cls-2"><g class="cls-2"><path class="cls-3" d="M90.7,44.47,92,56.08H87.81l-.26-8.28L86,56.08H81.76l-1.63-8.22-.24,8.22H75.74L77,44.47h5.44L83.82,52,85,44.47Z"/><path class="cls-3" d="M97.1,53.16c4.06,0,7-.08,8.82-.18a10,10,0,0,0-.14,1.35c0,.47,0,1.05,0,1.75H93.33c.08-2.06.12-4,.12-5.8s0-3.74-.12-5.81h12.43v2.9H97.1V48.9l2.27,0c1.7,0,3.45,0,5.27-.1v2.75c-1.82-.06-3.57-.09-5.27-.09H97.1Z"/><path class="cls-3" d="M117.17,45a4.73,4.73,0,0,1,2.44,2,6.62,6.62,0,0,1,.69,3.16,5.91,5.91,0,0,1-.8,3.1,5.21,5.21,0,0,1-2.4,2.06,9.58,9.58,0,0,1-3.93.72h-5.88c.09-2.1.13-4.06.13-5.87s0-3.75-.13-5.75c1.27-.1,3-.16,5.12-.16A12.78,12.78,0,0,1,117.17,45Zm-3.56,7.88a2.27,2.27,0,0,0,2-.72,3.45,3.45,0,0,0,.49-2,3.37,3.37,0,0,0-.52-2,2.22,2.22,0,0,0-2-.75,22,22,0,0,0-2.32.09V52.9Z"/><path class="cls-3" d="M131,47.65c-1.27-.06-2.2-.1-2.81-.11V53c.62,0,1.55,0,2.81-.11v3.18h-9.29V52.9c1.22.06,2.16.1,2.8.11V47.54c-.64,0-1.58.05-2.8.11V44.47H131Z"/><path class="cls-3" d="M146.09,47.83c-1.67,0-3.3-.09-4.88-.1v8.35h-4V47.73c-1.59,0-3.21.05-4.86.1V44.47h13.74Z"/><path class="cls-3" d="M156.28,56.08c-.2-.6-.47-1.37-.81-2.28h-5.11l-.79,2.28h-4L150,44.47h5.89l4.51,11.61Zm-1.72-4.78c-.41-1.12-.82-2.24-1.25-3.36l-.38-1q-.57,1.45-1.65,4.4Z"/><path class="cls-3" d="M174.16,47.83c-1.68,0-3.3-.09-4.88-.1v8.35h-4V47.73c-1.59,0-3.21.05-4.87.1V44.47h13.75Z"/><path class="cls-3" d="M184.83,47.65c-1.27-.06-2.21-.1-2.82-.11V53c.62,0,1.56,0,2.82-.11v3.18h-9.3V52.9c1.23.06,2.16.1,2.8.11V47.54c-.64,0-1.57.05-2.8.11V44.47h9.3Z"/><path class="cls-3" d="M187.93,54.65a5.78,5.78,0,0,1-1.73-4.47,5.81,5.81,0,0,1,1.72-4.45c1.15-1.06,3-1.6,5.4-1.6s4.27.54,5.42,1.6a5.77,5.77,0,0,1,1.72,4.45,5.81,5.81,0,0,1-1.71,4.48q-1.71,1.59-5.43,1.59C190.88,56.25,189.08,55.71,187.93,54.65Zm7.95-2.35a3.21,3.21,0,0,0,0-4.22,5.12,5.12,0,0,0-5.1,0,3.23,3.23,0,0,0,0,4.21,3.8,3.8,0,0,0,2.54.69A3.88,3.88,0,0,0,195.88,52.3Z"/><path class="cls-3" d="M215.26,44.49c-.07,1.8-.11,3.73-.11,5.79s0,4,.11,5.8h-5.73l-3.87-8.73.29,8.73h-4.11c.08-2.06.12-4,.12-5.8s0-3.73-.12-5.79h5.88l3.89,9-.27-9Z"/><path class="cls-3" d="M224.94,54.71a5.6,5.6,0,0,1-1.71-4.38,6,6,0,0,1,1.71-4.53q1.71-1.66,5.33-1.67,5.05,0,6.77,3.47a28.29,28.29,0,0,0-3.38,1.49,2.93,2.93,0,0,0-1.46-1.33,5.26,5.26,0,0,0-2-.43,3,3,0,0,0-2.29.81,2.81,2.81,0,0,0-.75,2,2.85,2.85,0,0,0,.8,2.09,3.38,3.38,0,0,0,2.48.81,4.36,4.36,0,0,0,2.11-.44,2.62,2.62,0,0,0,1.15-1.4c.87.47,2,1,3.36,1.58a4.78,4.78,0,0,1-2.67,2.71,10.7,10.7,0,0,1-4.08.77C227.86,56.25,226.08,55.73,224.94,54.71Z"/><path class="cls-3" d="M239.66,54.65a5.78,5.78,0,0,1-1.73-4.47,5.81,5.81,0,0,1,1.72-4.45c1.15-1.06,2.95-1.6,5.4-1.6s4.27.54,5.42,1.6a5.81,5.81,0,0,1,1.72,4.45,5.81,5.81,0,0,1-1.71,4.48c-1.15,1.06-2.95,1.59-5.43,1.59S240.81,55.71,239.66,54.65Zm8-2.35a3.21,3.21,0,0,0,0-4.22,5.12,5.12,0,0,0-5.1,0,3.2,3.2,0,0,0,0,4.21,3.8,3.8,0,0,0,2.54.69A3.88,3.88,0,0,0,247.61,52.3Z"/><path class="cls-3" d="M262.7,56.08c-.2-.6-.47-1.37-.82-2.28h-5.1l-.8,2.28h-4l4.48-11.61h5.89l4.51,11.61ZM261,51.3c-.4-1.12-.82-2.24-1.25-3.36l-.38-1q-.55,1.45-1.65,4.4Z"/><path class="cls-3" d="M268.7,54.71A5.6,5.6,0,0,1,267,50.33a6,6,0,0,1,1.71-4.53q1.71-1.66,5.33-1.67,5.06,0,6.77,3.47a28.29,28.29,0,0,0-3.38,1.49A2.93,2.93,0,0,0,276,47.76a5.26,5.26,0,0,0-2-.43,3,3,0,0,0-2.29.81,2.81,2.81,0,0,0-.75,2,2.85,2.85,0,0,0,.8,2.09,3.38,3.38,0,0,0,2.48.81,4.36,4.36,0,0,0,2.11-.44,2.57,2.57,0,0,0,1.15-1.4c.87.47,2,1,3.36,1.58a4.78,4.78,0,0,1-2.67,2.71,10.7,10.7,0,0,1-4.08.77C271.62,56.25,269.84,55.73,268.7,54.71Z"/><path class="cls-3" d="M295.58,44.47c-.07,1.8-.11,3.74-.11,5.81s0,4,.11,5.8h-3.76V51.73h-5.89v4.35h-3.76c.09-2.06.13-4,.13-5.8s0-3.74-.13-5.81h3.76v4.35h5.89V44.47Z"/></g></g><g id="Separated_they_live-2" data-name="Separated they live" class="cls-2"><g class="cls-2"><path class="cls-3" d="M159.37,135a1.88,1.88,0,0,0-.13-.74,2,2,0,0,0-.34-.59,2.9,2.9,0,0,0-.52-.46,4.14,4.14,0,0,0-.62-.35c-.22-.1-.45-.19-.68-.27l-.67-.23-.84-.29a6.58,6.58,0,0,1-.82-.36,4.75,4.75,0,0,1-.75-.47,3.16,3.16,0,0,1-.62-.59,3,3,0,0,1-.41-.74,2.67,2.67,0,0,1-.15-.91,2.58,2.58,0,0,1,.33-1.31,3.21,3.21,0,0,1,.85-1,4,4,0,0,1,1.19-.59,4.6,4.6,0,0,1,1.33-.19,4.29,4.29,0,0,1,1.43.24,4,4,0,0,1,1.19.69,3.36,3.36,0,0,1,.82,1.08,3.48,3.48,0,0,1,.33,1.41h-1a3.13,3.13,0,0,0-.28-1,2.7,2.7,0,0,0-.58-.82,2.77,2.77,0,0,0-.86-.53,3,3,0,0,0-1.07-.19,3.63,3.63,0,0,0-1,.14,2.72,2.72,0,0,0-.86.4,2.15,2.15,0,0,0-.63.68,1.85,1.85,0,0,0-.24,1,1.78,1.78,0,0,0,.28,1,2.63,2.63,0,0,0,.71.7,4.86,4.86,0,0,0,.94.47c.35.13.67.24,1,.33s.57.18.86.29a6.53,6.53,0,0,1,.85.39,5.47,5.47,0,0,1,.76.49,2.8,2.8,0,0,1,.62.62,2.71,2.71,0,0,1,.41.77,2.81,2.81,0,0,1,.15.94,2.65,2.65,0,0,1-.33,1.35,3.33,3.33,0,0,1-.87,1,3.6,3.6,0,0,1-1.22.57,4.92,4.92,0,0,1-1.37.19,5,5,0,0,1-1.5-.22,4.11,4.11,0,0,1-1.3-.67,3.47,3.47,0,0,1-.93-1.08,3.13,3.13,0,0,1-.38-1.46h1a3.06,3.06,0,0,0,.34,1.12,2.64,2.64,0,0,0,.67.81,2.83,2.83,0,0,0,1,.5,3.92,3.92,0,0,0,1.16.16,3.83,3.83,0,0,0,1-.13,2.72,2.72,0,0,0,.9-.4,2.19,2.19,0,0,0,.64-.68A2,2,0,0,0,159.37,135Z"/><path class="cls-3" d="M166.09,126.85v2.24h3.24v.79h-3.24v5.51a2.3,2.3,0,0,0,.16.85,1.47,1.47,0,0,0,.4.54,1.53,1.53,0,0,0,.6.29,3,3,0,0,0,.75.09,8,8,0,0,0,.83,0l.72-.12.15.74a3.67,3.67,0,0,1-.85.2,7,7,0,0,1-1,.07,3.71,3.71,0,0,1-1.08-.14,2.14,2.14,0,0,1-1.43-1.26,3.32,3.32,0,0,1-.22-1.22v-5.5h-2.43v-.79h2.43v-2.24Z"/><path class="cls-3" d="M178.59,128.93a6,6,0,0,1,.73,0,3.78,3.78,0,0,1,.61.13l-.13.93a5.2,5.2,0,0,0-.67-.11,5.37,5.37,0,0,0-.7,0,3.62,3.62,0,0,0-2.09.58,3.09,3.09,0,0,0-1.2,1.79v5.59h-1v-8.75h.93l.07,1.52v.18a3.83,3.83,0,0,1,1.41-1.36A4.11,4.11,0,0,1,178.59,128.93Z"/><path class="cls-3" d="M186.48,138a4,4,0,0,1-1.67-.34,3.85,3.85,0,0,1-1.29-.92,4,4,0,0,1-.83-1.36,4.84,4.84,0,0,1-.31-1.66v-.35a5,5,0,0,1,.32-1.75,4.31,4.31,0,0,1,.82-1.4,4,4,0,0,1,1.24-.95,3.49,3.49,0,0,1,1.53-.34,3.56,3.56,0,0,1,1.54.32,3.12,3.12,0,0,1,1.13.86,3.65,3.65,0,0,1,.7,1.27,5.31,5.31,0,0,1,.25,1.56v.59h-6.55v.19a3.84,3.84,0,0,0,.23,1.31,3.4,3.4,0,0,0,.64,1.11,3.12,3.12,0,0,0,1,.76,2.92,2.92,0,0,0,1.3.29,3.47,3.47,0,0,0,1.46-.3,3.12,3.12,0,0,0,1.12-.89l.61.46a4.16,4.16,0,0,1-.57.63,3.36,3.36,0,0,1-.74.48,4.24,4.24,0,0,1-1.92.43Zm-.19-8.25a2.58,2.58,0,0,0-1.08.23,2.67,2.67,0,0,0-.87.62,3.19,3.19,0,0,0-.61.93,4,4,0,0,0-.33,1.18h5.53v-.11a3.42,3.42,0,0,0-.19-1,3,3,0,0,0-.52-.91,2.56,2.56,0,0,0-.82-.64A2.48,2.48,0,0,0,186.29,129.75Z"/><path class="cls-3" d="M198.78,135.62a1.21,1.21,0,0,0-.2-.71,1.69,1.69,0,0,0-.55-.51,4.31,4.31,0,0,0-.81-.36,9.35,9.35,0,0,0-1-.25c-.42-.09-.83-.19-1.22-.31A4.47,4.47,0,0,1,194,133a2.3,2.3,0,0,1-.73-.69,1.78,1.78,0,0,1-.28-1,1.87,1.87,0,0,1,.29-1,2.64,2.64,0,0,1,.74-.75,3.56,3.56,0,0,1,1.05-.46,4.52,4.52,0,0,1,1.21-.16,5.1,5.1,0,0,1,1.33.17,3.54,3.54,0,0,1,1.09.51,2.62,2.62,0,0,1,.74.82,2.55,2.55,0,0,1,.3,1.11h-1a1.47,1.47,0,0,0-.23-.75,1.79,1.79,0,0,0-.56-.57,2.75,2.75,0,0,0-.78-.34,3.52,3.52,0,0,0-.92-.13,4,4,0,0,0-.85.1,2.42,2.42,0,0,0-.74.28,1.64,1.64,0,0,0-.53.48,1.28,1.28,0,0,0,0,1.36,1.64,1.64,0,0,0,.54.47,3.26,3.26,0,0,0,.8.32c.3.08.63.16,1,.23a9.83,9.83,0,0,1,1.27.34,4.5,4.5,0,0,1,1.06.49,2.39,2.39,0,0,1,.73.72,2.08,2.08,0,0,1,0,2.1,2.36,2.36,0,0,1-.78.76,3.63,3.63,0,0,1-1.1.45,5.32,5.32,0,0,1-1.27.15,5.69,5.69,0,0,1-1.39-.17,3.72,3.72,0,0,1-1.14-.52,2.6,2.6,0,0,1-.8-.82,2.15,2.15,0,0,1-.32-1.1h1a1.63,1.63,0,0,0,.31.87,2,2,0,0,0,.64.55,3,3,0,0,0,.84.29,4.56,4.56,0,0,0,.89.09,3.86,3.86,0,0,0,.89-.1,2.85,2.85,0,0,0,.79-.28,1.8,1.8,0,0,0,.57-.48A1.16,1.16,0,0,0,198.78,135.62Z"/><path class="cls-3" d="M208.72,135.62a1.21,1.21,0,0,0-.2-.71,1.69,1.69,0,0,0-.55-.51,4.31,4.31,0,0,0-.81-.36,9.35,9.35,0,0,0-1-.25c-.42-.09-.83-.19-1.23-.31a4.58,4.58,0,0,1-1-.47,2.3,2.3,0,0,1-.73-.69,1.78,1.78,0,0,1-.28-1,1.87,1.87,0,0,1,.29-1,2.51,2.51,0,0,1,.74-.75,3.56,3.56,0,0,1,1.05-.46,4.47,4.47,0,0,1,1.21-.16,5.1,5.1,0,0,1,1.33.17,3.54,3.54,0,0,1,1.09.51,2.62,2.62,0,0,1,.74.82,2.55,2.55,0,0,1,.3,1.11h-1a1.47,1.47,0,0,0-.23-.75,1.79,1.79,0,0,0-.56-.57,2.7,2.7,0,0,0-.79-.34,3.39,3.39,0,0,0-.91-.13,4,4,0,0,0-.85.1,2.42,2.42,0,0,0-.74.28,1.64,1.64,0,0,0-.53.48,1.28,1.28,0,0,0,0,1.36,1.55,1.55,0,0,0,.54.47,3.26,3.26,0,0,0,.8.32c.3.08.63.16,1,.23a9.83,9.83,0,0,1,1.27.34,4.5,4.5,0,0,1,1.06.49,2.39,2.39,0,0,1,.73.72,2.08,2.08,0,0,1,0,2.1,2.36,2.36,0,0,1-.78.76,3.63,3.63,0,0,1-1.1.45,5.32,5.32,0,0,1-1.27.15,5.69,5.69,0,0,1-1.39-.17,3.72,3.72,0,0,1-1.14-.52,2.6,2.6,0,0,1-.8-.82,2.15,2.15,0,0,1-.32-1.1h1a1.63,1.63,0,0,0,.31.87,2,2,0,0,0,.64.55,3,3,0,0,0,.84.29,4.56,4.56,0,0,0,.89.09,3.86,3.86,0,0,0,.89-.1,2.85,2.85,0,0,0,.79-.28,1.92,1.92,0,0,0,.57-.48A1.16,1.16,0,0,0,208.72,135.62Z"/><path class="cls-3" d="M216.29,138a3.91,3.91,0,0,1-1.66-.34,3.85,3.85,0,0,1-1.29-.92,4.2,4.2,0,0,1-.84-1.36,5.09,5.09,0,0,1-.3-1.66v-.35a5.23,5.23,0,0,1,.31-1.75,4.33,4.33,0,0,1,.83-1.4,3.84,3.84,0,0,1,1.24-.95,3.43,3.43,0,0,1,1.53-.34,3.59,3.59,0,0,1,1.54.32,3.21,3.21,0,0,1,1.13.86,3.63,3.63,0,0,1,.69,1.27,5,5,0,0,1,.25,1.56v.59h-6.55v.19a3.85,3.85,0,0,0,.24,1.31,3.56,3.56,0,0,0,.63,1.11,3.27,3.27,0,0,0,1,.76,2.91,2.91,0,0,0,1.29.29,3.51,3.51,0,0,0,1.47-.3,3.08,3.08,0,0,0,1.11-.89l.62.46a4.25,4.25,0,0,1-.58.63,3.14,3.14,0,0,1-.74.48,4.08,4.08,0,0,1-.89.32A4.28,4.28,0,0,1,216.29,138Zm-.18-8.25A2.59,2.59,0,0,0,215,130a2.63,2.63,0,0,0-.86.62,3.22,3.22,0,0,0-.62.93,4.36,4.36,0,0,0-.33,1.18h5.54v-.11a3.43,3.43,0,0,0-.2-1,2.64,2.64,0,0,0-.52-.91,2.36,2.36,0,0,0-.82-.64A2.44,2.44,0,0,0,216.11,129.75Z"/><path class="cls-3" d="M222.2,133.39a6.55,6.55,0,0,1,.22-1.68,4.67,4.67,0,0,1,.65-1.43,3.2,3.2,0,0,1,1.09-1,3,3,0,0,1,1.53-.37,3.07,3.07,0,0,1,1.49.36,3,3,0,0,1,1.1,1v-4.86h1v12.42h-.91l0-1.14a3.18,3.18,0,0,1-1.13,1,3.37,3.37,0,0,1-1.5.33,3,3,0,0,1-1.51-.37,3.37,3.37,0,0,1-1.09-1,4.51,4.51,0,0,1-.65-1.42,6.56,6.56,0,0,1-.22-1.65Zm1,.17a6.39,6.39,0,0,0,.14,1.3,3.86,3.86,0,0,0,.46,1.16,2.53,2.53,0,0,0,.83.83,2.31,2.31,0,0,0,1.24.31,2.78,2.78,0,0,0,.78-.1,2.33,2.33,0,0,0,.68-.31,2.8,2.8,0,0,0,.56-.47,3,3,0,0,0,.41-.63v-4.24a2.77,2.77,0,0,0-.4-.66,2.66,2.66,0,0,0-.54-.52,2.71,2.71,0,0,0-.68-.34,2.56,2.56,0,0,0-.79-.12,2.36,2.36,0,0,0-1.26.32,2.63,2.63,0,0,0-.83.83,4,4,0,0,0-.46,1.16,6.48,6.48,0,0,0-.14,1.31Z"/></g></g><path class="cls-3" d="M139.76,142.88H119.32V122.43h20.44Zm-19.44-1h18.44V123.43H120.32Z"/><g id="Separated_they_live-3" data-name="Separated they live" class="cls-2"><g class="cls-2"><path class="cls-3" d="M160.57,159.59h-3.75v10.92h-.94V159.59h-3.76v-.85h8.45Z"/><path class="cls-3" d="M166.6,170.67a4,4,0,0,1-1.67-.34,3.85,3.85,0,0,1-1.29-.92,4.18,4.18,0,0,1-.83-1.36,4.57,4.57,0,0,1-.3-1.66V166a5,5,0,0,1,.31-1.75,4.33,4.33,0,0,1,.83-1.4,3.91,3.91,0,0,1,1.23-.95,3.49,3.49,0,0,1,1.53-.34,3.61,3.61,0,0,1,1.55.32,3.21,3.21,0,0,1,1.13.86,3.89,3.89,0,0,1,.69,1.27,5.31,5.31,0,0,1,.25,1.56v.59h-6.55v.19a3.84,3.84,0,0,0,.23,1.31,3.58,3.58,0,0,0,.64,1.11,3.27,3.27,0,0,0,1,.76,2.85,2.85,0,0,0,1.29.29,3.43,3.43,0,0,0,1.46-.3,3.12,3.12,0,0,0,1.12-.89l.61.46a3.73,3.73,0,0,1-.57.63,3.36,3.36,0,0,1-.74.48,4.08,4.08,0,0,1-.89.32A4.34,4.34,0,0,1,166.6,170.67Zm-.19-8.25a2.58,2.58,0,0,0-1.08.23,2.67,2.67,0,0,0-.87.62,3.41,3.41,0,0,0-.61.93,4.36,4.36,0,0,0-.33,1.18h5.54v-.11a3.43,3.43,0,0,0-.2-1.05,2.64,2.64,0,0,0-.52-.91,2.49,2.49,0,0,0-1.93-.89Z"/><path class="cls-3" d="M173.69,161.76l.07,1.64a3.66,3.66,0,0,1,1.23-1.3,3.28,3.28,0,0,1,1.75-.5,2.8,2.8,0,0,1,2.2.86,3.63,3.63,0,0,1,.77,2.45v5.6h-1v-5.59a2.82,2.82,0,0,0-.55-1.84,2.07,2.07,0,0,0-1.68-.64,2.7,2.7,0,0,0-.9.15,3,3,0,0,0-.77.43,2.69,2.69,0,0,0-.63.63,3.57,3.57,0,0,0-.44.79v6.07h-1v-8.75Z"/><path class="cls-3" d="M188.85,168.29a1.21,1.21,0,0,0-.21-.71,1.69,1.69,0,0,0-.55-.51,4,4,0,0,0-.81-.36,9.35,9.35,0,0,0-1-.25c-.42-.09-.83-.19-1.22-.31a4.22,4.22,0,0,1-1.05-.47,2.24,2.24,0,0,1-.74-.69,1.78,1.78,0,0,1-.27-1,1.86,1.86,0,0,1,.28-1,2.78,2.78,0,0,1,.74-.75,3.56,3.56,0,0,1,1.05-.46,4.54,4.54,0,0,1,1.22-.16,5.21,5.21,0,0,1,1.33.17,3.59,3.59,0,0,1,1.08.51,2.62,2.62,0,0,1,.74.82,2.55,2.55,0,0,1,.3,1.11h-1a1.47,1.47,0,0,0-.23-.75,1.69,1.69,0,0,0-.56-.57,2.75,2.75,0,0,0-.78-.34,3.51,3.51,0,0,0-.91-.13,4.12,4.12,0,0,0-.86.1,2.52,2.52,0,0,0-.74.28,1.75,1.75,0,0,0-.53.48,1.15,1.15,0,0,0-.19.67,1,1,0,0,0,.19.69,1.51,1.51,0,0,0,.53.47,3.26,3.26,0,0,0,.8.32c.3.08.63.16,1,.23a9.42,9.42,0,0,1,1.27.34,4.32,4.32,0,0,1,1.06.49,2.39,2.39,0,0,1,.73.72,2.08,2.08,0,0,1,0,2.1,2.33,2.33,0,0,1-.77.76,3.74,3.74,0,0,1-1.1.45,5.47,5.47,0,0,1-1.28.15,5.55,5.55,0,0,1-1.38-.17,3.67,3.67,0,0,1-1.15-.52,2.72,2.72,0,0,1-.8-.82,2.15,2.15,0,0,1-.32-1.1h1a1.6,1.6,0,0,0,.31.87,1.93,1.93,0,0,0,.65.55,2.56,2.56,0,0,0,.83.29,4.63,4.63,0,0,0,.89.09,3.86,3.86,0,0,0,.89-.1,2.74,2.74,0,0,0,.79-.28,1.7,1.7,0,0,0,.57-.48A1.24,1.24,0,0,0,188.85,168.29Z"/><path class="cls-3" d="M196.41,170.67a3.94,3.94,0,0,1-1.66-.34,3.85,3.85,0,0,1-1.29-.92,4,4,0,0,1-.83-1.36,4.8,4.8,0,0,1-.31-1.66V166a5.23,5.23,0,0,1,.31-1.75,4.52,4.52,0,0,1,.83-1.4,4,4,0,0,1,1.24-.95,3.43,3.43,0,0,1,1.53-.34,3.56,3.56,0,0,1,1.54.32,3.12,3.12,0,0,1,1.13.86,3.74,3.74,0,0,1,.7,1.27,5,5,0,0,1,.24,1.56v.59h-6.55v.19a4.11,4.11,0,0,0,.24,1.31,3.4,3.4,0,0,0,.64,1.11,3.12,3.12,0,0,0,1,.76,2.91,2.91,0,0,0,1.29.29,3.51,3.51,0,0,0,1.47-.3,3,3,0,0,0,1.11-.89l.62.46a3.42,3.42,0,0,1-.58.63,3.29,3.29,0,0,1-.73.48,4.16,4.16,0,0,1-.9.32A4.23,4.23,0,0,1,196.41,170.67Zm-.18-8.25a2.52,2.52,0,0,0-1.08.23,2.67,2.67,0,0,0-.87.62,3.43,3.43,0,0,0-.62.93,4.36,4.36,0,0,0-.33,1.18h5.54v-.11a3.15,3.15,0,0,0-.2-1.05,2.79,2.79,0,0,0-.51-.91,2.56,2.56,0,0,0-.82-.64A2.52,2.52,0,0,0,196.23,162.42Z"/></g></g><path class="cls-3" d="M139.76,175.55H119.32V155.1h20.44Zm-19.44-1h18.44V156.1H120.32Z"/><g id="Separated_they_live-4" data-name="Separated they live" class="cls-2"><g class="cls-2"><path class="cls-3" d="M152.8,203.18V191.41h2.84a4.8,4.8,0,0,1,2,.44,4.56,4.56,0,0,1,1.51,1.15,5.11,5.11,0,0,1,.94,1.68,7.14,7.14,0,0,1,.34,2v1.16a7.14,7.14,0,0,1-.34,2,5.11,5.11,0,0,1-.94,1.68,4.4,4.4,0,0,1-1.51,1.14,4.8,4.8,0,0,1-2,.44Zm1-11v10.14h1.87a3.76,3.76,0,0,0,1.66-.39,3.62,3.62,0,0,0,1.2-1,4.58,4.58,0,0,0,.72-1.43,6.21,6.21,0,0,0,.26-1.68V196.7a6.21,6.21,0,0,0-.26-1.68,4.47,4.47,0,0,0-.72-1.41,3.58,3.58,0,0,0-2.86-1.38Z"/><path class="cls-3" d="M166.6,203.34a4,4,0,0,1-1.67-.34,3.85,3.85,0,0,1-1.29-.92,4.18,4.18,0,0,1-.83-1.36,4.57,4.57,0,0,1-.3-1.66v-.35a5,5,0,0,1,.31-1.75,4.44,4.44,0,0,1,.83-1.4,3.91,3.91,0,0,1,1.23-.95,3.49,3.49,0,0,1,1.53-.34,3.61,3.61,0,0,1,1.55.32,3.21,3.21,0,0,1,1.13.86,3.89,3.89,0,0,1,.69,1.27,5.31,5.31,0,0,1,.25,1.56v.59h-6.55v.19a3.84,3.84,0,0,0,.23,1.31,3.58,3.58,0,0,0,.64,1.11,3.27,3.27,0,0,0,1,.76,2.85,2.85,0,0,0,1.29.29,3.43,3.43,0,0,0,1.46-.3,3.12,3.12,0,0,0,1.12-.89l.61.46a3.73,3.73,0,0,1-.57.63,3.36,3.36,0,0,1-.74.48,4.08,4.08,0,0,1-.89.32A4.34,4.34,0,0,1,166.6,203.34Zm-.19-8.24a2.58,2.58,0,0,0-1.08.22,2.67,2.67,0,0,0-.87.62,3.41,3.41,0,0,0-.61.93,4.36,4.36,0,0,0-.33,1.18h5.54v-.11a3.43,3.43,0,0,0-.2-1.05,2.64,2.64,0,0,0-.52-.91,2.44,2.44,0,0,0-1.93-.88Z"/><path class="cls-3" d="M179.88,198.9a6.55,6.55,0,0,1-.21,1.65A4.48,4.48,0,0,1,179,202a3.2,3.2,0,0,1-1.07,1,3,3,0,0,1-1.54.37,3.49,3.49,0,0,1-1.49-.31,2.93,2.93,0,0,1-1.14-.92v4.44h-1V194.43h.9l0,1.2a3.26,3.26,0,0,1,1.13-1,3.19,3.19,0,0,1,1.52-.36,3.09,3.09,0,0,1,1.55.37,3.05,3.05,0,0,1,1.07,1,4.64,4.64,0,0,1,.63,1.43,6.55,6.55,0,0,1,.21,1.68Zm-1-.17a5.85,5.85,0,0,0-.15-1.31,3.72,3.72,0,0,0-.47-1.16,2.53,2.53,0,0,0-.83-.83,2.41,2.41,0,0,0-1.26-.32,2.56,2.56,0,0,0-.79.12,2.46,2.46,0,0,0-.67.33,2.6,2.6,0,0,0-.54.51,2.71,2.71,0,0,0-.4.65v4.34a2.57,2.57,0,0,0,1,1.07,2.69,2.69,0,0,0,1.44.4,2.26,2.26,0,0,0,1.25-.33,2.56,2.56,0,0,0,.84-.83,3.92,3.92,0,0,0,.46-1.17,5.76,5.76,0,0,0,.15-1.3Z"/><path class="cls-3" d="M188.53,194.27c.24,0,.49,0,.73,0a3.42,3.42,0,0,1,.6.13l-.12.93a6.74,6.74,0,0,0-1.37-.15,3.62,3.62,0,0,0-2.09.58,3.09,3.09,0,0,0-1.2,1.79v5.59h-1v-8.75H185l.07,1.52v.18a3.83,3.83,0,0,1,1.41-1.36A4.11,4.11,0,0,1,188.53,194.27Z"/><path class="cls-3" d="M196.41,203.34a3.94,3.94,0,0,1-1.66-.34,3.85,3.85,0,0,1-1.29-.92,4,4,0,0,1-.83-1.36,4.8,4.8,0,0,1-.31-1.66v-.35a5.23,5.23,0,0,1,.31-1.75,4.64,4.64,0,0,1,.83-1.4,4,4,0,0,1,1.24-.95,3.43,3.43,0,0,1,1.53-.34,3.56,3.56,0,0,1,1.54.32,3.12,3.12,0,0,1,1.13.86,3.74,3.74,0,0,1,.7,1.27,5,5,0,0,1,.24,1.56v.59h-6.55v.19a4.11,4.11,0,0,0,.24,1.31,3.4,3.4,0,0,0,.64,1.11,3.12,3.12,0,0,0,1,.76,2.91,2.91,0,0,0,1.29.29,3.51,3.51,0,0,0,1.47-.3,3,3,0,0,0,1.11-.89l.62.46a3.42,3.42,0,0,1-.58.63,3.29,3.29,0,0,1-.73.48,4.16,4.16,0,0,1-.9.32A4.23,4.23,0,0,1,196.41,203.34Zm-.18-8.24a2.51,2.51,0,0,0-1.08.22,2.67,2.67,0,0,0-.87.62,3.43,3.43,0,0,0-.62.93,4.36,4.36,0,0,0-.33,1.18h5.54v-.11a3.15,3.15,0,0,0-.2-1.05,2.79,2.79,0,0,0-.51-.91,2.56,2.56,0,0,0-.82-.64A2.51,2.51,0,0,0,196.23,195.1Z"/><path class="cls-3" d="M208.72,201a1.21,1.21,0,0,0-.2-.71,1.81,1.81,0,0,0-.55-.51,4.31,4.31,0,0,0-.81-.36,9.35,9.35,0,0,0-1-.25c-.42-.09-.83-.19-1.23-.31a4.58,4.58,0,0,1-1-.47,2.3,2.3,0,0,1-.73-.69,1.78,1.78,0,0,1-.28-1,1.87,1.87,0,0,1,.29-1,2.51,2.51,0,0,1,.74-.75,3.56,3.56,0,0,1,1.05-.46,4.47,4.47,0,0,1,1.21-.16,5.1,5.1,0,0,1,1.33.17,3.54,3.54,0,0,1,1.09.51,2.62,2.62,0,0,1,.74.82,2.55,2.55,0,0,1,.3,1.11h-1a1.47,1.47,0,0,0-.23-.75,1.9,1.9,0,0,0-.56-.57,2.7,2.7,0,0,0-.79-.34,3.39,3.39,0,0,0-.91-.12,4,4,0,0,0-.85.09,2.42,2.42,0,0,0-.74.28,1.64,1.64,0,0,0-.53.48,1.28,1.28,0,0,0,0,1.36,1.55,1.55,0,0,0,.54.47,3.26,3.26,0,0,0,.8.32c.3.08.63.16,1,.23a9.83,9.83,0,0,1,1.27.34,4.5,4.5,0,0,1,1.06.49,2.39,2.39,0,0,1,.73.72,2.08,2.08,0,0,1,0,2.1,2.36,2.36,0,0,1-.78.76,3.63,3.63,0,0,1-1.1.45,5.32,5.32,0,0,1-1.27.15,5.69,5.69,0,0,1-1.39-.17,3.72,3.72,0,0,1-1.14-.52,2.6,2.6,0,0,1-.8-.82,2.15,2.15,0,0,1-.32-1.1h1a1.6,1.6,0,0,0,.31.87,2,2,0,0,0,.64.55,2.7,2.7,0,0,0,.84.29,4.56,4.56,0,0,0,.89.09,3.86,3.86,0,0,0,.89-.1,2.85,2.85,0,0,0,.79-.28,1.92,1.92,0,0,0,.57-.48A1.16,1.16,0,0,0,208.72,201Z"/><path class="cls-3" d="M218.66,201a1.28,1.28,0,0,0-.2-.71,1.93,1.93,0,0,0-.55-.51,4.13,4.13,0,0,0-.82-.36,8.23,8.23,0,0,0-1-.25c-.42-.09-.82-.19-1.22-.31a4.58,4.58,0,0,1-1-.47,2.2,2.2,0,0,1-.73-.69,1.71,1.71,0,0,1-.28-1,2,2,0,0,1,.28-1,2.68,2.68,0,0,1,.75-.75,3.56,3.56,0,0,1,1-.46,4.47,4.47,0,0,1,1.21-.16,5.1,5.1,0,0,1,1.33.17,3.54,3.54,0,0,1,1.09.51,2.75,2.75,0,0,1,.74.82,2.55,2.55,0,0,1,.3,1.11h-1a1.57,1.57,0,0,0-.23-.75,1.9,1.9,0,0,0-.56-.57,2.7,2.7,0,0,0-.79-.34,3.39,3.39,0,0,0-.91-.12,4,4,0,0,0-.85.09,2.33,2.33,0,0,0-.74.28,1.64,1.64,0,0,0-.53.48,1.28,1.28,0,0,0,0,1.36,1.46,1.46,0,0,0,.54.47,3.26,3.26,0,0,0,.8.32c.3.08.63.16,1,.23a10.29,10.29,0,0,1,1.27.34,4.5,4.5,0,0,1,1.06.49,2.39,2.39,0,0,1,.73.72,2.14,2.14,0,0,1,0,2.1,2.46,2.46,0,0,1-.78.76,3.63,3.63,0,0,1-1.1.45,5.32,5.32,0,0,1-1.27.15,5.69,5.69,0,0,1-1.39-.17,3.89,3.89,0,0,1-1.15-.52,2.68,2.68,0,0,1-.79-.82,2.25,2.25,0,0,1-.33-1.1h1a1.69,1.69,0,0,0,.32.87,2,2,0,0,0,.64.55,2.7,2.7,0,0,0,.84.29,4.56,4.56,0,0,0,.89.09,3.86,3.86,0,0,0,.89-.1,2.85,2.85,0,0,0,.79-.28,1.92,1.92,0,0,0,.57-.48A1.16,1.16,0,0,0,218.66,201Z"/><path class="cls-3" d="M226.23,203.34a3.91,3.91,0,0,1-1.66-.34,3.66,3.66,0,0,1-1.29-.92,4.2,4.2,0,0,1-.84-1.36,4.79,4.79,0,0,1-.3-1.66v-.35a5,5,0,0,1,.31-1.75,4.44,4.44,0,0,1,.83-1.4,3.84,3.84,0,0,1,1.24-.95,3.42,3.42,0,0,1,1.52-.34,3.61,3.61,0,0,1,1.55.32,3.21,3.21,0,0,1,1.13.86,3.89,3.89,0,0,1,.69,1.27,5.31,5.31,0,0,1,.25,1.56v.59h-6.55v.19a3.84,3.84,0,0,0,.23,1.31,3.58,3.58,0,0,0,.64,1.11,3.27,3.27,0,0,0,1,.76,2.91,2.91,0,0,0,1.29.29,3.51,3.51,0,0,0,1.47-.3,3.17,3.17,0,0,0,1.11-.89l.62.46a4.29,4.29,0,0,1-.58.63,3.36,3.36,0,0,1-.74.48,4.08,4.08,0,0,1-.89.32A4.34,4.34,0,0,1,226.23,203.34ZM226,195.1a2.58,2.58,0,0,0-1.08.22,2.53,2.53,0,0,0-.86.62,3.22,3.22,0,0,0-.62.93,4.36,4.36,0,0,0-.33,1.18h5.54v-.11a3.43,3.43,0,0,0-.2-1.05A2.64,2.64,0,0,0,228,196a2.36,2.36,0,0,0-.82-.64A2.45,2.45,0,0,0,226,195.1Z"/><path class="cls-3" d="M232.14,198.73a6.55,6.55,0,0,1,.22-1.68,4.67,4.67,0,0,1,.65-1.43,3.2,3.2,0,0,1,1.09-1,3,3,0,0,1,1.53-.37,3.07,3.07,0,0,1,2.59,1.35v-4.86h1v12.42h-.91l0-1.14a3.18,3.18,0,0,1-1.13,1,3.37,3.37,0,0,1-1.5.33,2.94,2.94,0,0,1-1.51-.37,3.26,3.26,0,0,1-1.09-1,4.51,4.51,0,0,1-.65-1.42,6.56,6.56,0,0,1-.22-1.65Zm1,.17a6.39,6.39,0,0,0,.14,1.3,3.86,3.86,0,0,0,.46,1.16,2.5,2.5,0,0,0,.82.83,2.34,2.34,0,0,0,1.25.31,2.88,2.88,0,0,0,.78-.1,2.33,2.33,0,0,0,.68-.31,2.8,2.8,0,0,0,.56-.47,3,3,0,0,0,.41-.63v-4.24a2.77,2.77,0,0,0-.4-.66,3,3,0,0,0-.54-.52,2.71,2.71,0,0,0-.68-.34,2.56,2.56,0,0,0-.79-.12,2.36,2.36,0,0,0-1.26.32,2.63,2.63,0,0,0-.83.83,4,4,0,0,0-.46,1.16,6.48,6.48,0,0,0-.14,1.31Z"/></g></g><path class="cls-3" d="M139.76,208.22H119.32V187.77h20.44Zm-19.44-1h18.44V188.77H120.32Z"/><g id="Separated_they_live-5" data-name="Separated they live" class="cls-2"><g class="cls-2"><path class="cls-3" d="M158.68,232.57H154.2l-1,3.28h-1L156,224.08h.88l3.8,11.77h-1Zm-4.2-.87h3.93l-2-6.19Z"/><path class="cls-3" d="M163.75,227.1l.08,1.64a3.55,3.55,0,0,1,1.22-1.3,3.28,3.28,0,0,1,1.75-.5,2.8,2.8,0,0,1,2.2.86,3.63,3.63,0,0,1,.77,2.45v5.6h-1v-5.59a2.82,2.82,0,0,0-.55-1.84,2.07,2.07,0,0,0-1.68-.64,2.7,2.7,0,0,0-.9.15,3,3,0,0,0-.77.43,2.69,2.69,0,0,0-.63.63,3.57,3.57,0,0,0-.44.79v6.07h-1V227.1Z"/><path class="cls-3" d="M176.29,230.68,179,227.1h1.18l-3.33,4.3,3.46,4.45h-1.15l-2.86-3.73-2.85,3.73h-1.16l3.46-4.45-3.33-4.3h1.16Z"/><path class="cls-3" d="M183,227.1H187V235h3v.86h-7V235h3.09v-7H183Zm2.8-2.39a.85.85,0,0,1,.17-.52.7.7,0,0,1,.57-.22.69.69,0,0,1,.56.22.79.79,0,0,1,.17.52.76.76,0,0,1-.17.5.69.69,0,0,1-.56.21.7.7,0,0,1-.57-.21A.82.82,0,0,1,185.77,224.71Z"/><path class="cls-3" d="M192.18,231.35a5.21,5.21,0,0,1,.27-1.69,4.28,4.28,0,0,1,.77-1.41,3.47,3.47,0,0,1,1.22-.95,3.92,3.92,0,0,1,3.28,0,3.7,3.7,0,0,1,1.23.95,4.26,4.26,0,0,1,.76,1.41,5.49,5.49,0,0,1,.28,1.69v.26a5.81,5.81,0,0,1-.27,1.69,4.18,4.18,0,0,1-.77,1.41,3.6,3.6,0,0,1-2.86,1.3,3.62,3.62,0,0,1-1.64-.35,3.51,3.51,0,0,1-1.23-.95,4.36,4.36,0,0,1-.77-1.41,5.21,5.21,0,0,1-.27-1.69Zm1,.26a4.64,4.64,0,0,0,.19,1.35,3.59,3.59,0,0,0,.57,1.14,2.83,2.83,0,0,0,.92.8,2.8,2.8,0,0,0,2.52,0,2.8,2.8,0,0,0,.91-.8,3.37,3.37,0,0,0,.56-1.14,4.64,4.64,0,0,0,.2-1.35v-.26a4.63,4.63,0,0,0-.2-1.34,3.37,3.37,0,0,0-.56-1.14,2.94,2.94,0,0,0-.92-.8,2.62,2.62,0,0,0-1.27-.3,2.54,2.54,0,0,0-1.25.3,2.83,2.83,0,0,0-.92.8,3.79,3.79,0,0,0-.56,1.14,4.62,4.62,0,0,0-.19,1.34Z"/><path class="cls-3" d="M208.49,234.49a3.16,3.16,0,0,1-1.15,1.12,3.42,3.42,0,0,1-1.7.4,3.21,3.21,0,0,1-1.28-.23,2.46,2.46,0,0,1-.93-.69,3.07,3.07,0,0,1-.57-1.11,4.84,4.84,0,0,1-.2-1.49V227.1h1v5.4a3.29,3.29,0,0,0,.54,2,1.87,1.87,0,0,0,1.6.68,3,3,0,0,0,1.77-.5,2.61,2.61,0,0,0,.94-1.36V227.1h1v8.75h-.9Z"/><path class="cls-3" d="M218.66,233.63a1.28,1.28,0,0,0-.2-.71,1.93,1.93,0,0,0-.55-.51,4.13,4.13,0,0,0-.82-.36,8.23,8.23,0,0,0-1-.25c-.42-.09-.82-.19-1.22-.31a4.58,4.58,0,0,1-1-.47,2.11,2.11,0,0,1-.73-.69,1.69,1.69,0,0,1-.28-1,1.89,1.89,0,0,1,.28-1,2.58,2.58,0,0,1,.75-.76,3.56,3.56,0,0,1,1-.46,4.47,4.47,0,0,1,1.21-.16,5.1,5.1,0,0,1,1.33.17,3.54,3.54,0,0,1,1.09.51,2.75,2.75,0,0,1,.74.82,2.55,2.55,0,0,1,.3,1.11h-1a1.57,1.57,0,0,0-.23-.75,1.9,1.9,0,0,0-.56-.57,2.7,2.7,0,0,0-.79-.34,3.39,3.39,0,0,0-.91-.12,4,4,0,0,0-.85.09,2.33,2.33,0,0,0-.74.28,1.64,1.64,0,0,0-.53.48,1.15,1.15,0,0,0-.2.67,1.2,1.2,0,0,0,.19.7,1.54,1.54,0,0,0,.54.46,3.26,3.26,0,0,0,.8.32c.3.08.63.16,1,.23a10.29,10.29,0,0,1,1.27.34,4.5,4.5,0,0,1,1.06.49,2.39,2.39,0,0,1,.73.72,2.14,2.14,0,0,1,0,2.1,2.46,2.46,0,0,1-.78.76,3.63,3.63,0,0,1-1.1.45,5.32,5.32,0,0,1-1.27.15,5.69,5.69,0,0,1-1.39-.17,3.89,3.89,0,0,1-1.15-.52,2.68,2.68,0,0,1-.79-.82,2.25,2.25,0,0,1-.33-1.1h1a1.69,1.69,0,0,0,.32.87,2,2,0,0,0,.64.55,2.7,2.7,0,0,0,.84.29,4.56,4.56,0,0,0,.89.09,3.86,3.86,0,0,0,.89-.1,2.85,2.85,0,0,0,.79-.28,1.92,1.92,0,0,0,.57-.48A1.16,1.16,0,0,0,218.66,233.63Z"/></g></g><path class="cls-3" d="M139.76,240.89H119.32V220.44h20.44Zm-19.44-1h18.44V221.44H120.32Z"/><rect class="cls-5" x="122.03" y="197.49" width="15.01" height="1" transform="translate(-102.06 149.59) rotate(-45)"/><rect class="cls-5" x="129.04" y="190.49" width="1" height="15.01" transform="translate(-102.06 149.58) rotate(-45)"/></g></g></svg>