<svg xmlns="http://www.w3.org/2000/svg" viewBox="0 0 360.97 360.97"><defs><style>.cls-1{fill:none;}.cls-2{isolation:isolate;}.cls-3{fill:#fff;}.cls-4{fill:#1f1c1f;}</style></defs><g id="Layer_2" data-name="Layer 2"><g id="Layer_1-2" data-name="Layer 1"><rect class="cls-1" width="360.97" height="360.97"/><g id="Separated_they_live" data-name="Separated they live" class="cls-2"><g class="cls-2"><path class="cls-3" d="M60,127.11a2.48,2.48,0,0,0-.15-.89,2.66,2.66,0,0,0-.42-.71,3.26,3.26,0,0,0-.62-.55,6.22,6.22,0,0,0-.76-.43c-.26-.12-.54-.23-.82-.33l-.81-.27c-.33-.11-.67-.22-1-.35a7.28,7.28,0,0,1-1-.44,5.54,5.54,0,0,1-.91-.56,4.22,4.22,0,0,1-.74-.72,3.05,3.05,0,0,1-.5-.9,3.39,3.39,0,0,1,.21-2.67,3.91,3.91,0,0,1,1-1.15,4.78,4.78,0,0,1,1.43-.71,5.56,5.56,0,0,1,1.61-.24,5,5,0,0,1,1.73.3,4.58,4.58,0,0,1,1.44.84,4.06,4.06,0,0,1,1.39,3H59.89a4.18,4.18,0,0,0-.34-1.26,3,3,0,0,0-.71-1,3.09,3.09,0,0,0-1-.64,3.58,3.58,0,0,0-1.3-.23,4.3,4.3,0,0,0-1.18.16,3.43,3.43,0,0,0-1,.49,2.56,2.56,0,0,0-.75.82,2.17,2.17,0,0,0-.29,1.16,2.15,2.15,0,0,0,.33,1.21,3.13,3.13,0,0,0,.86.84,5.52,5.52,0,0,0,1.14.57q.62.23,1.17.39t1,.36a9.35,9.35,0,0,1,1,.46,6.62,6.62,0,0,1,.92.6,3.51,3.51,0,0,1,.75.74,3.35,3.35,0,0,1,.68,2.07,3.16,3.16,0,0,1-.41,1.63,3.65,3.65,0,0,1-1,1.16,4.57,4.57,0,0,1-1.46.69,5.89,5.89,0,0,1-1.66.23,6.17,6.17,0,0,1-1.82-.27,5.06,5.06,0,0,1-1.57-.8,4.09,4.09,0,0,1-1.11-1.3,3.82,3.82,0,0,1-.46-1.78h1.18a3.86,3.86,0,0,0,.4,1.36,3.27,3.27,0,0,0,.82,1,3.5,3.5,0,0,0,1.15.6,5,5,0,0,0,1.41.2,4.59,4.59,0,0,0,1.22-.16,3.3,3.3,0,0,0,1.08-.48,2.54,2.54,0,0,0,.77-.83A2.34,2.34,0,0,0,60,127.11Z"/><path class="cls-3" d="M68.15,128.46l.21.58,3.82-9h1.33L68.05,132.3a6.64,6.64,0,0,1-.51.94,3.85,3.85,0,0,1-.69.82,3.37,3.37,0,0,1-.92.59,3,3,0,0,1-1.2.23,3.49,3.49,0,0,1-.52,0l-.47-.09.13-1,.42.05.41,0a2,2,0,0,0,.82-.17,2.37,2.37,0,0,0,.66-.46,3.44,3.44,0,0,0,.51-.62,5.81,5.81,0,0,0,.37-.68l.72-1.57L63,120h1.32Z"/><path class="cls-3" d="M77.25,120l.09,2a4.46,4.46,0,0,1,1.48-1.57,3.82,3.82,0,0,1,2.11-.6,3.34,3.34,0,0,1,2.66,1,4.36,4.36,0,0,1,.93,3v6.77H83.35v-6.75a3.41,3.41,0,0,0-.67-2.23,2.49,2.49,0,0,0-2-.77,3,3,0,0,0-1.08.19,3.43,3.43,0,0,0-.94.51,3.61,3.61,0,0,0-.75.76,4.2,4.2,0,0,0-.53,1v7.34H76.18V120Z"/><path class="cls-3" d="M92.47,129.82a3.68,3.68,0,0,0,1.11-.17,3.08,3.08,0,0,0,1-.5,2.76,2.76,0,0,0,.67-.77,2.37,2.37,0,0,0,.29-1h1.13a3.24,3.24,0,0,1-.39,1.38,3.75,3.75,0,0,1-.92,1.1,4.6,4.6,0,0,1-2.84,1,4.27,4.27,0,0,1-2-.44A4.22,4.22,0,0,1,89,129.19a5.12,5.12,0,0,1-.85-1.68,6.59,6.59,0,0,1-.29-2v-.41a6.59,6.59,0,0,1,.29-2,5.12,5.12,0,0,1,.85-1.68,4.23,4.23,0,0,1,3.45-1.61,4.75,4.75,0,0,1,1.62.27,4,4,0,0,1,1.3.79,3.73,3.73,0,0,1,.88,1.19,4.13,4.13,0,0,1,.36,1.51H95.49a2.92,2.92,0,0,0-.27-1.11,3,3,0,0,0-.64-.88,2.94,2.94,0,0,0-1-.57,3.12,3.12,0,0,0-3.8,1.14,4.36,4.36,0,0,0-.6,1.37,6.29,6.29,0,0,0-.19,1.56v.41a6.37,6.37,0,0,0,.19,1.57,4.26,4.26,0,0,0,.6,1.37,3,3,0,0,0,2.64,1.35Z"/><path class="cls-3" d="M116.16,128.46l.21.58,3.82-9h1.33l-5.46,12.26a6.64,6.64,0,0,1-.51.94,3.85,3.85,0,0,1-.69.82,3.53,3.53,0,0,1-.92.59,3,3,0,0,1-1.2.23,3.37,3.37,0,0,1-.52,0l-.48-.09.14-1,.42.05.41,0a2,2,0,0,0,.82-.17,2.37,2.37,0,0,0,.66-.46,3.44,3.44,0,0,0,.51-.62,5.66,5.66,0,0,0,.36-.68l.73-1.57L111,120h1.32Z"/><path class="cls-3" d="M123.58,125.17a6.81,6.81,0,0,1,.33-2,5.35,5.35,0,0,1,.92-1.7,4.51,4.51,0,0,1,1.48-1.15,4.77,4.77,0,0,1,4,0,4.32,4.32,0,0,1,1.48,1.15,5,5,0,0,1,.93,1.7,6.23,6.23,0,0,1,.33,2v.32a6.5,6.5,0,0,1-.32,2,5,5,0,0,1-.93,1.7,4.38,4.38,0,0,1-1.47,1.15,4.9,4.9,0,0,1-4,0,4.41,4.41,0,0,1-1.48-1.15,5.37,5.37,0,0,1-.93-1.7,6.81,6.81,0,0,1-.33-2Zm1.17.32a5.48,5.48,0,0,0,.24,1.62,4.24,4.24,0,0,0,.68,1.38,3.57,3.57,0,0,0,1.11,1,3.14,3.14,0,0,0,1.53.36,3.07,3.07,0,0,0,1.51-.36,3.57,3.57,0,0,0,1.11-1,4.45,4.45,0,0,0,.68-1.38,5.82,5.82,0,0,0,.23-1.62v-.32a5.8,5.8,0,0,0-.23-1.61,4.47,4.47,0,0,0-.69-1.38,3.45,3.45,0,0,0-1.11-1,3.31,3.31,0,0,0-3,0,3.45,3.45,0,0,0-1.11,1,4.43,4.43,0,0,0-.67,1.38,5.46,5.46,0,0,0-.24,1.61Z"/><path class="cls-3" d="M143.28,129a3.85,3.85,0,0,1-1.39,1.36,4.17,4.17,0,0,1-2,.48,3.93,3.93,0,0,1-1.55-.28,3,3,0,0,1-1.12-.83,3.77,3.77,0,0,1-.69-1.34,6.18,6.18,0,0,1-.24-1.8V120h1.16v6.53A4,4,0,0,0,138,129a2.3,2.3,0,0,0,1.94.82,3.43,3.43,0,0,0,2.13-.61,3.14,3.14,0,0,0,1.15-1.64V120h1.18v10.57h-1.09Z"/><path class="cls-3" d="M155.18,119.85a6.49,6.49,0,0,1,.88.05,4.63,4.63,0,0,1,.73.15l-.14,1.12c-.28,0-.55-.1-.82-.13A7.89,7.89,0,0,0,155,121a4.37,4.37,0,0,0-2.52.7,3.76,3.76,0,0,0-1.46,2.16v6.76h-1.21V120h1.12l.08,1.84v.21a4.72,4.72,0,0,1,1.71-1.64A4.93,4.93,0,0,1,155.18,119.85Z"/><path class="cls-3" d="M176.48,129.82a3.8,3.8,0,0,0,1.12-.17,3,3,0,0,0,.94-.5,2.61,2.61,0,0,0,.67-.77,2.52,2.52,0,0,0,.3-1h1.12a3.1,3.1,0,0,1-.39,1.38,3.61,3.61,0,0,1-.92,1.1,4.29,4.29,0,0,1-1.3.71,4.41,4.41,0,0,1-1.54.26,4.3,4.3,0,0,1-2-.44,4.19,4.19,0,0,1-1.43-1.17,5.14,5.14,0,0,1-.86-1.68,6.92,6.92,0,0,1-.29-2v-.41a6.92,6.92,0,0,1,.29-2,5.14,5.14,0,0,1,.86-1.68,4.19,4.19,0,0,1,1.43-1.17,4.26,4.26,0,0,1,2-.44,4.76,4.76,0,0,1,1.63.27,4.08,4.08,0,0,1,1.3.79,3.85,3.85,0,0,1,.87,1.19,3.94,3.94,0,0,1,.36,1.51h-1.12a2.76,2.76,0,0,0-.28-1.11,2.81,2.81,0,0,0-.64-.88,2.89,2.89,0,0,0-.94-.57,3.47,3.47,0,0,0-2.75.16,3.32,3.32,0,0,0-1.06,1,4.36,4.36,0,0,0-.6,1.37,6.8,6.8,0,0,0-.19,1.56v.41a6.88,6.88,0,0,0,.19,1.57,4.26,4.26,0,0,0,.6,1.37,3.32,3.32,0,0,0,1.06,1A3.24,3.24,0,0,0,176.48,129.82Z"/><path class="cls-3" d="M183.59,125.17a6.81,6.81,0,0,1,.33-2,5.35,5.35,0,0,1,.92-1.7,4.41,4.41,0,0,1,1.48-1.15,4.77,4.77,0,0,1,4,0,4.32,4.32,0,0,1,1.48,1.15,5,5,0,0,1,.93,1.7,6.23,6.23,0,0,1,.33,2v.32a6.5,6.5,0,0,1-.32,2,5,5,0,0,1-.93,1.7,4.38,4.38,0,0,1-1.47,1.15,4.9,4.9,0,0,1-4,0,4.41,4.41,0,0,1-1.48-1.15,5.37,5.37,0,0,1-.93-1.7,6.81,6.81,0,0,1-.33-2Zm1.17.32a5.48,5.48,0,0,0,.24,1.62,4.24,4.24,0,0,0,.68,1.38,3.57,3.57,0,0,0,1.11,1,3.14,3.14,0,0,0,1.53.36,3.07,3.07,0,0,0,1.51-.36,3.57,3.57,0,0,0,1.11-1,4.45,4.45,0,0,0,.68-1.38,5.82,5.82,0,0,0,.23-1.62v-.32a5.8,5.8,0,0,0-.23-1.61,4.47,4.47,0,0,0-.69-1.38,3.45,3.45,0,0,0-1.11-1,3.31,3.31,0,0,0-3,0,3.45,3.45,0,0,0-1.11,1,4.43,4.43,0,0,0-.67,1.38,5.46,5.46,0,0,0-.24,1.61Z"/><path class="cls-3" d="M197.27,120l.09,2a4.46,4.46,0,0,1,1.48-1.57,3.82,3.82,0,0,1,2.11-.6,3.34,3.34,0,0,1,2.66,1,4.36,4.36,0,0,1,.93,3v6.77h-1.18v-6.75a3.35,3.35,0,0,0-.66-2.23,2.49,2.49,0,0,0-2-.77,3,3,0,0,0-1.08.19,3.43,3.43,0,0,0-.94.51,3.61,3.61,0,0,0-.75.76,4.2,4.2,0,0,0-.53,1v7.34H196.2V120Z"/><path class="cls-3" d="M212.1,117.34V120H216v1H212.1v6.65a2.51,2.51,0,0,0,.19,1,1.7,1.7,0,0,0,.48.65,1.85,1.85,0,0,0,.73.36,3.58,3.58,0,0,0,.9.11,6.82,6.82,0,0,0,1-.07c.34-.05.63-.09.88-.14l.17.89a4.75,4.75,0,0,1-1,.25,8.47,8.47,0,0,1-1.23.08,4.45,4.45,0,0,1-1.3-.17,2.65,2.65,0,0,1-1-.54,2.71,2.71,0,0,1-.69-1,3.94,3.94,0,0,1-.27-1.47V121H208v-1h2.94v-2.7Z"/><path class="cls-3" d="M227.47,130.61a4.75,4.75,0,0,1-.17-.72c0-.26-.06-.53-.08-.81a4.16,4.16,0,0,1-.7.69,4.86,4.86,0,0,1-.87.54,5.44,5.44,0,0,1-1,.36,4.69,4.69,0,0,1-1.14.13,4.43,4.43,0,0,1-1.38-.21A3.31,3.31,0,0,1,221,130a2.74,2.74,0,0,1-.75-.94,2.91,2.91,0,0,1-.26-1.23,2.84,2.84,0,0,1,.4-1.55,3.14,3.14,0,0,1,1.08-1,5.57,5.57,0,0,1,1.58-.58,9.62,9.62,0,0,1,1.89-.18h2.28v-1.21a2.38,2.38,0,0,0-.23-1.05,2.25,2.25,0,0,0-.61-.76,2.65,2.65,0,0,0-.92-.46,4.12,4.12,0,0,0-2.24,0,3.11,3.11,0,0,0-.9.42,2,2,0,0,0-.64.67,1.79,1.79,0,0,0-.27.89h-1.17a2.67,2.67,0,0,1,.36-1.24,3.27,3.27,0,0,1,.88-1,4.34,4.34,0,0,1,1.29-.65,5.12,5.12,0,0,1,1.58-.23,5.75,5.75,0,0,1,1.58.21,3.77,3.77,0,0,1,1.28.65,3,3,0,0,1,.86,1.07,3.38,3.38,0,0,1,.32,1.5v5.12a6.56,6.56,0,0,0,.1,1.07,10.17,10.17,0,0,0,.23,1v.12Zm-3.86-.84a3.86,3.86,0,0,0,1.18-.15,4.48,4.48,0,0,0,1-.43,3.87,3.87,0,0,0,.83-.67,2.87,2.87,0,0,0,.56-.84v-2.32h-2.13a8.87,8.87,0,0,0-1.48.12,4.44,4.44,0,0,0-1.26.39,2.37,2.37,0,0,0-.87.71,2.07,2.07,0,0,0-.14,2,2.08,2.08,0,0,0,.53.65,2.41,2.41,0,0,0,.78.41A3.34,3.34,0,0,0,223.61,129.77Z"/><path class="cls-3" d="M236.49,129.82a3.8,3.8,0,0,0,1.12-.17,3,3,0,0,0,.94-.5,2.61,2.61,0,0,0,.67-.77,2.52,2.52,0,0,0,.3-1h1.12a3.24,3.24,0,0,1-.39,1.38,3.61,3.61,0,0,1-.92,1.1,4.6,4.6,0,0,1-2.84,1,4.3,4.3,0,0,1-2-.44,4.19,4.19,0,0,1-1.43-1.17,5.14,5.14,0,0,1-.86-1.68,6.92,6.92,0,0,1-.29-2v-.41a6.92,6.92,0,0,1,.29-2,5.14,5.14,0,0,1,.86-1.68,4.19,4.19,0,0,1,1.43-1.17,4.26,4.26,0,0,1,2-.44,4.76,4.76,0,0,1,1.63.27,4.08,4.08,0,0,1,1.3.79,3.85,3.85,0,0,1,.87,1.19,4.13,4.13,0,0,1,.36,1.51h-1.12a2.76,2.76,0,0,0-.28-1.11,2.81,2.81,0,0,0-.64-.88,2.89,2.89,0,0,0-.94-.57,3.47,3.47,0,0,0-2.75.16,3.32,3.32,0,0,0-1.06,1,4.36,4.36,0,0,0-.6,1.37,6.8,6.8,0,0,0-.19,1.56v.41a6.88,6.88,0,0,0,.19,1.57,4.26,4.26,0,0,0,.6,1.37,3.32,3.32,0,0,0,1.06,1A3.24,3.24,0,0,0,236.49,129.82Z"/><path class="cls-3" d="M248.1,117.34V120H252v1H248.1v6.65a2.69,2.69,0,0,0,.19,1,1.62,1.62,0,0,0,.49.65,1.88,1.88,0,0,0,.72.36,3.72,3.72,0,0,0,.91.11,6.92,6.92,0,0,0,1-.07c.34-.05.63-.09.87-.14l.18.89a4.71,4.71,0,0,1-1,.25,8.29,8.29,0,0,1-1.23.08,4.49,4.49,0,0,1-1.3-.17,2.68,2.68,0,0,1-1-.54,2.62,2.62,0,0,1-.7-1,4,4,0,0,1-.26-1.47V121H244v-1h2.94v-2.7Z"/><path class="cls-3" d="M268.48,115.61h4.92v14H277v1h-8.5v-1h3.75V116.65h-3.75Z"/><path class="cls-3" d="M280.48,120h4.91v9.53H289v1h-8.5v-1h3.73v-8.48h-3.73Zm3.39-2.89a1,1,0,0,1,.21-.62.79.79,0,0,1,.68-.27.81.81,0,0,1,.68.27,1,1,0,0,1,.21.62.91.91,0,0,1-.21.6.84.84,0,0,1-.68.26.81.81,0,0,1-.68-.26A.91.91,0,0,1,283.87,117.15Z"/><path class="cls-3" d="M299.59,127.92a1.52,1.52,0,0,0-.25-.85,2.12,2.12,0,0,0-.67-.62,4.67,4.67,0,0,0-1-.43,9.68,9.68,0,0,0-1.18-.3c-.51-.11-1-.23-1.48-.38a5.59,5.59,0,0,1-1.26-.56,2.77,2.77,0,0,1-.89-.84,2.13,2.13,0,0,1-.34-1.21,2.21,2.21,0,0,1,.35-1.22,3,3,0,0,1,.89-.91,4.16,4.16,0,0,1,1.27-.56,5.59,5.59,0,0,1,1.47-.19,6,6,0,0,1,1.61.21,4.1,4.1,0,0,1,1.3.61,3,3,0,0,1,.9,1,2.93,2.93,0,0,1,.36,1.34h-1.17a1.87,1.87,0,0,0-.28-.91,2.17,2.17,0,0,0-.67-.68,3.56,3.56,0,0,0-.95-.42,4.06,4.06,0,0,0-1.1-.15,4.4,4.4,0,0,0-1,.12,2.76,2.76,0,0,0-.9.34,1.93,1.93,0,0,0-.63.57,1.41,1.41,0,0,0-.24.82,1.31,1.31,0,0,0,.23.83,1.81,1.81,0,0,0,.65.57,4.27,4.27,0,0,0,1,.38c.37.1.76.19,1.17.28a15.48,15.48,0,0,1,1.53.4,5.49,5.49,0,0,1,1.29.6,2.92,2.92,0,0,1,.88.87,2.36,2.36,0,0,1,.32,1.24,2.33,2.33,0,0,1-.36,1.3,3.06,3.06,0,0,1-.94.92,4.46,4.46,0,0,1-1.32.54,6.75,6.75,0,0,1-3.22,0,4.58,4.58,0,0,1-1.38-.62,3.39,3.39,0,0,1-1-1,2.72,2.72,0,0,1-.39-1.33h1.18a1.91,1.91,0,0,0,.37,1,2.29,2.29,0,0,0,.78.67,3.19,3.19,0,0,0,1,.35,5.82,5.82,0,0,0,1.08.11,5.55,5.55,0,0,0,1.07-.11,3.46,3.46,0,0,0,.95-.35,2.11,2.11,0,0,0,.7-.58A1.47,1.47,0,0,0,299.59,127.92Z"/><path class="cls-3" d="M308.11,117.34V120H312v1h-3.92v6.65a2.69,2.69,0,0,0,.19,1,1.62,1.62,0,0,0,.49.65,1.81,1.81,0,0,0,.72.36,3.72,3.72,0,0,0,.91.11,7,7,0,0,0,1-.07c.34-.05.63-.09.87-.14l.18.89a4.71,4.71,0,0,1-1,.25,8.29,8.29,0,0,1-1.23.08,4.49,4.49,0,0,1-1.3-.17,2.68,2.68,0,0,1-1-.54,2.62,2.62,0,0,1-.7-1,4,4,0,0,1-.26-1.47V121H304v-1h2.94v-2.7Z"/><path class="cls-3" d="M44.06,141.34V144H48v1H44.06v6.65a2.69,2.69,0,0,0,.19,1,1.72,1.72,0,0,0,.49.65,1.88,1.88,0,0,0,.72.36,3.72,3.72,0,0,0,.91.11,6.92,6.92,0,0,0,1-.07c.34-.05.63-.09.87-.14l.18.89a4.71,4.71,0,0,1-1,.25,8.29,8.29,0,0,1-1.23.08,4.49,4.49,0,0,1-1.3-.17,2.68,2.68,0,0,1-1-.54,2.71,2.71,0,0,1-.69-1,3.94,3.94,0,0,1-.27-1.47V145H39.93v-1h2.94v-2.7Z"/><path class="cls-3" d="M51.56,149.17a6.51,6.51,0,0,1,.34-2,5.16,5.16,0,0,1,.92-1.7,4.64,4.64,0,0,1,5.44-1.15,4.51,4.51,0,0,1,1.48,1.15,5.16,5.16,0,0,1,.92,1.7,6.51,6.51,0,0,1,.34,2v.32a6.81,6.81,0,0,1-.33,2,5.16,5.16,0,0,1-.92,1.7,4.35,4.35,0,0,1-3.46,1.57,4.57,4.57,0,0,1-2-.42,4.51,4.51,0,0,1-1.48-1.15,5.16,5.16,0,0,1-.92-1.7,6.51,6.51,0,0,1-.34-2Zm1.18.32a5.47,5.47,0,0,0,.23,1.62,4.45,4.45,0,0,0,.68,1.38,3.57,3.57,0,0,0,1.11,1,3.41,3.41,0,0,0,3.05,0,3.43,3.43,0,0,0,1.1-1,4.45,4.45,0,0,0,.68-1.38,5.47,5.47,0,0,0,.23-1.62v-.32a5.45,5.45,0,0,0-.23-1.61,4.45,4.45,0,0,0-.68-1.38,3.38,3.38,0,0,0-1.12-1,3.31,3.31,0,0,0-3,0,3.41,3.41,0,0,0-1.1,1,4.45,4.45,0,0,0-.68,1.38,5.45,5.45,0,0,0-.23,1.61Z"/><path class="cls-3" d="M80.46,153.82a3.8,3.8,0,0,0,1.12-.17,3,3,0,0,0,.94-.5,2.61,2.61,0,0,0,.67-.77,2.52,2.52,0,0,0,.3-1h1.12a3.24,3.24,0,0,1-.39,1.38,3.61,3.61,0,0,1-.92,1.1,4.6,4.6,0,0,1-2.84,1,4.3,4.3,0,0,1-2-.44A4.19,4.19,0,0,1,77,153.19a5.14,5.14,0,0,1-.86-1.68,6.92,6.92,0,0,1-.29-2v-.41a6.92,6.92,0,0,1,.29-2,5.14,5.14,0,0,1,.86-1.68,4.19,4.19,0,0,1,1.43-1.17,4.26,4.26,0,0,1,2-.44,4.76,4.76,0,0,1,1.63.27,3.93,3.93,0,0,1,1.29.79,3.73,3.73,0,0,1,.88,1.19,4.13,4.13,0,0,1,.36,1.51H83.49a2.76,2.76,0,0,0-.28-1.11,2.81,2.81,0,0,0-.64-.88,2.89,2.89,0,0,0-.94-.57,3.47,3.47,0,0,0-2.75.16,3.32,3.32,0,0,0-1.06,1,4.36,4.36,0,0,0-.6,1.37,6.8,6.8,0,0,0-.19,1.56v.41a6.88,6.88,0,0,0,.19,1.57,4.26,4.26,0,0,0,.6,1.37,3.32,3.32,0,0,0,1.06,1A3.24,3.24,0,0,0,80.46,153.82Z"/><path class="cls-3" d="M87.57,149.17a6.81,6.81,0,0,1,.33-2,5.35,5.35,0,0,1,.92-1.7,4.41,4.41,0,0,1,1.48-1.15,4.77,4.77,0,0,1,4,0,4.32,4.32,0,0,1,1.48,1.15,5,5,0,0,1,.93,1.7,6.23,6.23,0,0,1,.33,2v.32a6.5,6.5,0,0,1-.32,2,5.18,5.18,0,0,1-.93,1.7,4.38,4.38,0,0,1-1.47,1.15,4.9,4.9,0,0,1-4,0,4.41,4.41,0,0,1-1.48-1.15,5.37,5.37,0,0,1-.93-1.7,6.81,6.81,0,0,1-.33-2Zm1.17.32a5.48,5.48,0,0,0,.24,1.62,4.24,4.24,0,0,0,.68,1.38,3.57,3.57,0,0,0,1.11,1,3.14,3.14,0,0,0,1.53.36,3.09,3.09,0,0,0,1.51-.36,3.57,3.57,0,0,0,1.11-1,4.68,4.68,0,0,0,.68-1.38,5.82,5.82,0,0,0,.23-1.62v-.32a5.8,5.8,0,0,0-.23-1.61,4.47,4.47,0,0,0-.69-1.38,3.45,3.45,0,0,0-1.11-1,3.31,3.31,0,0,0-3,0,3.45,3.45,0,0,0-1.11,1,4.43,4.43,0,0,0-.67,1.38,5.46,5.46,0,0,0-.24,1.61Z"/><path class="cls-3" d="M101.25,144l.09,2a4.37,4.37,0,0,1,1.48-1.57,3.82,3.82,0,0,1,2.11-.6,3.34,3.34,0,0,1,2.66,1,4.36,4.36,0,0,1,.93,3v6.77h-1.18v-6.75a3.35,3.35,0,0,0-.66-2.23,2.5,2.5,0,0,0-2-.77,3,3,0,0,0-1.08.19,3.43,3.43,0,0,0-.94.51,3.61,3.61,0,0,0-.75.76,4.2,4.2,0,0,0-.53,1v7.34h-1.17V144Z"/><path class="cls-3" d="M113.25,144l.09,2a4.46,4.46,0,0,1,1.48-1.57,3.82,3.82,0,0,1,2.11-.6,3.34,3.34,0,0,1,2.66,1,4.36,4.36,0,0,1,.93,3v6.77h-1.17v-6.75a3.41,3.41,0,0,0-.67-2.23,2.49,2.49,0,0,0-2-.77,3,3,0,0,0-1.08.19,3.43,3.43,0,0,0-.94.51,3.61,3.61,0,0,0-.75.76,4.2,4.2,0,0,0-.53,1v7.34h-1.17V144Z"/><path class="cls-3" d="M128.69,154.8a4.79,4.79,0,0,1-3.57-1.52,5.1,5.1,0,0,1-1-1.65,5.73,5.73,0,0,1-.37-2v-.42a6,6,0,0,1,.38-2.11,5.23,5.23,0,0,1,1-1.7,4.74,4.74,0,0,1,1.49-1.14,4.31,4.31,0,0,1,1.85-.41,4.24,4.24,0,0,1,1.86.38,3.93,3.93,0,0,1,1.37,1,4.66,4.66,0,0,1,.83,1.54,5.74,5.74,0,0,1,.3,1.88v.71h-7.91v.23a4.66,4.66,0,0,0,.29,1.58,4.23,4.23,0,0,0,.77,1.34,3.77,3.77,0,0,0,1.2.92,3.5,3.5,0,0,0,1.56.35,4.24,4.24,0,0,0,1.77-.36,3.72,3.72,0,0,0,1.35-1.08l.74.56a5.45,5.45,0,0,1-.69.76,4.66,4.66,0,0,1-.9.59,5.1,5.1,0,0,1-1.08.38A5.48,5.48,0,0,1,128.69,154.8Zm-.22-10a3.13,3.13,0,0,0-1.31.27,3.26,3.26,0,0,0-1,.75,4.34,4.34,0,0,0-.74,1.13,5.21,5.21,0,0,0-.4,1.42h6.69v-.13a3.92,3.92,0,0,0-.24-1.27,3.3,3.3,0,0,0-.62-1.1,3,3,0,0,0-1-.77A2.93,2.93,0,0,0,128.47,144.84Z"/><path class="cls-3" d="M140.47,153.82a3.8,3.8,0,0,0,1.12-.17,3,3,0,0,0,.94-.5,2.61,2.61,0,0,0,.67-.77,2.52,2.52,0,0,0,.3-1h1.12a3.24,3.24,0,0,1-.39,1.38,3.75,3.75,0,0,1-.92,1.1,4.6,4.6,0,0,1-2.84,1,4.3,4.3,0,0,1-2-.44,4.19,4.19,0,0,1-1.43-1.17,5.14,5.14,0,0,1-.86-1.68,6.92,6.92,0,0,1-.29-2v-.41a6.92,6.92,0,0,1,.29-2,5.14,5.14,0,0,1,.86-1.68,4.19,4.19,0,0,1,1.43-1.17,4.26,4.26,0,0,1,2-.44,4.76,4.76,0,0,1,1.63.27,3.93,3.93,0,0,1,1.29.79,3.73,3.73,0,0,1,.88,1.19,4.13,4.13,0,0,1,.36,1.51H143.5a2.76,2.76,0,0,0-.28-1.11,2.81,2.81,0,0,0-.64-.88,2.89,2.89,0,0,0-.94-.57,3.47,3.47,0,0,0-2.75.16,3.32,3.32,0,0,0-1.06,1,4.36,4.36,0,0,0-.6,1.37,6.8,6.8,0,0,0-.19,1.56v.41a6.88,6.88,0,0,0,.19,1.57,4.26,4.26,0,0,0,.6,1.37,3.32,3.32,0,0,0,1.06,1A3.24,3.24,0,0,0,140.47,153.82Z"/><path class="cls-3" d="M152.08,141.34V144H156v1h-3.92v6.65a2.69,2.69,0,0,0,.19,1,1.62,1.62,0,0,0,.49.65,1.81,1.81,0,0,0,.72.36,3.72,3.72,0,0,0,.91.11,7,7,0,0,0,1-.07c.34-.05.63-.09.87-.14l.18.89a4.71,4.71,0,0,1-1,.25,8.29,8.29,0,0,1-1.23.08,4.49,4.49,0,0,1-1.3-.17,2.68,2.68,0,0,1-1-.54,2.62,2.62,0,0,1-.7-1,4,4,0,0,1-.26-1.47V145H148v-1h2.94v-2.7Z"/><path class="cls-3" d="M173.47,151.18l.31,1.88.39-1.88L176,144h.82l1.79,7.14.39,1.92.34-1.92,1.44-7.14h1.09l-2.35,10.57h-.94l-1.87-7.23-.31-1.69-.31,1.69-1.85,7.23h-.95L170.91,144H172Z"/><path class="cls-3" d="M184.46,144h4.91v9.53H193v1h-8.5v-1h3.73v-8.48h-3.73Zm3.39-2.89a1,1,0,0,1,.21-.62.79.79,0,0,1,.68-.27.81.81,0,0,1,.68.27,1,1,0,0,1,.21.62.91.91,0,0,1-.21.6.84.84,0,0,1-.68.26.81.81,0,0,1-.68-.26A.91.91,0,0,1,187.85,141.15Z"/><path class="cls-3" d="M200.09,141.34V144H204v1h-3.91v6.65a2.69,2.69,0,0,0,.19,1,1.62,1.62,0,0,0,.49.65,1.75,1.75,0,0,0,.72.36,3.7,3.7,0,0,0,.9.11,6.82,6.82,0,0,0,1-.07c.35-.05.64-.09.88-.14l.17.89a4.75,4.75,0,0,1-1,.25,8.29,8.29,0,0,1-1.23.08,4.49,4.49,0,0,1-1.3-.17,2.5,2.5,0,0,1-1.73-1.52,3.75,3.75,0,0,1-.26-1.47V145H196v-1h2.94v-2.7Z"/><path class="cls-3" d="M209.37,146.08a4.53,4.53,0,0,1,1.48-1.62,3.84,3.84,0,0,1,2.12-.61,4.11,4.11,0,0,1,1.54.27,2.77,2.77,0,0,1,1.12.78,3.48,3.48,0,0,1,.69,1.26,5.49,5.49,0,0,1,.24,1.7v6.75h-1.17v-6.75a4.43,4.43,0,0,0-.16-1.26,2.5,2.5,0,0,0-.51-.94,2,2,0,0,0-.84-.59,3.12,3.12,0,0,0-1.19-.21,3.21,3.21,0,0,0-1.07.18,3.66,3.66,0,0,0-.94.49,3.75,3.75,0,0,0-.76.73,3.86,3.86,0,0,0-.55.94v7.41h-1.18v-15h1.18Z"/><path class="cls-3" d="M240.35,145h-4.21l0,9.61H235V145h-2.88v-1H235v-.84a4.62,4.62,0,0,1,.34-1.82,3.16,3.16,0,0,1,.89-1.21,3.31,3.31,0,0,1,1.31-.66,5.82,5.82,0,0,1,1.59-.2,9.82,9.82,0,0,1,1.09.06,10.54,10.54,0,0,1,1.07.2l-.15,1a7.19,7.19,0,0,0-.88-.18,6.58,6.58,0,0,0-1-.07,5,5,0,0,0-1.19.14,2.56,2.56,0,0,0-1,.46,2.17,2.17,0,0,0-.66.89,3.66,3.66,0,0,0-.26,1.39V144h4.21Z"/><path class="cls-3" d="M251.2,143.85a6.49,6.49,0,0,1,.88.05,4.63,4.63,0,0,1,.73.15l-.14,1.12c-.28,0-.55-.1-.82-.13a7.89,7.89,0,0,0-.84,0,4.37,4.37,0,0,0-2.52.7,3.76,3.76,0,0,0-1.46,2.16v6.76h-1.21V144H247l.08,1.84v.21a4.72,4.72,0,0,1,1.71-1.64A4.93,4.93,0,0,1,251.2,143.85Z"/><path class="cls-3" d="M256.49,144h4.9v9.53H265v1h-8.49v-1h3.73v-8.48h-3.73Zm3.38-2.89a1,1,0,0,1,.21-.62.8.8,0,0,1,.68-.27.81.81,0,0,1,.68.27,1,1,0,0,1,.21.62.91.91,0,0,1-.21.6.84.84,0,0,1-.68.26.83.83,0,0,1-.68-.26A.91.91,0,0,1,259.87,141.15Z"/><path class="cls-3" d="M272.73,154.8a4.77,4.77,0,0,1-2-.41,4.68,4.68,0,0,1-1.55-1.11,5,5,0,0,1-1-1.65,5.73,5.73,0,0,1-.37-2v-.42a6.27,6.27,0,0,1,.38-2.11,5.42,5.42,0,0,1,1-1.7,4.67,4.67,0,0,1,1.5-1.14,4.24,4.24,0,0,1,1.84-.41,4.28,4.28,0,0,1,1.87.38,3.89,3.89,0,0,1,1.36,1,4.5,4.5,0,0,1,.84,1.54,6.33,6.33,0,0,1,.3,1.88v.71H269v.23a4.65,4.65,0,0,0,.28,1.58,4.23,4.23,0,0,0,.77,1.34,3.77,3.77,0,0,0,1.2.92,3.5,3.5,0,0,0,1.56.35,4.21,4.21,0,0,0,1.77-.36,3.72,3.72,0,0,0,1.35-1.08l.74.56a4.44,4.44,0,0,1-.69.76,4.66,4.66,0,0,1-.9.59,4.82,4.82,0,0,1-1.07.38A5.61,5.61,0,0,1,272.73,154.8Zm-.23-10a3.17,3.17,0,0,0-1.31.27,3.33,3.33,0,0,0-1,.75,3.88,3.88,0,0,0-.74,1.13,5.21,5.21,0,0,0-.41,1.42h6.69v-.13a3.92,3.92,0,0,0-.24-1.27,3.3,3.3,0,0,0-.62-1.1,3,3,0,0,0-1-.77A2.91,2.91,0,0,0,272.5,144.84Z"/><path class="cls-3" d="M281.29,144l.09,2a4.37,4.37,0,0,1,1.48-1.57,3.8,3.8,0,0,1,2.11-.6,3.34,3.34,0,0,1,2.66,1,4.36,4.36,0,0,1,.93,3v6.77h-1.18v-6.75a3.35,3.35,0,0,0-.66-2.23,2.5,2.5,0,0,0-2-.77,3,3,0,0,0-1.08.19,3.29,3.29,0,0,0-.94.51,3.61,3.61,0,0,0-.75.76,3.85,3.85,0,0,0-.53,1v7.34h-1.17V144Z"/><path class="cls-3" d="M291.87,149.23a7.53,7.53,0,0,1,.26-2,5.54,5.54,0,0,1,.79-1.72,3.9,3.9,0,0,1,1.3-1.19,3.8,3.8,0,0,1,1.85-.44,3.68,3.68,0,0,1,3.14,1.63v-5.87h1.16v15h-1.09l0-1.38a3.75,3.75,0,0,1-1.37,1.17,4,4,0,0,1-1.8.4,3.66,3.66,0,0,1-1.84-.45,3.93,3.93,0,0,1-1.3-1.2,5.54,5.54,0,0,1-.79-1.72,7.42,7.42,0,0,1-.26-2Zm1.18.2a7.55,7.55,0,0,0,.17,1.57,4.51,4.51,0,0,0,.55,1.41,3.08,3.08,0,0,0,1,1,2.83,2.83,0,0,0,1.5.38,3.19,3.19,0,0,0,.94-.13,2.9,2.9,0,0,0,.82-.37,3.08,3.08,0,0,0,.68-.57,3.57,3.57,0,0,0,.5-.76v-5.12a4,4,0,0,0-.48-.8,3.22,3.22,0,0,0-.66-.62,3.07,3.07,0,0,0-1.78-.56,2.76,2.76,0,0,0-1.51.39,3,3,0,0,0-1,1,4.29,4.29,0,0,0-.56,1.41,7.55,7.55,0,0,0-.17,1.57Z"/><path class="cls-3" d="M311.59,151.92a1.51,1.51,0,0,0-.24-.85,2.23,2.23,0,0,0-.67-.62,4.67,4.67,0,0,0-1-.43,10.17,10.17,0,0,0-1.18-.3c-.51-.11-1-.23-1.48-.38a5.67,5.67,0,0,1-1.27-.56,3,3,0,0,1-.89-.84,2.12,2.12,0,0,1-.33-1.21,2.28,2.28,0,0,1,.34-1.22,3.12,3.12,0,0,1,.9-.91,4.06,4.06,0,0,1,1.27-.56,5.59,5.59,0,0,1,1.47-.19,5.89,5.89,0,0,1,1.6.21,4.06,4.06,0,0,1,1.31.61,3,3,0,0,1,.89,1,2.82,2.82,0,0,1,.37,1.34h-1.18a1.77,1.77,0,0,0-.27-.91,2.17,2.17,0,0,0-.67-.68,3.49,3.49,0,0,0-1-.42,4,4,0,0,0-1.09-.15,4.34,4.34,0,0,0-1,.12,2.76,2.76,0,0,0-.9.34,1.87,1.87,0,0,0-.64.57,1.41,1.41,0,0,0-.24.82,1.38,1.38,0,0,0,.23.83,1.9,1.9,0,0,0,.65.57,4.69,4.69,0,0,0,1,.38c.37.1.76.19,1.18.28s1,.25,1.53.4a5.61,5.61,0,0,1,1.28.6,2.81,2.81,0,0,1,.88.87,2.27,2.27,0,0,1,.32,1.24,2.32,2.32,0,0,1-.35,1.3,3.06,3.06,0,0,1-.94.92,4.53,4.53,0,0,1-1.33.54,6.55,6.55,0,0,1-1.54.18,6.42,6.42,0,0,1-1.67-.21,4.63,4.63,0,0,1-1.39-.62,3.23,3.23,0,0,1-1-1,2.72,2.72,0,0,1-.39-1.33h1.17a2,2,0,0,0,.38,1,2.29,2.29,0,0,0,.78.67,3.19,3.19,0,0,0,1,.35,5.72,5.72,0,0,0,1.07.11,5.47,5.47,0,0,0,1.07-.11,3.41,3.41,0,0,0,1-.35,2.07,2.07,0,0,0,.69-.58A1.41,1.41,0,0,0,311.59,151.92Z"/><path class="cls-3" d="M319.36,153.91a.83.83,0,0,1,.22-.59.79.79,0,0,1,.61-.24.83.83,0,0,1,.62.24.84.84,0,0,1,.23.59.72.72,0,0,1-.24.55.84.84,0,0,1-.61.23.82.82,0,0,1-.61-.23A.74.74,0,0,1,319.36,153.91Zm1.36-3.55h-1.17v-10h1.17Z"/></g></g><g id="Rectangle_320" data-name="Rectangle 320"><rect class="cls-3" x="82.81" y="197.36" width="209" height="48" rx="13"/></g><g id="Action-2" class="cls-2"><g class="cls-2"><path class="cls-4" d="M153,224.21a15.3,15.3,0,0,0,.7-1.63,9.56,9.56,0,0,0,2.64,1,11.54,11.54,0,0,0,2.8.37,5.16,5.16,0,0,0,1.87-.23c.36-.15.54-.32.54-.5,0-.65-1-1-3-1a12.15,12.15,0,0,1-4.74-.68,2.28,2.28,0,0,1-1.47-2.2,3.41,3.41,0,0,1,1.79-3.18,9.27,9.27,0,0,1,4.66-1,14.1,14.1,0,0,1,3.41.43,13.7,13.7,0,0,1,3.16,1.16c-.31.7-.63,1.56-1,2.57-.07.22-.12.38-.16.48a6.73,6.73,0,0,0-2.47-1.09,11.18,11.18,0,0,0-2.91-.44,6.61,6.61,0,0,0-2.05.2c-.35.13-.53.32-.53.58s.25.46.73.62a7.55,7.55,0,0,0,2.11.23,11.67,11.67,0,0,1,4.92.77,2.52,2.52,0,0,1,1.54,2.38,3.46,3.46,0,0,1-1.63,3.22,9.77,9.77,0,0,1-4.95,1,17.4,17.4,0,0,1-3.61-.39,13.3,13.3,0,0,1-3.31-1.15A15.36,15.36,0,0,0,153,224.21Z"/><path class="cls-4" d="M180,218.85c-1.67,0-3.3-.08-4.88-.09v8.35h-4v-8.35q-2.39,0-4.86.09v-3.36H180Z"/><path class="cls-4" d="M190.22,227.11c-.2-.61-.47-1.37-.81-2.29H184.3l-.8,2.29h-4L184,215.49h5.89l4.51,11.62Zm-1.73-4.79c-.4-1.12-.82-2.24-1.24-3.36l-.39-1c-.37,1-.92,2.44-1.65,4.4Z"/><path class="cls-4" d="M207.48,221.72a4,4,0,0,1-2.33,1.39,2.79,2.79,0,0,1,.27.4l2.6,3.6h-4.36c-.47-.88-1.21-2.11-2.22-3.71h-2.35v3.71h-3.78c.09-2.07.13-4,.13-5.81s0-3.74-.13-5.81h3.78v0h3.28c2.15,0,3.66.35,4.51,1a3.44,3.44,0,0,1,1.28,2.81A4,4,0,0,1,207.48,221.72Zm-8.39-3.14v1.82h2.16a20.38,20.38,0,0,0,2.05-.08,2.4,2.4,0,0,0,1-.28.65.65,0,0,0,.27-.56.64.64,0,0,0-.25-.55,2,2,0,0,0-1-.27c-.47,0-1.17-.08-2.08-.08Z"/><path class="cls-4" d="M222.48,218.85c-1.68,0-3.3-.08-4.88-.09v8.35h-4v-8.35q-2.39,0-4.86.09v-3.36h13.74Z"/></g></g></g></g></svg>