<svg xmlns="http://www.w3.org/2000/svg" viewBox="0 0 528.76 137.94"><g data-name="Layer 2"><path d="M131.55 30.57c-4.68-4.78-23-19-32.46-23.65A66.93 66.93 0 0 0 69.8 0a66.92 66.92 0 0 0-29.28 6.92c-9.41 4.61-27.77 18.87-32.46 23.65A29.13 29.13 0 0 0 0 50.85v36.24a29.13 29.13 0 0 0 8.06 20.28c4.68 4.78 23 19 32.46 23.65a67 67 0 0 0 29.28 6.92A66.93 66.93 0 0 0 99.09 131c9.42-4.61 27.78-18.87 32.46-23.65a29.16 29.16 0 0 0 8.06-20.28V50.85a29.14 29.14 0 0 0-8.06-20.28zM15.91 38.26C20.08 34 37.3 20.73 45.35 16.78A56 56 0 0 1 69.8 11a56 56 0 0 1 24.46 5.8c8 3.95 25.27 17.22 29.44 21.48a18.05 18.05 0 0 1 4.93 12.59v6.32a18 18 0 0 1-6.83 14.1c-19.62 15.53-33.74 26.03-38.5 28.55A28.88 28.88 0 0 1 69.82 103a31.09 31.09 0 0 1-13.64-3.23c-4.55-2.24-19.37-13.65-21.23-15.42a.48.48 0 0 1-.15-.35.46.46 0 0 1 .2-.37l10.23-7.74 11.62 8.79a21.53 21.53 0 0 0 25.9 0L103.49 69l7.51-5.7a11.92 11.92 0 0 0 4.1-5.34 11.51 11.51 0 0 0-2.75-12.23c-2-1.91-18-14.43-24-17.41A42.15 42.15 0 0 0 69.8 24a40 40 0 0 0-18.64 4.42C44.29 32 25.62 46.46 11 58.06v-7.21a18 18 0 0 1 4.91-12.59zM54.34 69l9.14-6.92a10.54 10.54 0 0 1 12.65 0L85.27 69l-9.14 6.91a10.49 10.49 0 0 1-12.65 0zm69.36 30.68c-4.17 4.26-21.39 17.53-29.44 21.48A56 56 0 0 1 69.8 127a56 56 0 0 1-24.45-5.8c-8.05-4-25.27-17.22-29.44-21.48A18 18 0 0 1 11 87.09v-6.32a18 18 0 0 1 6.83-14.1c19.61-15.55 33.73-26 38.5-28.57 7.54-4 18.28-4.28 27.14.08 4.53 2.24 19.35 13.65 21.21 15.42a.47.47 0 0 1 .13.38.44.44 0 0 1-.19.36l-10.24 7.74-11.63-8.79a21.48 21.48 0 0 0-25.9 0L36.12 69l-7.49 5.66a11.94 11.94 0 0 0-4.1 5.34 11.5 11.5 0 0 0 2.74 12.24c2 1.91 18 14.43 24 17.41A42.1 42.1 0 0 0 69.79 114a40 40 0 0 0 18.63-4.42c6.86-3.64 25.54-18.07 40.18-29.67v7.21a18.05 18.05 0 0 1-4.9 12.56zM211 42.67c-17.34 0-26.11 12-26.11 26.3s8.77 26.3 26.11 26.3 26.11-12 26.11-26.3-8.82-26.3-26.11-26.3zm0 42.39c-10 0-15-7.89-15-16.09s5-16.1 15-16.1 15 7.9 15 16.1-5.08 16.09-15 16.09zm236.12-42.39c-17.34 0-26.11 12-26.11 26.3s8.77 26.3 26.11 26.3 26.1-12 26.1-26.3-8.77-26.3-26.1-26.3zm0 42.39c-10 0-15-7.89-15-16.09s5-16.1 15-16.1 15 7.9 15 16.1-5.03 16.09-15 16.09zm-171.44 0A16.35 16.35 0 0 1 259 69c0-8.2 5-16.1 15-16.1a16.21 16.21 0 0 1 14 7.3l1.06-.79V46.78a33.51 33.51 0 0 0-15-4.11c-17.34 0-26.11 12-26.11 26.3s10.44 26.3 27.78 26.3a32.41 32.41 0 0 0 15.23-4v-13l-1-.77a17.68 17.68 0 0 1-14.28 7.56zm112.83-42.38c-8 0-14 .5-19.79.5H367s.17 6.36.17 25.79-.17 25.79-.17 25.79h11.09s-.08-3.06-.13-11.42a69.83 69.83 0 0 0 8 .42c15 0 24.25-7 24.25-20.84.08-11.31-7.56-20.24-21.7-20.24zm-2.09 31.2a82 82 0 0 1-8.45-.47v-20.2a30.39 30.39 0 0 1 7.18-.79c11.33 0 14.34 4.1 14.34 10.75.04 5.53-3.49 10.71-13.07 10.71zM507 42.68c-8 0-14 .5-19.79.5h-1.68s.17 6.36.17 25.79-.17 25.79-.17 25.79h11.07s-.08-3.06-.13-11.42a69.83 69.83 0 0 0 8 .42c15 0 24.25-7 24.25-20.84.04-11.31-7.6-20.24-21.72-20.24zm-2.09 31.2a82 82 0 0 1-8.45-.47v-20.2a30.39 30.39 0 0 1 7.18-.79C515 52.39 518 56.49 518 63.14c0 5.56-3.58 10.74-13.11 10.74zm-153.54-30.7h-11.09s.17 6.36.17 25.79c0 10.36-3.85 16.09-12.43 16.09S315.6 79.33 315.6 69c0-19.43.17-25.79.17-25.79h-11.09s.08 6.36.08 25.79c0 14.25 5.93 26.3 23.26 26.3s23.27-12 23.27-26.3c0-19.46.08-25.82.08-25.82z" fill="#353535" data-name="Layer 1"/></g></svg>