<?xml version="1.0" encoding="utf-8"?>
<!-- Generator: Adobe Illustrator 24.0.0, SVG Export Plug-In . SVG Version: 6.00 Build 0)  -->
<svg version="1.1" id="Layer_1" xmlns="http://www.w3.org/2000/svg" xmlns:xlink="http://www.w3.org/1999/xlink" x="0px" y="0px"
	 viewBox="0 0 343.9 52.6" style="enable-background:new 0 0 343.9 52.6;" xml:space="preserve">
<style type="text/css">
	.st0{fill:#353535;}
</style>
<g>
	<path class="st0" d="M26.1,0C8.8,0,0,12.1,0,26.3s8.8,26.3,26.1,26.3s26.1-12,26.1-26.3S43.4,0,26.1,0z M26.1,42.4
		c-10,0-15-7.9-15-16.1s5-16.1,15-16.1s15,7.9,15,16.1S36.1,42.4,26.1,42.4z M262.3,0c-17.3,0-26.1,12-26.1,26.3s8.8,26.3,26.1,26.3
		s26.1-12,26.1-26.3S279.6,0,262.3,0z M262.3,42.4c-10,0-15-7.9-15-16.1s5.1-16.1,15-16.1c10,0,15,7.9,15,16.1
		S272.3,42.4,262.3,42.4z M90.8,42.4c-9,0.2-16.5-7-16.7-16c0,0,0,0,0-0.1c0-8.2,5-16.1,15-16.1c5.6-0.2,10.9,2.6,14,7.3l1.1-0.8
		V4.1c-4.6-2.5-9.7-3.9-15-4.1C71.9,0,63.1,12,63.1,26.3s10.4,26.3,27.8,26.3c5.3-0.1,10.6-1.4,15.2-4V35.7l-1-0.8
		C101.8,39.5,96.5,42.3,90.8,42.4L90.8,42.4z M203.7,0c-8,0-14,0.5-19.8,0.5h-1.7c0,0,0.2,6.4,0.2,25.8s-0.2,25.8-0.2,25.8h11.1
		c0,0-0.1-3.1-0.1-11.4c2.7,0.3,5.3,0.4,8,0.4c15,0,24.2-7,24.2-20.8C225.4,8.9,217.8,0,203.7,0L203.7,0z M201.6,31.2
		c-2.8,0-5.6-0.2-8.4-0.5V10.5c2.4-0.5,4.8-0.8,7.2-0.8c11.3,0,14.3,4.1,14.3,10.8C214.7,26,211.1,31.2,201.6,31.2L201.6,31.2z
		 M322.1,0c-8,0-14,0.5-19.8,0.5h-1.7c0,0,0.2,6.4,0.2,25.8s-0.2,25.8-0.2,25.8h11.1c0,0-0.1-3.1-0.1-11.4c2.7,0.3,5.3,0.4,8,0.4
		c15,0,24.2-7,24.2-20.8C343.9,8.9,336.3,0,322.1,0L322.1,0z M320.1,31.2c-2.8,0-5.6-0.2-8.5-0.5v-4.4c0-6.8,0-11.9,0-15.8
		c2.4-0.5,4.8-0.8,7.2-0.8c11.3,0,14.3,4.1,14.3,10.8C333.2,26,329.6,31.2,320.1,31.2L320.1,31.2z M166.5,0.5h-11.1
		c0,0,0.2,6.4,0.2,25.8c0,10.4-3.8,16.1-12.4,16.1s-12.4-5.7-12.4-16.1c0-19.4,0.2-25.8,0.2-25.8h-11.1c0,0,0.1,6.4,0.1,25.8
		c0,14.2,5.9,26.3,23.3,26.3s23.3-12,23.3-26.3C166.4,6.9,166.5,0.5,166.5,0.5z"/>
</g>
</svg>
