<svg xmlns="http://www.w3.org/2000/svg" viewBox="0 0 360.97 360.97"><defs><style>.cls-1{fill:none;}.cls-2{isolation:isolate;}.cls-3{fill:#fff;}.cls-4{fill:#1f1c1f;}</style></defs><g id="Layer_2" data-name="Layer 2"><g id="Layer_1-2" data-name="Layer 1"><rect class="cls-1" width="360.97" height="360.97"/><g id="Separated_they_live" data-name="Separated they live" class="cls-2"><g class="cls-2"><path class="cls-3" d="M26.07,67.67V53.46h3.44A5.76,5.76,0,0,1,32,54a5.48,5.48,0,0,1,1.82,1.39,5.92,5.92,0,0,1,1.13,2,7.93,7.93,0,0,1,.41,2.46v1.4a7.93,7.93,0,0,1-.41,2.46,5.92,5.92,0,0,1-1.13,2A5.33,5.33,0,0,1,32,67.14a5.76,5.76,0,0,1-2.44.53Zm1.18-13.22V66.69h2.26a4.45,4.45,0,0,0,2-.47A4.21,4.21,0,0,0,33,65a5.26,5.26,0,0,0,.87-1.72,6.79,6.79,0,0,0,.31-2V59.84a6.82,6.82,0,0,0-.31-2A5.31,5.31,0,0,0,33,56.11a4.3,4.3,0,0,0-1.44-1.19,4.45,4.45,0,0,0-2-.47Z"/><path class="cls-3" d="M37.63,62.23a6.32,6.32,0,0,1,.33-2,5.11,5.11,0,0,1,.92-1.69,4.44,4.44,0,0,1,1.48-1.16,4.77,4.77,0,0,1,4,0A4.34,4.34,0,0,1,45.8,58.5a5.14,5.14,0,0,1,.93,1.69,6.6,6.6,0,0,1,.33,2v.33a6.32,6.32,0,0,1-.33,2,4.94,4.94,0,0,1-.92,1.69,4.25,4.25,0,0,1-1.47,1.15,4.8,4.8,0,0,1-4,0,4.2,4.2,0,0,1-1.48-1.15A5,5,0,0,1,38,64.6a6.32,6.32,0,0,1-.33-2Zm1.17.33A5.82,5.82,0,0,0,39,64.18a4.47,4.47,0,0,0,.69,1.38,3.42,3.42,0,0,0,1.11,1,3.39,3.39,0,0,0,3,0,3.42,3.42,0,0,0,1.11-1,4.68,4.68,0,0,0,.68-1.38,5.82,5.82,0,0,0,.23-1.62v-.33a5.8,5.8,0,0,0-.23-1.61A4.47,4.47,0,0,0,45,59.24a3.57,3.57,0,0,0-1.11-1,3.14,3.14,0,0,0-1.53-.36,3.09,3.09,0,0,0-1.51.36,3.57,3.57,0,0,0-1.11,1A4.68,4.68,0,0,0,39,60.62a5.8,5.8,0,0,0-.23,1.61Z"/><path class="cls-3" d="M66.21,65.53l.22.57,3.81-9h1.33L66.11,69.36a7.07,7.07,0,0,1-.5.94,4.28,4.28,0,0,1-.7.83,3.22,3.22,0,0,1-.92.59,3,3,0,0,1-1.2.22,3.25,3.25,0,0,1-.51,0l-.48-.09.13-1,.42,0,.41,0a1.83,1.83,0,0,0,.82-.18,2.57,2.57,0,0,0,.66-.45,3.06,3.06,0,0,0,.51-.63,4.55,4.55,0,0,0,.37-.68l.72-1.56L61.09,57.11h1.32Z"/><path class="cls-3" d="M73.63,62.23a6.61,6.61,0,0,1,.34-2,5.11,5.11,0,0,1,.92-1.69,4.4,4.4,0,0,1,1.47-1.16,4.52,4.52,0,0,1,5.45,1.16,5.32,5.32,0,0,1,.93,1.69,6.91,6.91,0,0,1,.33,2v.33a6.91,6.91,0,0,1-.33,2,5.11,5.11,0,0,1-.92,1.69,4.4,4.4,0,0,1-3.46,1.58,4.44,4.44,0,0,1-2-.43,4.39,4.39,0,0,1-1.48-1.15A5.11,5.11,0,0,1,74,64.6a6.61,6.61,0,0,1-.34-2Zm1.18.33A5.47,5.47,0,0,0,75,64.18a4.45,4.45,0,0,0,.68,1.38,3.42,3.42,0,0,0,1.11,1,3.41,3.41,0,0,0,3,0,3.28,3.28,0,0,0,1.1-1,4.45,4.45,0,0,0,.68-1.38,5.48,5.48,0,0,0,.24-1.62v-.33a5.46,5.46,0,0,0-.24-1.61A4.45,4.45,0,0,0,81,59.24a3.5,3.5,0,0,0-1.12-1,3.39,3.39,0,0,0-3,0,3.53,3.53,0,0,0-1.1,1A4.45,4.45,0,0,0,75,60.62a5.45,5.45,0,0,0-.23,1.61Z"/><path class="cls-3" d="M93.33,66a3.7,3.7,0,0,1-1.39,1.36,4.46,4.46,0,0,1-3.59.21,3,3,0,0,1-1.13-.83,3.86,3.86,0,0,1-.69-1.34,6.25,6.25,0,0,1-.24-1.81v-6.5h1.16v6.52A4,4,0,0,0,88.1,66a2.25,2.25,0,0,0,1.93.82,3.54,3.54,0,0,0,2.14-.6,3.11,3.11,0,0,0,1.14-1.64V57.11h1.18V67.67H93.39Z"/><path class="cls-3" d="M111.52,64.25l.32,1.87.39-1.87L114,57.11h.82l1.79,7.14.39,1.92.34-1.92,1.45-7.14h1.08l-2.34,10.56h-1l-1.86-7.22-.32-1.69-.31,1.69-1.84,7.22h-1L109,57.11h1.08Z"/><path class="cls-3" d="M129.51,67.67a4.39,4.39,0,0,1-.16-.71,7.4,7.4,0,0,1-.08-.81,4.1,4.1,0,0,1-.7.68,5.22,5.22,0,0,1-.88.55,5.11,5.11,0,0,1-1,.36,4.69,4.69,0,0,1-1.14.13,4.08,4.08,0,0,1-1.38-.22,3.44,3.44,0,0,1-1.12-.6,2.84,2.84,0,0,1-.74-.94,2.79,2.79,0,0,1-.27-1.24,2.89,2.89,0,0,1,.4-1.54,3.08,3.08,0,0,1,1.09-1,4.93,4.93,0,0,1,1.58-.58,8.88,8.88,0,0,1,1.88-.19h2.29v-1.2a2.46,2.46,0,0,0-.24-1,2.16,2.16,0,0,0-.61-.76,2.44,2.44,0,0,0-.91-.46,3.92,3.92,0,0,0-1.16-.16,3.81,3.81,0,0,0-1.08.15,2.72,2.72,0,0,0-.91.42,2.23,2.23,0,0,0-.64.66,1.85,1.85,0,0,0-.26.9h-1.17a2.66,2.66,0,0,1,.35-1.24,3.19,3.19,0,0,1,.89-1,4.12,4.12,0,0,1,1.29-.65,5.08,5.08,0,0,1,1.58-.24,5.32,5.32,0,0,1,1.57.22,3.67,3.67,0,0,1,1.28.64,3,3,0,0,1,.86,1.08,3.38,3.38,0,0,1,.33,1.5v5.12a6.41,6.41,0,0,0,.09,1.06c.07.36.14.7.23,1v.11Zm-3.85-.84a4.08,4.08,0,0,0,1.17-.14,4.15,4.15,0,0,0,1-.44,3.55,3.55,0,0,0,.83-.66,3.17,3.17,0,0,0,.57-.85V62.43h-2.13a8.87,8.87,0,0,0-1.48.12,4.44,4.44,0,0,0-1.26.38,2.33,2.33,0,0,0-.88.72,2,2,0,0,0-.13,2,2,2,0,0,0,.53.65,2.23,2.23,0,0,0,.78.41A3,3,0,0,0,125.66,66.83Z"/><path class="cls-3" d="M135.32,57.11l.09,2a4.43,4.43,0,0,1,1.49-1.58,3.93,3.93,0,0,1,2.1-.6,3.37,3.37,0,0,1,2.66,1,4.41,4.41,0,0,1,.93,3v6.76h-1.17V60.93a3.44,3.44,0,0,0-.67-2.24,2.48,2.48,0,0,0-2-.76,3.22,3.22,0,0,0-1.08.18,4.07,4.07,0,0,0-.94.51,4.15,4.15,0,0,0-.75.76,5,5,0,0,0-.53,1v7.33h-1.17V57.11Z"/><path class="cls-3" d="M150.15,54.4v2.71h3.91v1h-3.91v6.66a2.51,2.51,0,0,0,.19,1,1.7,1.7,0,0,0,.49.65,1.75,1.75,0,0,0,.72.36,3.71,3.71,0,0,0,.9.1,8.51,8.51,0,0,0,1-.06l.88-.14.17.89a4.75,4.75,0,0,1-1,.25,10.16,10.16,0,0,1-1.23.08,4.87,4.87,0,0,1-1.3-.17,2.88,2.88,0,0,1-1-.55,2.59,2.59,0,0,1-.69-1,3.83,3.83,0,0,1-.26-1.47V58.06H146v-1H149V54.4Z"/><path class="cls-3" d="M174.15,54.4v2.71h3.92v1h-3.92v6.66a2.69,2.69,0,0,0,.19,1,1.7,1.7,0,0,0,.49.65,1.81,1.81,0,0,0,.72.36,3.73,3.73,0,0,0,.91.1,8.78,8.78,0,0,0,1-.06l.87-.14.18.89a4.71,4.71,0,0,1-1,.25,9.9,9.9,0,0,1-1.23.08,4.87,4.87,0,0,1-1.3-.17,2.84,2.84,0,0,1-1-.55,2.5,2.5,0,0,1-.7-1,4,4,0,0,1-.26-1.47V58.06H170v-1H173V54.4Z"/><path class="cls-3" d="M181.65,62.23a6.91,6.91,0,0,1,.33-2,5.32,5.32,0,0,1,.93-1.69,4.4,4.4,0,0,1,1.47-1.16,4.5,4.5,0,0,1,2-.43,4.58,4.58,0,0,1,2,.43,4.4,4.4,0,0,1,1.47,1.16,5,5,0,0,1,.93,1.69,6.32,6.32,0,0,1,.33,2v.33a6.6,6.6,0,0,1-.32,2,5,5,0,0,1-.93,1.69,4.25,4.25,0,0,1-1.47,1.15,4.54,4.54,0,0,1-5.45-1.15A5.32,5.32,0,0,1,182,64.6a6.91,6.91,0,0,1-.33-2Zm1.17.33a5.48,5.48,0,0,0,.24,1.62,4.24,4.24,0,0,0,.68,1.38,3.42,3.42,0,0,0,1.11,1,3.41,3.41,0,0,0,3.05,0,3.38,3.38,0,0,0,1.1-1,4.45,4.45,0,0,0,.68-1.38,5.82,5.82,0,0,0,.23-1.62v-.33a5.8,5.8,0,0,0-.23-1.61,4.47,4.47,0,0,0-.69-1.38,3.46,3.46,0,0,0-1.11-1,3.39,3.39,0,0,0-3,0,3.43,3.43,0,0,0-1.1,1,4.24,4.24,0,0,0-.68,1.38,5.46,5.46,0,0,0-.24,1.61Z"/><path class="cls-3" d="M213.63,65a1.49,1.49,0,0,0-.24-.85,2.11,2.11,0,0,0-.67-.62,4.67,4.67,0,0,0-1-.44c-.37-.11-.77-.21-1.18-.3s-1-.23-1.48-.37a5.69,5.69,0,0,1-1.27-.57,2.84,2.84,0,0,1-.89-.83,2.16,2.16,0,0,1-.33-1.22,2.31,2.31,0,0,1,.34-1.22,3.12,3.12,0,0,1,.9-.91,4.58,4.58,0,0,1,1.27-.56,6,6,0,0,1,1.47-.19,5.84,5.84,0,0,1,1.6.21,4.07,4.07,0,0,1,1.31.62,3,3,0,0,1,.9,1,2.93,2.93,0,0,1,.36,1.34h-1.17a1.91,1.91,0,0,0-.28-.92,2.14,2.14,0,0,0-.67-.67,3,3,0,0,0-1-.42,4.06,4.06,0,0,0-1.1-.15,5,5,0,0,0-1,.11,3.3,3.3,0,0,0-.9.34,2,2,0,0,0-.64.58,1.38,1.38,0,0,0-.24.81,1.41,1.41,0,0,0,.23.84,2.14,2.14,0,0,0,.65.57,4.56,4.56,0,0,0,1,.38c.36.1.76.19,1.17.27a15.44,15.44,0,0,1,1.53.41,5.41,5.41,0,0,1,1.28.6,2.62,2.62,0,0,1,.88.87,2.49,2.49,0,0,1,0,2.53,3,3,0,0,1-.94.92,4.29,4.29,0,0,1-1.33.55,6.47,6.47,0,0,1-1.53.18,6.09,6.09,0,0,1-1.68-.22,4.4,4.4,0,0,1-1.39-.62,3.23,3.23,0,0,1-1-1,2.68,2.68,0,0,1-.39-1.32h1.17a2,2,0,0,0,.38,1,2.4,2.4,0,0,0,.78.67,3.46,3.46,0,0,0,1,.35,5.71,5.71,0,0,0,1.08.1,4.77,4.77,0,0,0,1.06-.11,3.4,3.4,0,0,0,1-.34,2,2,0,0,0,.7-.59A1.41,1.41,0,0,0,213.63,65Z"/><path class="cls-3" d="M218.54,57.11h4.9v9.53H227v1h-8.49v-1h3.73V58.15h-3.73Zm3.38-2.89a1,1,0,0,1,.21-.63,1,1,0,0,1,1.36,0,1,1,0,0,1,.21.63.93.93,0,0,1-.21.6,1,1,0,0,1-1.36,0A.93.93,0,0,1,221.92,54.22Z"/><path class="cls-3" d="M229.93,62.29a7.88,7.88,0,0,1,.26-2,5.29,5.29,0,0,1,.77-1.72,3.92,3.92,0,0,1,1.31-1.19,4,4,0,0,1,3.68,0,3.84,3.84,0,0,1,1.35,1.22l0-1.46h1.1V67.49a5.63,5.63,0,0,1-.3,1.78,4,4,0,0,1-.85,1.39,3.73,3.73,0,0,1-1.33.9,4.49,4.49,0,0,1-1.76.32,4.87,4.87,0,0,1-1-.1,5.27,5.27,0,0,1-1-.34,4.76,4.76,0,0,1-.94-.56,3.66,3.66,0,0,1-.77-.8l.65-.71a3.74,3.74,0,0,0,3,1.53,3.34,3.34,0,0,0,1.34-.25,2.56,2.56,0,0,0,1-.69,3.07,3.07,0,0,0,.61-1.06,4.51,4.51,0,0,0,.22-1.36v-1.2a3.73,3.73,0,0,1-1.37,1.13,3.89,3.89,0,0,1-1.79.4,3.66,3.66,0,0,1-1.84-.45,4.07,4.07,0,0,1-1.3-1.21,5.25,5.25,0,0,1-.78-1.71,7.89,7.89,0,0,1-.26-2Zm1.17.21a6.94,6.94,0,0,0,.18,1.57,4.23,4.23,0,0,0,.55,1.4,2.87,2.87,0,0,0,1,1,2.78,2.78,0,0,0,1.51.38,3.19,3.19,0,0,0,.94-.13,3.28,3.28,0,0,0,.83-.37,3.42,3.42,0,0,0,.67-.59,3.35,3.35,0,0,0,.5-.78V60a4.12,4.12,0,0,0-.48-.81,3.08,3.08,0,0,0-.66-.64,2.89,2.89,0,0,0-.82-.42,3,3,0,0,0-1-.15,2.88,2.88,0,0,0-1.52.38,3.21,3.21,0,0,0-1,1,4.23,4.23,0,0,0-.55,1.4,7,7,0,0,0-.18,1.57Z"/><path class="cls-3" d="M243.34,57.11l.09,2a4.4,4.4,0,0,1,1.48-1.58,4,4,0,0,1,2.11-.6,3.37,3.37,0,0,1,2.66,1,4.41,4.41,0,0,1,.93,3v6.76h-1.18V60.93a3.38,3.38,0,0,0-.66-2.24,2.49,2.49,0,0,0-2-.76,3.22,3.22,0,0,0-1.08.18,4.07,4.07,0,0,0-.94.51,4.15,4.15,0,0,0-.75.76,4.1,4.1,0,0,0-.53,1v7.33h-1.17V57.11Z"/><path class="cls-3" d="M273.36,66A3.77,3.77,0,0,1,272,67.38a4.07,4.07,0,0,1-2.05.49,4.16,4.16,0,0,1-1.55-.28,3,3,0,0,1-1.12-.83,3.86,3.86,0,0,1-.69-1.34,6.25,6.25,0,0,1-.24-1.81v-6.5h1.16v6.52a4,4,0,0,0,.65,2.41,2.25,2.25,0,0,0,1.93.82,3.54,3.54,0,0,0,2.14-.6,3.17,3.17,0,0,0,1.14-1.64V57.11h1.18V67.67h-1.09Z"/><path class="cls-3" d="M286.82,62.5a8.36,8.36,0,0,1-.25,2,5.43,5.43,0,0,1-.76,1.71,4.17,4.17,0,0,1-1.3,1.21,3.65,3.65,0,0,1-1.85.45,4.31,4.31,0,0,1-1.81-.38,3.71,3.71,0,0,1-1.38-1.1v5.35H278.3V57.11h1.1l0,1.44a4.05,4.05,0,0,1,1.37-1.21,3.92,3.92,0,0,1,1.83-.43,3.69,3.69,0,0,1,3.17,1.64,5.49,5.49,0,0,1,.76,1.72,8.34,8.34,0,0,1,.25,2Zm-1.17-.21a7,7,0,0,0-.18-1.57,4.48,4.48,0,0,0-.57-1.4,3.14,3.14,0,0,0-1-1,2.88,2.88,0,0,0-1.52-.38,3.31,3.31,0,0,0-.95.14,3.06,3.06,0,0,0-.81.4,3.17,3.17,0,0,0-.65.62,3.67,3.67,0,0,0-.49.78v5.24a3.21,3.21,0,0,0,2.92,1.77,2.76,2.76,0,0,0,1.51-.39,3,3,0,0,0,1-1,4.47,4.47,0,0,0,.56-1.4,7.09,7.09,0,0,0,.18-1.58Z"/><path class="cls-3" d="M310.43,58.06h-4.21l0,9.61H305V58.06h-2.88v-1h2.89v-.84a4.7,4.7,0,0,1,.34-1.83,3.2,3.2,0,0,1,.89-1.2,3.5,3.5,0,0,1,1.3-.67,6.32,6.32,0,0,1,1.6-.2,7.64,7.64,0,0,1,1.08.07,10.73,10.73,0,0,1,1.08.2l-.15,1a7,7,0,0,0-.89-.17,6.36,6.36,0,0,0-1-.07,5,5,0,0,0-1.19.13,2.51,2.51,0,0,0-1,.47,2.2,2.2,0,0,0-.66.88,3.53,3.53,0,0,0-.26,1.4v.84h4.21Z"/><path class="cls-3" d="M313.68,62.23a6.91,6.91,0,0,1,.33-2,5.32,5.32,0,0,1,.93-1.69,4.4,4.4,0,0,1,1.47-1.16,4.5,4.5,0,0,1,2-.43,4.37,4.37,0,0,1,3.47,1.59,5.11,5.11,0,0,1,.92,1.69,6.61,6.61,0,0,1,.34,2v.33a6.91,6.91,0,0,1-.33,2,5.11,5.11,0,0,1-.92,1.69,4.54,4.54,0,0,1-6.93,0A5.32,5.32,0,0,1,314,64.6a6.91,6.91,0,0,1-.33-2Zm1.17.33a5.48,5.48,0,0,0,.24,1.62,4.24,4.24,0,0,0,.68,1.38,3.42,3.42,0,0,0,1.11,1,3.41,3.41,0,0,0,3.05,0,3.28,3.28,0,0,0,1.1-1,4.45,4.45,0,0,0,.68-1.38,5.47,5.47,0,0,0,.23-1.62v-.33a5.45,5.45,0,0,0-.23-1.61,4.45,4.45,0,0,0-.68-1.38,3.5,3.5,0,0,0-1.12-1,3.39,3.39,0,0,0-3,0,3.43,3.43,0,0,0-1.1,1,4.24,4.24,0,0,0-.68,1.38,5.46,5.46,0,0,0-.24,1.61Z"/><path class="cls-3" d="M333.28,56.91a6.51,6.51,0,0,1,.88.06,3.11,3.11,0,0,1,.73.15l-.14,1.12c-.28-.06-.55-.1-.82-.14a7.87,7.87,0,0,0-.84,0,4.37,4.37,0,0,0-2.52.7,3.76,3.76,0,0,0-1.46,2.16v6.75h-1.21V57.11H329l.08,1.83v.22a4.66,4.66,0,0,1,1.71-1.65A4.93,4.93,0,0,1,333.28,56.91Z"/></g><g class="cls-2"><path class="cls-3" d="M49.89,92.29a7.88,7.88,0,0,1,.26-2,5.54,5.54,0,0,1,.79-1.72,3.83,3.83,0,0,1,1.31-1.19,3.65,3.65,0,0,1,1.85-.45,3.8,3.8,0,0,1,1.8.43,3.91,3.91,0,0,1,1.33,1.2V82.67h1.16v15H57.3l0-1.37a3.64,3.64,0,0,1-1.37,1.16,4,4,0,0,1-1.8.41,3.6,3.6,0,0,1-1.83-.45,4.1,4.1,0,0,1-1.31-1.21,5.48,5.48,0,0,1-.79-1.71,7.89,7.89,0,0,1-.26-2Zm1.18.21a7.55,7.55,0,0,0,.17,1.57,4.7,4.7,0,0,0,.55,1.4,3,3,0,0,0,1,1,2.74,2.74,0,0,0,1.5.38,3.64,3.64,0,0,0,1-.12,3.38,3.38,0,0,0,.82-.37,3.07,3.07,0,0,0,.67-.58,3,3,0,0,0,.5-.75V89.91a3.77,3.77,0,0,0-.48-.8,3.08,3.08,0,0,0-1.48-1,3.32,3.32,0,0,0-1-.14,2.84,2.84,0,0,0-1.51.38,3.21,3.21,0,0,0-1,1,4.47,4.47,0,0,0-.56,1.4,7.62,7.62,0,0,0-.17,1.57Z"/><path class="cls-3" d="M69.51,97.67a4.35,4.35,0,0,1-.17-.71c0-.27-.06-.54-.08-.81a3.77,3.77,0,0,1-.7.68,4.71,4.71,0,0,1-1.89.91,4.83,4.83,0,0,1-1.15.13,4.16,4.16,0,0,1-1.38-.22,3.39,3.39,0,0,1-1.11-.6,2.71,2.71,0,0,1-.74-.94,3.08,3.08,0,0,1,.13-2.78,3.14,3.14,0,0,1,1.08-1,5.12,5.12,0,0,1,1.58-.58A8.91,8.91,0,0,1,67,91.53h2.28v-1.2a2.32,2.32,0,0,0-.23-1,2.16,2.16,0,0,0-.61-.76,2.49,2.49,0,0,0-.92-.46,3.87,3.87,0,0,0-1.16-.16,3.79,3.79,0,0,0-1.07.15,2.63,2.63,0,0,0-.91.42,2.12,2.12,0,0,0-.64.66,1.86,1.86,0,0,0-.27.9H62.27a2.67,2.67,0,0,1,.36-1.24,3.16,3.16,0,0,1,.88-1,4.07,4.07,0,0,1,1.3-.65,5,5,0,0,1,1.57-.24,5.39,5.39,0,0,1,1.58.22,3.75,3.75,0,0,1,1.28.64,3.14,3.14,0,0,1,.86,1.08,3.52,3.52,0,0,1,.33,1.5v5.12a6.41,6.41,0,0,0,.09,1.06,10.37,10.37,0,0,0,.23,1v.11Zm-3.86-.84a4.19,4.19,0,0,0,1.18-.14,4.32,4.32,0,0,0,1-.44,3.55,3.55,0,0,0,.83-.66,2.92,2.92,0,0,0,.56-.85V92.43H67.13a9,9,0,0,0-1.49.12,4.65,4.65,0,0,0-1.26.38,2.37,2.37,0,0,0-.87.72,1.84,1.84,0,0,0-.33,1.12,1.73,1.73,0,0,0,.2.86,1.94,1.94,0,0,0,.52.65,2.23,2.23,0,0,0,.78.41A3.08,3.08,0,0,0,65.65,96.83Z"/><path class="cls-3" d="M74.52,87.11h4.9v9.53H83v1H74.52v-1h3.73V88.15H74.52Zm3.39-2.89a1,1,0,0,1,.2-.63.85.85,0,0,1,.69-.26.82.82,0,0,1,.67.26,1,1,0,0,1,.21.63.93.93,0,0,1-.21.6.82.82,0,0,1-.67.26.85.85,0,0,1-.69-.26A.92.92,0,0,1,77.91,84.22Z"/><path class="cls-3" d="M86.52,82.67h4.92v14H95v1h-8.5v-1h3.75V83.72H86.52Z"/><path class="cls-3" d="M102.22,95.53l.22.57,3.82-9h1.32l-5.45,12.25a8.54,8.54,0,0,1-.51.94,4.28,4.28,0,0,1-.7.83,3.22,3.22,0,0,1-.92.59,3,3,0,0,1-1.2.22,3.25,3.25,0,0,1-.51,0l-.48-.09.14-1,.41,0,.42,0a1.89,1.89,0,0,0,.82-.18,3,3,0,0,0,.66-.45,3.38,3.38,0,0,0,.5-.63,4.55,4.55,0,0,0,.37-.68l.72-1.56L97.11,87.11h1.31Z"/><path class="cls-3" d="M129.63,95a1.49,1.49,0,0,0-.25-.85,2,2,0,0,0-.67-.62,4.67,4.67,0,0,0-1-.44c-.37-.11-.76-.21-1.18-.3s-1-.23-1.48-.37a5.9,5.9,0,0,1-1.27-.57,2.7,2.7,0,0,1-.88-.83,2.16,2.16,0,0,1-.34-1.22,2.23,2.23,0,0,1,.35-1.22,3,3,0,0,1,.89-.91,4.71,4.71,0,0,1,1.27-.56,6,6,0,0,1,1.47-.19,6,6,0,0,1,1.61.21,4.12,4.12,0,0,1,1.3.62,3,3,0,0,1,.9,1,2.93,2.93,0,0,1,.36,1.34h-1.17a1.91,1.91,0,0,0-.28-.92,2.14,2.14,0,0,0-.67-.67,3,3,0,0,0-1-.42,4.06,4.06,0,0,0-1.1-.15,5,5,0,0,0-1,.11,3.3,3.3,0,0,0-.9.34,2.07,2.07,0,0,0-.63.58,1.38,1.38,0,0,0-.24.81,1.34,1.34,0,0,0,.23.84,2.09,2.09,0,0,0,.64.57,4.56,4.56,0,0,0,1,.38c.36.1.76.19,1.17.27a15.44,15.44,0,0,1,1.53.41,5.49,5.49,0,0,1,1.29.6,2.81,2.81,0,0,1,.88.87,2.33,2.33,0,0,1,.32,1.24,2.27,2.27,0,0,1-.36,1.29,3,3,0,0,1-.94.92,4.23,4.23,0,0,1-1.32.55,6.62,6.62,0,0,1-1.54.18,6.09,6.09,0,0,1-1.68-.22,4.34,4.34,0,0,1-1.38-.62,3.27,3.27,0,0,1-1-1,2.68,2.68,0,0,1-.39-1.32h1.17a2,2,0,0,0,.38,1,2.4,2.4,0,0,0,.78.67,3.46,3.46,0,0,0,1,.35,5.79,5.79,0,0,0,1.08.1,4.86,4.86,0,0,0,1.07-.11,3.45,3.45,0,0,0,1-.34,2,2,0,0,0,.7-.59A1.42,1.42,0,0,0,129.63,95Z"/><path class="cls-3" d="M134.53,82.67h4.92v14H143v1h-8.49v-1h3.75V83.72h-3.75Z"/><path class="cls-3" d="M150.77,97.87a4.85,4.85,0,0,1-2-.41,4.76,4.76,0,0,1-1.56-1.11,5.12,5.12,0,0,1-1-1.65,5.6,5.6,0,0,1-.36-2v-.42a6.12,6.12,0,0,1,.37-2.11,5.56,5.56,0,0,1,1-1.69,4.5,4.5,0,0,1,1.5-1.14,4.14,4.14,0,0,1,1.84-.42,4.4,4.4,0,0,1,1.87.38,4,4,0,0,1,1.36,1,4.6,4.6,0,0,1,.84,1.54,6.45,6.45,0,0,1,.3,1.89v.71H147v.22a4.66,4.66,0,0,0,.28,1.59,4.07,4.07,0,0,0,.77,1.33,3.77,3.77,0,0,0,1.2.93,3.51,3.51,0,0,0,1.57.34,3.88,3.88,0,0,0,1.76-.36,3.69,3.69,0,0,0,1.35-1.07l.74.55a3.8,3.8,0,0,1-.69.76,4.17,4.17,0,0,1-.89.59,4.6,4.6,0,0,1-1.08.38A5.54,5.54,0,0,1,150.77,97.87Zm-.23-10a3.17,3.17,0,0,0-1.31.27,3.3,3.3,0,0,0-1,.74,4,4,0,0,0-.74,1.13,5,5,0,0,0-.4,1.42h6.69v-.12a4.6,4.6,0,0,0-.24-1.28,3.63,3.63,0,0,0-.63-1.1,3.14,3.14,0,0,0-1-.77A3,3,0,0,0,150.54,87.91Z"/><path class="cls-3" d="M162.77,97.87a4.85,4.85,0,0,1-2-.41,4.76,4.76,0,0,1-1.56-1.11,5.12,5.12,0,0,1-1-1.65,5.82,5.82,0,0,1-.36-2v-.42a6.12,6.12,0,0,1,.37-2.11,5.39,5.39,0,0,1,1-1.69,4.46,4.46,0,0,1,1.49-1.14,4.15,4.15,0,0,1,1.85-.42,4.38,4.38,0,0,1,1.86.38,3.92,3.92,0,0,1,1.36,1,4.6,4.6,0,0,1,.84,1.54,6.45,6.45,0,0,1,.3,1.89v.71H159v.22a4.92,4.92,0,0,0,.28,1.59,4.26,4.26,0,0,0,.77,1.33,3.81,3.81,0,0,0,1.21.93,3.47,3.47,0,0,0,1.56.34,4,4,0,0,0,1.77-.36,3.74,3.74,0,0,0,1.34-1.07l.75.55a4.18,4.18,0,0,1-.7.76,3.93,3.93,0,0,1-.89.59,4.6,4.6,0,0,1-1.08.38A5.48,5.48,0,0,1,162.77,97.87Zm-.22-10a3.1,3.1,0,0,0-1.31.27,3.23,3.23,0,0,0-1.05.74,4,4,0,0,0-.74,1.13,5,5,0,0,0-.4,1.42h6.69v-.12a4,4,0,0,0-.24-1.28,3.63,3.63,0,0,0-.63-1.1,3.14,3.14,0,0,0-1-.77A3,3,0,0,0,162.55,87.91Z"/><path class="cls-3" d="M178.8,92.5a8.36,8.36,0,0,1-.24,2,5.23,5.23,0,0,1-.77,1.71,4,4,0,0,1-1.29,1.21,3.66,3.66,0,0,1-1.86.45,4.27,4.27,0,0,1-1.8-.38,3.71,3.71,0,0,1-1.38-1.1v5.35h-1.17V87.11h1.09l.05,1.44a4,4,0,0,1,1.37-1.21,3.92,3.92,0,0,1,1.83-.43,3.69,3.69,0,0,1,3.17,1.64,5.49,5.49,0,0,1,.76,1.72,8.34,8.34,0,0,1,.24,2Zm-1.17-.21a7.62,7.62,0,0,0-.17-1.57,4.48,4.48,0,0,0-.57-1.4,3.25,3.25,0,0,0-1-1,2.88,2.88,0,0,0-1.52-.38,3.26,3.26,0,0,0-1,.14,2.79,2.79,0,0,0-.81.4,3.22,3.22,0,0,0-.66.62,3.63,3.63,0,0,0-.48.78v5.24a3.17,3.17,0,0,0,1.17,1.29,3.22,3.22,0,0,0,1.75.48,2.78,2.78,0,0,0,1.51-.39,3.14,3.14,0,0,0,1-1,4.72,4.72,0,0,0,.56-1.4,7.72,7.72,0,0,0,.17-1.58Z"/><path class="cls-3" d="M201.26,86.91a6.36,6.36,0,0,1,.87.06,3.2,3.2,0,0,1,.74.15l-.15,1.12c-.27-.06-.55-.1-.82-.14a7.63,7.63,0,0,0-.84,0,4.37,4.37,0,0,0-2.52.7,3.75,3.75,0,0,0-1.45,2.16v6.75h-1.22V87.11H197l.08,1.83v.22a4.66,4.66,0,0,1,1.71-1.65A4.87,4.87,0,0,1,201.26,86.91Z"/><path class="cls-3" d="M210.78,97.87a4.85,4.85,0,0,1-2-.41,4.76,4.76,0,0,1-1.56-1.11,5.12,5.12,0,0,1-1-1.65,5.6,5.6,0,0,1-.36-2v-.42a6.12,6.12,0,0,1,.37-2.11,5.56,5.56,0,0,1,1-1.69,4.5,4.5,0,0,1,1.5-1.14,4.14,4.14,0,0,1,1.84-.42,4.4,4.4,0,0,1,1.87.38,4,4,0,0,1,1.36,1,4.6,4.6,0,0,1,.84,1.54,6.45,6.45,0,0,1,.3,1.89v.71H207v.22a4.66,4.66,0,0,0,.28,1.59,4.07,4.07,0,0,0,.77,1.33,3.77,3.77,0,0,0,1.2.93,3.51,3.51,0,0,0,1.57.34,3.88,3.88,0,0,0,1.76-.36,3.69,3.69,0,0,0,1.35-1.07l.74.55a3.8,3.8,0,0,1-.69.76,4.17,4.17,0,0,1-.89.59,4.6,4.6,0,0,1-1.08.38A5.54,5.54,0,0,1,210.78,97.87Zm-.23-10a3.17,3.17,0,0,0-1.31.27,3.3,3.3,0,0,0-1,.74,4,4,0,0,0-.74,1.13,5,5,0,0,0-.4,1.42h6.69v-.12a4.6,4.6,0,0,0-.24-1.28,3.63,3.63,0,0,0-.63-1.1,3.14,3.14,0,0,0-1-.77A3,3,0,0,0,210.55,87.91Z"/><path class="cls-3" d="M218.31,87.11l0,1.18a2.63,2.63,0,0,1,.88-1,2.58,2.58,0,0,1,1.42-.39,2.76,2.76,0,0,1,.8.11,1.74,1.74,0,0,1,1,.73,2.67,2.67,0,0,1,.28.56,2.88,2.88,0,0,1,.91-1,2.56,2.56,0,0,1,1.45-.41,2.48,2.48,0,0,1,1.15.24,2.06,2.06,0,0,1,.74.63,2.6,2.6,0,0,1,.4.93,4.44,4.44,0,0,1,.13,1.11v7.85h-1.1V89.82a3.21,3.21,0,0,0-.07-.68,1.67,1.67,0,0,0-.24-.62,1.25,1.25,0,0,0-.47-.44,1.57,1.57,0,0,0-.79-.15,2.46,2.46,0,0,0-.83.15,1.74,1.74,0,0,0-.89.91,2.05,2.05,0,0,0-.18.58v8.1h-1.1v-8a2.9,2.9,0,0,0-.07-.66,1.49,1.49,0,0,0-.24-.58,1.35,1.35,0,0,0-.47-.41,1.61,1.61,0,0,0-.77-.14,2.34,2.34,0,0,0-.8.14,1.78,1.78,0,0,0-.54.37,1.58,1.58,0,0,0-.35.53,3.23,3.23,0,0,0-.21.62v8.08h-1.11V87.11Z"/><path class="cls-3" d="M230.54,87.11h4.91v9.53H239v1h-8.5v-1h3.73V88.15h-3.73Zm3.39-2.89a1,1,0,0,1,.21-.63.81.81,0,0,1,.68-.26.84.84,0,0,1,.68.26,1,1,0,0,1,.21.63.93.93,0,0,1-.21.6.84.84,0,0,1-.68.26.81.81,0,0,1-.68-.26A.93.93,0,0,1,233.93,84.22Z"/><path class="cls-3" d="M243.35,87.11l.08,2a4.43,4.43,0,0,1,1.49-1.58,4,4,0,0,1,2.11-.6,3.35,3.35,0,0,1,2.65,1,4.31,4.31,0,0,1,.93,3v6.76h-1.17V90.93a3.5,3.5,0,0,0-.66-2.24,2.52,2.52,0,0,0-2-.76,3.21,3.21,0,0,0-1.07.18,3.69,3.69,0,0,0-.94.51,3.6,3.6,0,0,0-.75.76,4.54,4.54,0,0,0-.54,1v7.33h-1.17V87.11Z"/><path class="cls-3" d="M253.92,92.29a7.46,7.46,0,0,1,.27-2,5.3,5.3,0,0,1,.78-1.72,3.92,3.92,0,0,1,1.31-1.19,3.65,3.65,0,0,1,1.85-.45,3.8,3.8,0,0,1,1.8.43,3.94,3.94,0,0,1,1.34,1.2V82.67h1.16v15h-1.1l0-1.37a3.8,3.8,0,0,1-1.37,1.16,4,4,0,0,1-1.81.41,3.6,3.6,0,0,1-1.83-.45A4.21,4.21,0,0,1,255,96.21a5.25,5.25,0,0,1-.78-1.71,7.48,7.48,0,0,1-.27-2Zm1.18.21a7.55,7.55,0,0,0,.17,1.57,4.47,4.47,0,0,0,.56,1.4,2.87,2.87,0,0,0,1,1,2.75,2.75,0,0,0,1.51.38,3.61,3.61,0,0,0,.94-.12,3.21,3.21,0,0,0,.82-.37,3.07,3.07,0,0,0,.67-.58,3.3,3.3,0,0,0,.51-.75V89.91a3.81,3.81,0,0,0-.49-.8,3.29,3.29,0,0,0-.66-.63,3.15,3.15,0,0,0-.82-.41,3.31,3.31,0,0,0-.95-.14,2.88,2.88,0,0,0-1.52.38,3.21,3.21,0,0,0-1,1,4.47,4.47,0,0,0-.56,1.4,7.62,7.62,0,0,0-.17,1.57Z"/><path class="cls-3" d="M270.79,97.87a4.85,4.85,0,0,1-2-.41,4.76,4.76,0,0,1-1.56-1.11,5,5,0,0,1-1-1.65,5.6,5.6,0,0,1-.36-2v-.42a6.12,6.12,0,0,1,.37-2.11,5.56,5.56,0,0,1,1-1.69,4.5,4.5,0,0,1,1.5-1.14,4.14,4.14,0,0,1,1.84-.42,4.4,4.4,0,0,1,1.87.38,4,4,0,0,1,1.36,1,4.6,4.6,0,0,1,.84,1.54,6.45,6.45,0,0,1,.3,1.89v.71H267v.22a4.66,4.66,0,0,0,.28,1.59,4.07,4.07,0,0,0,.77,1.33,3.66,3.66,0,0,0,1.2.93,3.51,3.51,0,0,0,1.57.34,3.88,3.88,0,0,0,1.76-.36A3.69,3.69,0,0,0,274,95.45l.74.55a3.8,3.8,0,0,1-.69.76,4.17,4.17,0,0,1-.89.59,4.6,4.6,0,0,1-1.08.38A5.54,5.54,0,0,1,270.79,97.87Zm-.23-10a3.17,3.17,0,0,0-1.31.27,3.3,3.3,0,0,0-1,.74,4,4,0,0,0-.74,1.13,5,5,0,0,0-.4,1.42h6.69v-.12a4.6,4.6,0,0,0-.24-1.28,3.63,3.63,0,0,0-.63-1.1,3.14,3.14,0,0,0-1-.77A3,3,0,0,0,270.56,87.91Z"/><path class="cls-3" d="M285.27,86.91a6.51,6.51,0,0,1,.88.06,3.11,3.11,0,0,1,.73.15l-.15,1.12c-.27-.06-.54-.1-.82-.14a7.63,7.63,0,0,0-.84,0,4.37,4.37,0,0,0-2.52.7,3.75,3.75,0,0,0-1.45,2.16v6.75H279.9V87.11H281l.08,1.83v.22a4.66,4.66,0,0,1,1.71-1.65A4.93,4.93,0,0,1,285.27,86.91Z"/><path class="cls-3" d="M297.65,95a1.49,1.49,0,0,0-.24-.85,2.11,2.11,0,0,0-.67-.62,4.67,4.67,0,0,0-1-.44c-.37-.11-.77-.21-1.18-.3s-1-.23-1.48-.37a5.69,5.69,0,0,1-1.27-.57,2.73,2.73,0,0,1-.89-.83,2.16,2.16,0,0,1-.33-1.22,2.31,2.31,0,0,1,.34-1.22,3.12,3.12,0,0,1,.9-.91,4.58,4.58,0,0,1,1.27-.56,6,6,0,0,1,1.47-.19,5.89,5.89,0,0,1,1.6.21,4.07,4.07,0,0,1,1.31.62,3,3,0,0,1,.89,1,2.82,2.82,0,0,1,.37,1.34h-1.18a1.8,1.8,0,0,0-.27-.92,2.14,2.14,0,0,0-.67-.67,3,3,0,0,0-1-.42,4,4,0,0,0-1.09-.15,4.93,4.93,0,0,0-1,.11,3.3,3.3,0,0,0-.9.34,2,2,0,0,0-.64.58,1.38,1.38,0,0,0-.24.81,1.41,1.41,0,0,0,.23.84,2.14,2.14,0,0,0,.65.57,4.69,4.69,0,0,0,1,.38c.37.1.76.19,1.18.27s1,.25,1.53.41a5.61,5.61,0,0,1,1.28.6,2.71,2.71,0,0,1,.88.87,2.56,2.56,0,0,1,0,2.53,3,3,0,0,1-.94.92,4.29,4.29,0,0,1-1.33.55,6.55,6.55,0,0,1-1.54.18,6,6,0,0,1-1.67-.22,4.4,4.4,0,0,1-1.39-.62,3.23,3.23,0,0,1-1-1,2.68,2.68,0,0,1-.39-1.32h1.17a2,2,0,0,0,.38,1,2.4,2.4,0,0,0,.78.67,3.46,3.46,0,0,0,1,.35,5.69,5.69,0,0,0,1.07.1,4.8,4.8,0,0,0,1.07-.11,3.4,3.4,0,0,0,1-.34,2,2,0,0,0,.69-.59A1.36,1.36,0,0,0,297.65,95Z"/><path class="cls-3" d="M305.67,93.73a7.8,7.8,0,0,1,.09-1.07,3.74,3.74,0,0,1,.26-.84,3.23,3.23,0,0,1,.48-.72,8.31,8.31,0,0,1,.73-.75c.26-.24.5-.49.74-.74a6,6,0,0,0,.64-.79,3.66,3.66,0,0,0,.45-.88,3.36,3.36,0,0,0,0-2.11,2.23,2.23,0,0,0-.53-.83,2.43,2.43,0,0,0-.85-.52,3.25,3.25,0,0,0-1.12-.18,3.49,3.49,0,0,0-1.08.16,2.58,2.58,0,0,0-.88.48,2.23,2.23,0,0,0-.61.78,2.4,2.4,0,0,0-.25,1.06h-1.17a3.4,3.4,0,0,1,.34-1.45,3.33,3.33,0,0,1,.84-1.11,3.84,3.84,0,0,1,1.25-.71,4.64,4.64,0,0,1,1.56-.25,4.71,4.71,0,0,1,1.6.26,3.29,3.29,0,0,1,1.21.74,3.33,3.33,0,0,1,.77,1.14,4.06,4.06,0,0,1,.07,2.77,5.26,5.26,0,0,1-.56,1.11,6.06,6.06,0,0,1-.79,1c-.3.3-.6.59-.91.85a3.93,3.93,0,0,0-.53.58,2.52,2.52,0,0,0-.33.6,2.45,2.45,0,0,0-.18.67,6,6,0,0,0-.05.77ZM305.45,97a.81.81,0,0,1,.22-.58.79.79,0,0,1,.61-.24.82.82,0,0,1,.61.24.78.78,0,0,1,.24.58.74.74,0,0,1-.24.56.85.85,0,0,1-.61.22.82.82,0,0,1-.61-.22A.76.76,0,0,1,305.45,97Z"/></g></g><g id="Separated_they_live-2" data-name="Separated they live-2" class="cls-2"><g class="cls-2"><path class="cls-3" d="M162.39,302.85a2.71,2.71,0,0,0,1.08,1.07,3.09,3.09,0,0,0,1.51.36,3.21,3.21,0,0,0,1-.16,2.65,2.65,0,0,0,.81-.45,2.06,2.06,0,0,0,.54-.7,2,2,0,0,0,.2-.92,1.79,1.79,0,0,0-.24-1,2.05,2.05,0,0,0-.67-.64,5.32,5.32,0,0,0-.93-.42l-1.08-.35c-.36-.12-.72-.25-1.07-.4a3.58,3.58,0,0,1-.93-.59,2.65,2.65,0,0,1-.67-.9,3.3,3.3,0,0,1-.25-1.34,2.88,2.88,0,0,1,.3-1.34,2.93,2.93,0,0,1,.8-1,3.73,3.73,0,0,1,1.16-.59,4.85,4.85,0,0,1,1.38-.2,4.47,4.47,0,0,1,1.72.33,3.23,3.23,0,0,1,1.36,1.1l-.91.65a2.73,2.73,0,0,0-.93-.84,2.81,2.81,0,0,0-1.28-.28,3.45,3.45,0,0,0-1,.14,2.36,2.36,0,0,0-.81.4,2,2,0,0,0-.55.66,2,2,0,0,0-.21.95,1.81,1.81,0,0,0,.43,1.3,3.19,3.19,0,0,0,1.08.72,10.14,10.14,0,0,0,1.41.46,7.37,7.37,0,0,1,1.41.54,3,3,0,0,1,1.08.94,2.76,2.76,0,0,1,.43,1.65,3.09,3.09,0,0,1-.29,1.36,3,3,0,0,1-.77,1,3.45,3.45,0,0,1-1.13.62,4.25,4.25,0,0,1-1.33.21,5.15,5.15,0,0,1-2.06-.4,3.78,3.78,0,0,1-1.62-1.32Z"/><path class="cls-3" d="M170.71,292.85h1v8.07l3.65-3.35h1.4l-3.8,3.38,4.25,4h-1.45L171.67,301V305h-1Z"/><path class="cls-3" d="M178.32,294.63a.68.68,0,0,1,.21-.51.74.74,0,0,1,1,0,.71.71,0,0,1,.2.51.73.73,0,0,1-.2.51.73.73,0,0,1-1.24-.51Zm.24,2.93h1V305h-1Z"/><path class="cls-3" d="M182,297.56h1v1.29h0a2.37,2.37,0,0,1,.56-.66,3.26,3.26,0,0,1,.73-.47,3.76,3.76,0,0,1,.82-.27,4.24,4.24,0,0,1,2.41.2,3.65,3.65,0,0,1,2,2,4.2,4.2,0,0,1,.29,1.56,4.13,4.13,0,0,1-.29,1.56,3.47,3.47,0,0,1-.81,1.23,3.66,3.66,0,0,1-1.23.81,4.24,4.24,0,0,1-2.41.2,3.76,3.76,0,0,1-.82-.27,3.22,3.22,0,0,1-.73-.46,2.41,2.41,0,0,1-.56-.67h0v5h-1Zm.86,3.69a3,3,0,0,0,.9,2.14,3.06,3.06,0,0,0,2.19.89,2.94,2.94,0,0,0,1.21-.24,2.73,2.73,0,0,0,.93-.65,2.77,2.77,0,0,0,.59-1,3.52,3.52,0,0,0,.2-1.18,3.46,3.46,0,0,0-.2-1.17,2.77,2.77,0,0,0-.59-1,2.6,2.6,0,0,0-.93-.65,2.94,2.94,0,0,0-1.21-.24,3.09,3.09,0,0,0-1.22.24,3.1,3.1,0,0,0-1.63,1.61A2.88,2.88,0,0,0,182.9,301.25Z"/></g></g><g id="Rectangle_319" data-name="Rectangle 319"><rect class="cls-3" x="76.38" y="193.42" width="209" height="48" rx="13"/></g><g id="Rectangle_320" data-name="Rectangle 320"><rect class="cls-3" x="76.38" y="134.42" width="209" height="48" rx="13"/></g><g id="Action" class="cls-2"><g class="cls-2"><path class="cls-4" d="M149.71,219.94q4.65,0,7.68-.16a8.37,8.37,0,0,0-.25,1.57c0,.5,0,1.11,0,1.82H145.81c.08-2.07.13-4,.13-5.8s-.05-3.74-.13-5.81h3.9Z"/><path class="cls-4" d="M168.86,223.17c-.2-.6-.47-1.37-.81-2.28h-5.11l-.8,2.28h-4l4.48-11.61h5.89L173,223.17Zm-1.72-4.78c-.41-1.12-.82-2.24-1.25-3.36l-.39-1q-.56,1.45-1.64,4.4Z"/><path class="cls-4" d="M186.74,214.92c-1.68-.06-3.31-.09-4.88-.1v8.35h-4v-8.35c-1.59,0-3.21,0-4.87.1v-3.36h13.75Z"/><path class="cls-4" d="M191.89,220.25q6.08,0,8.81-.18a10,10,0,0,0-.13,1.35c0,.47,0,1.05,0,1.75H188.11c.09-2.07.13-4,.13-5.8s0-3.74-.13-5.81h12.43v2.89h-8.65V216l2.27,0c1.7,0,3.45,0,5.26-.1v2.75c-1.81-.06-3.56-.09-5.26-.09h-2.27Z"/><path class="cls-4" d="M214.25,217.78a3.93,3.93,0,0,1-2.33,1.39,4.7,4.7,0,0,1,.27.4l2.59,3.6h-4.35c-.47-.87-1.21-2.11-2.22-3.71h-2.35v3.71h-3.78c.09-2.07.13-4,.13-5.8s0-3.74-.13-5.81h7.06c2.15,0,3.65.35,4.51,1a3.47,3.47,0,0,1,1.28,2.82A4,4,0,0,1,214.25,217.78Zm-8.39-3.13v1.82H208a17.28,17.28,0,0,0,2-.09,2.25,2.25,0,0,0,1-.28.71.71,0,0,0,0-1.1,2,2,0,0,0-1-.27,18.34,18.34,0,0,0-2.08-.08Z"/></g></g><g id="Action-2" class="cls-2"><g class="cls-2"><path class="cls-4" d="M173.28,152.56l-.3.46q-1.71,2.65-2.94,4.7t-2,3.75v2.7h-4.17v-3c-.4-.8-.86-1.63-1.39-2.47s-1.29-2-2.28-3.5c-.76-1.13-1.35-2-1.76-2.67h4.48c.32.65.85,1.61,1.57,2.89s1.22,2.22,1.49,2.76c.37-.78.88-1.74,1.5-2.87.74-1.32,1.24-2.25,1.49-2.78Z"/><path class="cls-4" d="M178,161.25q6.09,0,8.82-.18a11.86,11.86,0,0,0-.14,1.35c0,.47,0,1.05,0,1.75H174.23c.08-2.07.13-4,.13-5.8s-.05-3.74-.13-5.81h12.43v2.89H178V157l2.28,0c1.69,0,3.45,0,5.26-.1v2.75c-1.81-.06-3.57-.09-5.26-.09H178Z"/><path class="cls-4" d="M189.1,161.28a15.3,15.3,0,0,0,.7-1.63,9.88,9.88,0,0,0,2.64,1,11.54,11.54,0,0,0,2.8.37,5.4,5.4,0,0,0,1.87-.23q.54-.24.54-.51c0-.65-1-1-3-1a12.15,12.15,0,0,1-4.74-.68,2.29,2.29,0,0,1-1.47-2.2,3.43,3.43,0,0,1,1.79-3.19,9.35,9.35,0,0,1,4.66-1,14.59,14.59,0,0,1,3.41.42,13.7,13.7,0,0,1,3.16,1.16c-.31.71-.63,1.57-1,2.58l-.16.48a6.89,6.89,0,0,0-2.47-1.1,11.63,11.63,0,0,0-2.91-.44,7,7,0,0,0-2,.2c-.35.14-.53.33-.53.59s.25.46.73.61a7.19,7.19,0,0,0,2.11.23,11.48,11.48,0,0,1,4.92.78,2.52,2.52,0,0,1,1.54,2.38,3.47,3.47,0,0,1-1.63,3.22,9.78,9.78,0,0,1-4.95,1,17.4,17.4,0,0,1-3.61-.39,13.29,13.29,0,0,1-3.31-1.14A16.6,16.6,0,0,0,189.1,161.28Z"/></g></g></g></g></svg>