<svg xmlns="http://www.w3.org/2000/svg" width="169.018" height="42.082" viewBox="0 0 169.018 42.082"><g opacity="0.998"><path d="M140.579,106.122h0a18.961,18.961,0,1,0,0,37.921,19.156,19.156,0,0,0,13.166-5.32v4.792h9.479V131.771h2.791l6.846,11.744h10.954l-8.32-13.535a12.353,12.353,0,0,0-5.689-23.331H153.746v4.792a19.156,19.156,0,0,0-13.166-5.32m6.74,12.272,6.426-6.425V138.2l-6.426-6.425a9.48,9.48,0,1,1,0-13.377m15.905,5.109v-8.585h5.161a4.339,4.339,0,0,1,4.319,4.319,4.294,4.294,0,0,1-4.319,4.266Z" transform="translate(-121.617 -106.122)" fill="#1f1c1f"/><path d="M324.511,124.849v-6.8a3.884,3.884,0,0,1,4.567-3.51v-1.3a4.355,4.355,0,0,0-4.567,2.356l-.024-2.283h-1.226v11.539Z" transform="translate(-160.061 -107.469)" fill="#1f1c1f"/><path d="M318.368,118.575a5.18,5.18,0,0,0-5.289-5.385,5.576,5.576,0,0,0-5.529,5.841,5.8,5.8,0,0,0,5.745,5.938,5.592,5.592,0,0,0,4.544-2.188l-.889-.745a4.332,4.332,0,0,1-3.654,1.755,4.524,4.524,0,0,1-4.471-4.4h9.544Zm-9.52-.337a4.3,4.3,0,0,1,4.207-3.895,3.991,3.991,0,0,1,4.014,3.895Z" transform="translate(-157.066 -107.47)" fill="#1f1c1f"/><path d="M285.245,118.983c.048-3.053,1.586-4.64,3.726-4.64a2.851,2.851,0,0,1,2.981,3.222v7.284h1.25v-5.866c.049-3.053,1.587-4.64,3.726-4.64a2.852,2.852,0,0,1,2.982,3.222v7.284h1.25v-7.332c.024-2.693-1.491-4.328-4.087-4.328a4.384,4.384,0,0,0-4.086,2.74,3.764,3.764,0,0,0-3.87-2.74,4.26,4.26,0,0,0-3.87,2.428v-2.307h-1.25v11.539h1.25Z" transform="translate(-152.575 -107.47)" fill="#1f1c1f"/><path d="M277.564,124.878h1.25V113.339h-1.25V119.2c-.049,3.054-1.731,4.639-4.063,4.639a2.907,2.907,0,0,1-3.077-3.221v-7.283h-1.25v7.332c0,2.693,1.539,4.328,4.183,4.328a4.56,4.56,0,0,0,4.207-2.549Z" transform="translate(-149.749 -107.498)" fill="#1f1c1f"/><path d="M257.337,122.4l-.7.986a6.324,6.324,0,0,0,4.352,1.586c2.163,0,3.895-1.178,3.895-3.245,0-1.634-.794-2.332-3.366-3.221l-.986-.336c-1.442-.482-2.211-.962-2.211-2.019,0-1.322,1.226-1.828,2.356-1.828a4.942,4.942,0,0,1,3.077,1.322l.745-1.034a5.822,5.822,0,0,0-3.822-1.394c-1.972,0-3.582,1.057-3.582,3.005,0,1.49.889,2.427,3.077,3.2l1.105.385c1.635.576,2.38.889,2.38,1.922,0,1.491-1.3,2.14-2.668,2.14a5.393,5.393,0,0,1-3.654-1.467" transform="translate(-147.359 -107.475)" fill="#1f1c1f"/><path d="M243.81,118.983c.049-3.053,1.73-4.64,4.062-4.64a2.909,2.909,0,0,1,3.078,3.222v7.284h1.25v-7.332c0-2.693-1.538-4.328-4.182-4.328a4.559,4.559,0,0,0-4.208,2.548v-2.427h-1.25v11.539h1.25Z" transform="translate(-144.675 -107.47)" fill="#1f1c1f"/><path d="M231.555,113.19a5.89,5.89,0,1,0,5.89,5.89,5.879,5.879,0,0,0-5.89-5.89m0,10.53a4.64,4.64,0,1,1,4.64-4.64,4.637,4.637,0,0,1-4.64,4.64" transform="translate(-141.459 -107.47)" fill="#1f1c1f"/><path d="M219.392,119.584a7.192,7.192,0,1,1-5.7-11.587,7.085,7.085,0,0,1,5.7,2.789l1.009-.987a8.715,8.715,0,0,0-6.707-3.173,8.546,8.546,0,1,0,6.659,13.895Z" transform="translate(-137.54 -106.218)" fill="#1f1c1f"/><path d="M288.733,147.132l-.7.987a6.321,6.321,0,0,0,4.351,1.586c2.163,0,3.895-1.178,3.895-3.245,0-1.634-.793-2.331-3.366-3.22l-.985-.337c-1.443-.481-2.212-.961-2.212-2.019,0-1.323,1.226-1.827,2.356-1.827a4.939,4.939,0,0,1,3.077,1.322l.745-1.034a5.82,5.82,0,0,0-3.822-1.394c-1.972,0-3.582,1.058-3.582,3.005,0,1.49.889,2.428,3.077,3.2l1.106.384c1.635.576,2.38.889,2.38,1.922,0,1.491-1.3,2.14-2.668,2.14a5.389,5.389,0,0,1-3.653-1.467" transform="translate(-153.345 -112.19)" fill="#1f1c1f"/><path d="M284.919,148.018l-.337-1.01a3.935,3.935,0,0,1-2.139.6c-1.13,0-1.659-.673-1.659-1.9v-7.427h4.039V137.1h-4.039v-3.967H279.51v12.6c0,1.9.937,3.052,2.86,3.052a4.537,4.537,0,0,0,2.549-.769" transform="translate(-151.72 -111.272)" fill="#1f1c1f"/><path d="M271.375,149.578v-6.8a3.885,3.885,0,0,1,4.568-3.511v-1.3a4.354,4.354,0,0,0-4.568,2.355l-.024-2.283h-1.225v11.539Z" transform="translate(-149.93 -112.184)" fill="#1f1c1f"/><path d="M259.119,137.919a5.89,5.89,0,1,0,5.89,5.89,5.879,5.879,0,0,0-5.89-5.89m0,10.53a4.64,4.64,0,1,1,4.64-4.64,4.638,4.638,0,0,1-4.64,4.64" transform="translate(-146.714 -112.184)" fill="#1f1c1f"/><path d="M242.676,137.919a5.322,5.322,0,0,0-4.567,2.669V138.04h-1.25v16.227h1.25v-7.26a5.412,5.412,0,0,0,4.64,2.693,5.891,5.891,0,0,0-.073-11.78m0,10.53a4.64,4.64,0,1,1,4.567-4.64,4.612,4.612,0,0,1-4.567,4.64" transform="translate(-143.588 -112.184)" fill="#1f1c1f"/><path d="M231.963,143.3a5.179,5.179,0,0,0-5.288-5.385,5.577,5.577,0,0,0-5.529,5.842,5.806,5.806,0,0,0,5.746,5.938,5.594,5.594,0,0,0,4.543-2.188l-.889-.745a4.332,4.332,0,0,1-3.653,1.755,4.524,4.524,0,0,1-4.472-4.4h9.543Zm-9.52-.337a4.3,4.3,0,0,1,4.207-3.895,3.993,3.993,0,0,1,4.015,3.895Z" transform="translate(-140.592 -112.184)" fill="#1f1c1f"/><path d="M213.167,141.365a4.921,4.921,0,0,0,4.5-4.88c0-2.861-1.947-4.952-5.505-4.952h-5.625v16.828h1.322v-6.923h3.75l4.76,6.923h1.611Zm-5.313-1.178v-7.4h4.278c2.645,0,4.184,1.491,4.184,3.7,0,1.972-1.347,3.7-4.231,3.7Z" transform="translate(-137.806 -110.967)" fill="#1f1c1f"/></g></svg>