<svg xmlns="http://www.w3.org/2000/svg" width="282.018" height="70.217" viewBox="0 0 282.018 70.217"><g opacity="0.998"><path d="M153.257,106.122h0a31.637,31.637,0,1,0,0,63.274,31.963,31.963,0,0,0,21.969-8.877v8h15.817v-19.6H195.7l11.424,19.6H225.4l-13.883-22.584A20.613,20.613,0,0,0,202.027,107h-26.8v8a31.963,31.963,0,0,0-21.969-8.877M164.5,126.6l10.723-10.721V159.64L164.5,148.919a15.818,15.818,0,1,1,0-22.32m26.539,8.524V120.8h8.612A7.239,7.239,0,0,1,206.86,128a7.164,7.164,0,0,1-7.206,7.118Z" transform="translate(-121.617 -106.122)" fill="#fff"/><path d="M325.347,132.646V121.294a6.481,6.481,0,0,1,7.621-5.857v-2.166a7.267,7.267,0,0,0-7.621,3.931l-.041-3.81h-2.046v19.253Z" transform="translate(-50.95 -103.646)" fill="#fff"/><path d="M325.6,122.176a8.643,8.643,0,0,0-8.825-8.986c-5.013,0-9.225,3.97-9.225,9.746a9.686,9.686,0,0,0,9.586,9.908,9.331,9.331,0,0,0,7.581-3.65l-1.484-1.242a7.228,7.228,0,0,1-6.1,2.928,7.548,7.548,0,0,1-7.46-7.341H325.6Zm-15.885-.562a7.167,7.167,0,0,1,7.02-6.5,6.659,6.659,0,0,1,6.7,6.5Z" transform="translate(-56.456 -103.645)" fill="#fff"/><path d="M286.081,122.857c.08-5.094,2.647-7.742,6.218-7.742,3.009,0,5.013,1.927,4.974,5.376v12.154h2.085v-9.788c.081-5.094,2.648-7.742,6.218-7.742,3.009,0,5.014,1.927,4.975,5.376v12.154h2.085V120.411c.041-4.493-2.487-7.221-6.82-7.221A7.315,7.315,0,0,0,299,117.763a6.28,6.28,0,0,0-6.458-4.573,7.108,7.108,0,0,0-6.458,4.051v-3.85h-2.086v19.253h2.086Z" transform="translate(-64.711 -103.645)" fill="#fff"/><path d="M283.174,132.592h2.085V113.339h-2.085v9.787c-.081,5.1-2.889,7.741-6.779,7.741-3.09,0-5.134-1.924-5.134-5.375V113.339h-2.086v12.234c0,4.493,2.567,7.221,6.98,7.221a7.609,7.609,0,0,0,7.02-4.253Z" transform="translate(-69.905 -103.593)" fill="#fff"/><path d="M257.8,128.542l-1.164,1.645a10.552,10.552,0,0,0,7.261,2.647c3.61,0,6.5-1.965,6.5-5.415,0-2.727-1.325-3.891-5.617-5.375l-1.645-.56c-2.406-.8-3.689-1.606-3.689-3.369,0-2.207,2.046-3.049,3.931-3.049a8.247,8.247,0,0,1,5.134,2.207l1.242-1.726a9.714,9.714,0,0,0-6.377-2.325c-3.29,0-5.977,1.764-5.977,5.014,0,2.486,1.484,4.05,5.134,5.334l1.845.643c2.728.962,3.972,1.484,3.972,3.207,0,2.487-2.166,3.571-4.453,3.571a9,9,0,0,1-6.1-2.447" transform="translate(-74.298 -103.634)" fill="#fff"/><path d="M244.646,122.857c.081-5.094,2.887-7.742,6.778-7.742,3.09,0,5.136,1.927,5.136,5.376v12.154h2.085V120.411c0-4.493-2.566-7.221-6.978-7.221a7.606,7.606,0,0,0-7.021,4.251v-4.05H242.56v19.253h2.086Z" transform="translate(-79.232 -103.645)" fill="#fff"/><path d="M235.477,113.19a9.828,9.828,0,1,0,9.827,9.827,9.81,9.81,0,0,0-9.827-9.827m0,17.569a7.741,7.741,0,1,1,7.742-7.742,7.737,7.737,0,0,1-7.742,7.742" transform="translate(-85.145 -103.645)" fill="#fff"/><path d="M228.923,128.247a12,12,0,1,1-9.507-19.334,11.822,11.822,0,0,1,9.507,4.654l1.684-1.646a14.542,14.542,0,0,0-11.191-5.294,14.26,14.26,0,1,0,11.111,23.185Z" transform="translate(-92.348 -105.945)" fill="#fff"/><path d="M289.2,153.271l-1.164,1.646a10.548,10.548,0,0,0,7.26,2.646c3.61,0,6.5-1.965,6.5-5.415,0-2.727-1.323-3.889-5.616-5.373l-1.644-.562c-2.408-.8-3.691-1.6-3.691-3.369,0-2.207,2.046-3.048,3.931-3.048A8.242,8.242,0,0,1,299.908,142l1.242-1.726a9.711,9.711,0,0,0-6.377-2.326c-3.29,0-5.977,1.765-5.977,5.014,0,2.486,1.484,4.051,5.134,5.336l1.845.642c2.728.961,3.972,1.484,3.972,3.207,0,2.488-2.166,3.571-4.452,3.571a8.993,8.993,0,0,1-6.1-2.447" transform="translate(-63.295 -94.968)" fill="#fff"/><path d="M288.535,157.966l-.562-1.685a6.566,6.566,0,0,1-3.569,1c-1.885,0-2.768-1.124-2.768-3.17V141.722h6.739v-1.966h-6.739v-6.619H279.51v21.02c0,3.168,1.564,5.093,4.772,5.093a7.57,7.57,0,0,0,4.253-1.283" transform="translate(-66.283 -96.655)" fill="#fff"/><path d="M272.21,157.375V146.024a6.482,6.482,0,0,1,7.622-5.858V138a7.266,7.266,0,0,0-7.622,3.93l-.041-3.81h-2.045v19.253Z" transform="translate(-69.572 -94.98)" fill="#fff"/><path d="M263.041,137.919a9.828,9.828,0,1,0,9.827,9.827,9.81,9.81,0,0,0-9.827-9.827m0,17.569a7.741,7.741,0,1,1,7.742-7.742,7.738,7.738,0,0,1-7.742,7.742" transform="translate(-75.485 -94.979)" fill="#fff"/><path d="M246.565,137.919a8.88,8.88,0,0,0-7.621,4.454V138.12h-2.086V165.2h2.086V153.082a9.03,9.03,0,0,0,7.742,4.493,9.83,9.83,0,0,0-.122-19.656m0,17.569a7.742,7.742,0,1,1,7.621-7.742,7.695,7.695,0,0,1-7.621,7.742" transform="translate(-81.231 -94.979)" fill="#fff"/><path d="M239.2,146.9a8.642,8.642,0,0,0-8.824-8.986c-5.014,0-9.226,3.972-9.226,9.748a9.687,9.687,0,0,0,9.588,9.908,9.335,9.335,0,0,0,7.58-3.65l-1.484-1.244a7.229,7.229,0,0,1-6.1,2.929,7.548,7.548,0,0,1-7.461-7.342H239.2Zm-15.884-.562a7.168,7.168,0,0,1,7.02-6.5,6.662,6.662,0,0,1,6.7,6.5Z" transform="translate(-86.737 -94.979)" fill="#fff"/><path d="M217.6,147.938c4.732-.721,7.5-4.131,7.5-8.142,0-4.774-3.249-8.263-9.186-8.263h-9.386v28.079h2.207V148.06H215l7.942,11.552h2.689Zm-8.864-1.965V133.618h7.138c4.413,0,6.98,2.488,6.98,6.178,0,3.29-2.247,6.177-7.06,6.177Z" transform="translate(-91.858 -97.217)" fill="#fff"/></g></svg>