<svg xmlns="http://www.w3.org/2000/svg" viewBox="0 0 360.97 360.97"><defs><style>.cls-1{fill:none;}.cls-2{fill:#fff;}.cls-3{isolation:isolate;}.cls-4{fill:#1f1c1f;}.cls-5{fill:#262626;}</style></defs><g id="Layer_2" data-name="Layer 2"><g id="Layer_1-2" data-name="Layer 1"><rect class="cls-1" width="360.97" height="360.97"/><g id="Rectangle_320" data-name="Rectangle 320"><rect class="cls-2" x="75.72" y="270.69" width="209" height="48" rx="13"/></g><g id="Action-2" class="cls-3"><g class="cls-3"><path class="cls-4" d="M142.53,297.51q6.08,0,8.81-.18a11.86,11.86,0,0,0-.14,1.35c0,.47,0,1.05,0,1.75H138.75c.08-2.06.13-4,.13-5.8s0-3.74-.13-5.81h12.43v2.89h-8.65v1.54l2.27,0c1.69,0,3.45,0,5.26-.1v2.75c-1.81-.06-3.57-.09-5.26-.09h-2.27Z"/><path class="cls-4" d="M166.14,288.83c-.07,1.81-.11,3.74-.11,5.8s0,4,.11,5.8h-5.73l-3.87-8.73.29,8.73h-4.11c.08-2.06.12-4,.12-5.8s0-3.73-.12-5.8h5.88l3.89,9-.27-9Z"/><path class="cls-4" d="M179.68,295a3.91,3.91,0,0,1-2.32,1.39l.27.4,2.59,3.6h-4.35c-.47-.87-1.21-2.11-2.23-3.71h-2.35v3.71h-3.77c.08-2.06.12-4,.12-5.8s0-3.74-.12-5.81h7c2.16,0,3.66.35,4.51,1a3.44,3.44,0,0,1,1.28,2.82A3.91,3.91,0,0,1,179.68,295Zm-8.39-3.13v1.82h2.16a17.47,17.47,0,0,0,2.06-.09,2.34,2.34,0,0,0,1-.28.7.7,0,0,0,0-1.1,2,2,0,0,0-1-.27,18.23,18.23,0,0,0-2.08-.08Z"/><path class="cls-4" d="M183.47,299a6.63,6.63,0,0,1,0-8.92c1.15-1.06,2.95-1.6,5.4-1.6s4.27.54,5.42,1.6a6.66,6.66,0,0,1,0,8.93c-1.14,1.06-2.95,1.58-5.42,1.58S184.62,300.06,183.47,299Zm7.95-2.35a3.24,3.24,0,0,0,0-4.22,3.9,3.9,0,0,0-2.56-.68,3.86,3.86,0,0,0-2.54.68,3.2,3.2,0,0,0,0,4.21,3.8,3.8,0,0,0,2.54.69A3.9,3.9,0,0,0,191.42,296.65Z"/><path class="cls-4" d="M201.28,297.2q4.64,0,7.68-.16a8.42,8.42,0,0,0-.26,1.57c0,.5,0,1.11,0,1.82H197.37c.09-2.06.13-4,.13-5.8s0-3.74-.13-5.81h3.91Z"/><path class="cls-4" d="M213.92,297.2q4.64,0,7.68-.16a8.42,8.42,0,0,0-.26,1.57c0,.5-.05,1.11-.05,1.82H210c.09-2.06.13-4,.13-5.8s0-3.74-.13-5.81h3.91Z"/></g></g><g class="cls-3"><path class="cls-2" d="M59.16,49.66,57.33,51.6v5.1H56.15V42.48h1.18v7.61l1.75-2,4.81-5.59h1.45L60,48.8l5.78,7.9H64.31Z"/><path class="cls-2" d="M73.45,56.7H72.28V44l-3.94,1.69v-1.1l4.94-2.06h.17Z"/><path class="cls-2" d="M88.39,56.7H79.47v-.9l4.66-5.28c.35-.4.66-.77,1-1.13a11.11,11.11,0,0,0,.76-1.06,5.5,5.5,0,0,0,.49-1,3.3,3.3,0,0,0,.17-1.08A3.22,3.22,0,0,0,86.29,45a2.69,2.69,0,0,0-.61-.93,3,3,0,0,0-.94-.6,3.4,3.4,0,0,0-1.22-.21,3.3,3.3,0,0,0-1.34.25,2.83,2.83,0,0,0-1,.7,3.12,3.12,0,0,0-.63,1,4.18,4.18,0,0,0-.23,1.31H79.16a4.58,4.58,0,0,1,.32-1.66,4.35,4.35,0,0,1,.88-1.37,4.21,4.21,0,0,1,1.36-.93,4.66,4.66,0,0,1,1.8-.34,5.09,5.09,0,0,1,1.7.28,3.82,3.82,0,0,1,1.31.79,3.44,3.44,0,0,1,.85,1.23,4.09,4.09,0,0,1,.3,1.59,4,4,0,0,1-.25,1.37,7.51,7.51,0,0,1-.65,1.3,10.15,10.15,0,0,1-.9,1.23c-.33.39-.66.78-1,1.16l-4,4.48h7.48Z"/><path class="cls-2" d="M108.16,54.93,112,42.48h1.24L108.71,56.7h-1.08l-4.56-14.22h1.24Z"/><path class="cls-2" d="M116.09,42.48h8.24v1.05h-3.57V55.66h3.57v1h-8.24v-1h3.46V43.53h-3.46Z"/><path class="cls-2" d="M132.87,50.75h-3.51v6H128.2V42.48h4a5.76,5.76,0,0,1,1.77.3,4.4,4.4,0,0,1,1.45.82,3.82,3.82,0,0,1,1,1.3,4.11,4.11,0,0,1,.36,1.77,3.85,3.85,0,0,1-.21,1.3A3.77,3.77,0,0,1,136,49a4.16,4.16,0,0,1-.89.83,5.76,5.76,0,0,1-1.12.62l3.24,6.09v.13H136Zm-3.51-1h3.09a3.34,3.34,0,0,0,1.24-.25,3.12,3.12,0,0,0,1-.64,2.76,2.76,0,0,0,.67-1,3.39,3.39,0,0,0,0-2.58,2.75,2.75,0,0,0-.72-1,3.07,3.07,0,0,0-1.07-.62,4.42,4.42,0,0,0-1.33-.24h-2.85Z"/><path class="cls-2" d="M149.34,43.5h-4.53V56.7h-1.15V43.5h-4.54v-1h10.21Z"/><path class="cls-2" d="M160.67,42.48v9.64a5.59,5.59,0,0,1-.33,1.83,4.54,4.54,0,0,1-.9,1.52,4.15,4.15,0,0,1-3.23,1.42,4.21,4.21,0,0,1-1.84-.38,4.14,4.14,0,0,1-1.4-1,4.87,4.87,0,0,1-.9-1.53,5.34,5.34,0,0,1-.33-1.83l0-9.64h1.1l0,9.64a4.79,4.79,0,0,0,.24,1.41,3.84,3.84,0,0,0,.64,1.2,3.11,3.11,0,0,0,2.44,1.15,3.07,3.07,0,0,0,2.43-1.15,3.82,3.82,0,0,0,.63-1.2,4.79,4.79,0,0,0,.24-1.41l0-9.64Z"/><path class="cls-2" d="M171.06,52.73h-5.41l-1.26,4H163.2l4.63-14.22h1.06l4.59,14.22h-1.17Zm-5.08-1h4.74l-2.36-7.48Z"/><path class="cls-2" d="M177.54,55.68h7.24v1h-8.41V42.48h1.17Z"/><path class="cls-2" d="M209,52.38a6.4,6.4,0,0,1-.48,1.78,4.78,4.78,0,0,1-1,1.44,4.28,4.28,0,0,1-1.41.95,4.63,4.63,0,0,1-1.83.34,4.18,4.18,0,0,1-1.54-.26,4,4,0,0,1-1.22-.7,4.68,4.68,0,0,1-.92-1.06,6.58,6.58,0,0,1-.65-1.3,7.91,7.91,0,0,1-.37-1.45,9.51,9.51,0,0,1-.14-1.5V48.56a9.5,9.5,0,0,1,.14-1.49,7.71,7.71,0,0,1,.37-1.45,6.66,6.66,0,0,1,.65-1.31,4.91,4.91,0,0,1,.92-1.06,4,4,0,0,1,1.22-.71,4.4,4.4,0,0,1,1.54-.26,4.92,4.92,0,0,1,1.85.34,4.3,4.3,0,0,1,1.41,1,4.52,4.52,0,0,1,1,1.44,6.44,6.44,0,0,1,.47,1.8h-1.17a6.15,6.15,0,0,0-.37-1.37,3.89,3.89,0,0,0-.69-1.13,3,3,0,0,0-1-.76,3.26,3.26,0,0,0-1.41-.28,3.17,3.17,0,0,0-1.23.23,3.23,3.23,0,0,0-.94.63,3.47,3.47,0,0,0-.69.91,5.41,5.41,0,0,0-.46,1.11,6.93,6.93,0,0,0-.26,1.2,8,8,0,0,0-.08,1.18v2.08a8.11,8.11,0,0,0,.08,1.19A7.25,7.25,0,0,0,201,53a5.33,5.33,0,0,0,.46,1.1,3.52,3.52,0,0,0,.69.92,2.88,2.88,0,0,0,.94.63,3,3,0,0,0,1.23.24,3.54,3.54,0,0,0,1.43-.27,2.89,2.89,0,0,0,1-.75,3.84,3.84,0,0,0,.69-1.12,6,6,0,0,0,.36-1.39Z"/><path class="cls-2" d="M213.55,55.68h7.23v1h-8.41V42.48h1.18Z"/><path class="cls-2" d="M231.07,52.73h-5.41l-1.26,4h-1.19l4.63-14.22h1.06l4.59,14.22h-1.17Zm-5.08-1h4.74l-2.36-7.48Z"/><path class="cls-2" d="M243.9,53.2a2.48,2.48,0,0,0-.15-.89,2.51,2.51,0,0,0-.42-.71,3.26,3.26,0,0,0-.62-.55,6.22,6.22,0,0,0-.76-.43c-.26-.12-.54-.23-.82-.33l-.81-.27c-.33-.11-.67-.22-1-.35a8.77,8.77,0,0,1-1-.44,5.59,5.59,0,0,1-.91-.57,3.85,3.85,0,0,1-.74-.71,3.05,3.05,0,0,1-.5-.9A3.17,3.17,0,0,1,236,46a3.13,3.13,0,0,1,.39-1.57,3.91,3.91,0,0,1,1-1.15,4.78,4.78,0,0,1,1.43-.71,5.56,5.56,0,0,1,1.61-.24,5,5,0,0,1,1.73.3,4.48,4.48,0,0,1,1.44.84,4,4,0,0,1,1,1.3,4.13,4.13,0,0,1,.4,1.7h-1.18a4.18,4.18,0,0,0-.34-1.26,3,3,0,0,0-.71-1,2.94,2.94,0,0,0-1-.64,3.42,3.42,0,0,0-1.3-.23,4.3,4.3,0,0,0-1.18.16,3.43,3.43,0,0,0-1,.49,2.56,2.56,0,0,0-.75.82,2.16,2.16,0,0,0-.29,1.15,2.11,2.11,0,0,0,.34,1.22,3,3,0,0,0,.85.84,6.39,6.39,0,0,0,1.14.57q.61.22,1.17.39l1.05.36a9.35,9.35,0,0,1,1,.46,7.63,7.63,0,0,1,.92.59,3.81,3.81,0,0,1,.75.75,3.3,3.3,0,0,1,.68,2.07,3.16,3.16,0,0,1-.41,1.63,3.76,3.76,0,0,1-1,1.16,4.47,4.47,0,0,1-1.46.69,5.89,5.89,0,0,1-1.66.23,6.17,6.17,0,0,1-1.82-.27,5.06,5.06,0,0,1-1.57-.8A4.15,4.15,0,0,1,236,54.51a3.75,3.75,0,0,1-.46-1.77h1.18a3.74,3.74,0,0,0,.4,1.35,3.2,3.2,0,0,0,.82,1,3.7,3.7,0,0,0,1.15.6,5,5,0,0,0,1.41.2,5,5,0,0,0,1.22-.16,3.52,3.52,0,0,0,1.08-.48,2.54,2.54,0,0,0,.77-.83A2.34,2.34,0,0,0,243.9,53.2Z"/><path class="cls-2" d="M255.9,53.2a2.48,2.48,0,0,0-.15-.89,2.3,2.3,0,0,0-.42-.71,3.26,3.26,0,0,0-.62-.55,6.93,6.93,0,0,0-.75-.43c-.27-.12-.55-.23-.82-.33l-.82-.27-1-.35a8.77,8.77,0,0,1-1-.44,6.05,6.05,0,0,1-.91-.57,4.16,4.16,0,0,1-.74-.71,3.3,3.3,0,0,1-.5-.9A3.17,3.17,0,0,1,248,46a3.13,3.13,0,0,1,.39-1.57,3.91,3.91,0,0,1,1-1.15,4.84,4.84,0,0,1,1.44-.71,5.49,5.49,0,0,1,1.6-.24,5,5,0,0,1,1.73.3,4.48,4.48,0,0,1,1.44.84,4,4,0,0,1,1,1.3,4.13,4.13,0,0,1,.4,1.7h-1.18a4.18,4.18,0,0,0-.34-1.26,3.18,3.18,0,0,0-.7-1,3.13,3.13,0,0,0-1-.64,3.47,3.47,0,0,0-1.31-.23,4.23,4.23,0,0,0-1.17.16,3.38,3.38,0,0,0-1.05.49,2.56,2.56,0,0,0-.75.82,2.26,2.26,0,0,0-.29,1.15,2.11,2.11,0,0,0,.34,1.22,3.09,3.09,0,0,0,.85.84,6.74,6.74,0,0,0,1.14.57c.41.15.8.28,1.18.39l1,.36a9.35,9.35,0,0,1,1,.46,7.63,7.63,0,0,1,.92.59,3.81,3.81,0,0,1,.75.75,3.3,3.3,0,0,1,.68,2.07,3.06,3.06,0,0,1-.41,1.63,3.86,3.86,0,0,1-1,1.16,4.52,4.52,0,0,1-1.47.69,5.89,5.89,0,0,1-1.66.23,6.22,6.22,0,0,1-1.82-.27,5,5,0,0,1-1.56-.8A4.18,4.18,0,0,1,248,54.51a3.75,3.75,0,0,1-.46-1.77h1.18a3.56,3.56,0,0,0,.41,1.35,3,3,0,0,0,.81,1,3.7,3.7,0,0,0,1.15.6,5,5,0,0,0,1.41.2,5.06,5.06,0,0,0,1.23-.16,3.37,3.37,0,0,0,1.07-.48,2.69,2.69,0,0,0,.78-.83A2.43,2.43,0,0,0,255.9,53.2Z"/><path class="cls-2" d="M264.89,50.75h-3.51v6h-1.15V42.48h4a5.76,5.76,0,0,1,1.77.3,4.4,4.4,0,0,1,1.45.82,3.7,3.7,0,0,1,1,1.3,4.11,4.11,0,0,1,.36,1.77,3.85,3.85,0,0,1-.21,1.3A3.77,3.77,0,0,1,268,49a4.16,4.16,0,0,1-.89.83,5.76,5.76,0,0,1-1.12.62l3.24,6.09v.13H268Zm-3.51-1h3.09a3.34,3.34,0,0,0,1.24-.25,3.12,3.12,0,0,0,1-.64,2.76,2.76,0,0,0,.67-1,3.39,3.39,0,0,0,0-2.58,2.85,2.85,0,0,0-.71-1,3.12,3.12,0,0,0-1.08-.62,4.42,4.42,0,0,0-1.33-.24h-2.85Z"/><path class="cls-2" d="M281,50.53a10.7,10.7,0,0,1-.13,1.48,7.91,7.91,0,0,1-.37,1.47,6.48,6.48,0,0,1-.63,1.33,4.7,4.7,0,0,1-.9,1.08,4,4,0,0,1-1.21.73,4.44,4.44,0,0,1-3,0,4.17,4.17,0,0,1-1.22-.73,4.88,4.88,0,0,1-.92-1.09,6.77,6.77,0,0,1-.63-1.33,8,8,0,0,1-.37-1.46,9.35,9.35,0,0,1-.13-1.48V48.66a9.45,9.45,0,0,1,.13-1.48,8.9,8.9,0,0,1,.36-1.46,7.48,7.48,0,0,1,.63-1.34,5.11,5.11,0,0,1,.92-1.09,4.09,4.09,0,0,1,1.2-.74,4.17,4.17,0,0,1,1.53-.27,4.09,4.09,0,0,1,1.53.27,4,4,0,0,1,1.22.73,4.8,4.8,0,0,1,.91,1.09,6.32,6.32,0,0,1,.63,1.34,8,8,0,0,1,.37,1.46,11,11,0,0,1,.13,1.49Zm-1.16-1.89a9.75,9.75,0,0,0-.08-1.18,8,8,0,0,0-.26-1.2,6.1,6.1,0,0,0-.45-1.12,3.6,3.6,0,0,0-.68-.93,3.07,3.07,0,0,0-.94-.64,3.12,3.12,0,0,0-1.22-.23,2.9,2.9,0,0,0-1.21.24,3.07,3.07,0,0,0-.94.64,3.85,3.85,0,0,0-.68.93,6.89,6.89,0,0,0-.7,2.32,8.09,8.09,0,0,0-.09,1.17v1.89a9.82,9.82,0,0,0,.09,1.18,8,8,0,0,0,.26,1.2A7,7,0,0,0,273.4,54a4.28,4.28,0,0,0,.68.93,3.26,3.26,0,0,0,.94.64,3.25,3.25,0,0,0,2.45,0,3.35,3.35,0,0,0,.93-.64,4,4,0,0,0,.68-.93,7,7,0,0,0,.45-1.13,8,8,0,0,0,.24-1.2,9.75,9.75,0,0,0,.08-1.18Z"/><path class="cls-2" d="M293,50.53a10.7,10.7,0,0,1-.13,1.48,8.77,8.77,0,0,1-.36,1.47,7.72,7.72,0,0,1-.63,1.33,5,5,0,0,1-.91,1.08,4.06,4.06,0,0,1-1.2.73,4.18,4.18,0,0,1-1.54.27,4.07,4.07,0,0,1-1.52-.27,4.17,4.17,0,0,1-1.22-.73,4.59,4.59,0,0,1-.91-1.09,6.8,6.8,0,0,1-.64-1.33,8,8,0,0,1-.37-1.46,9.35,9.35,0,0,1-.13-1.48V48.66a9.45,9.45,0,0,1,.13-1.48,8,8,0,0,1,.37-1.46,6.32,6.32,0,0,1,.63-1.34,4.8,4.8,0,0,1,.91-1.09,4,4,0,0,1,1.21-.74,4.07,4.07,0,0,1,1.52-.27,4.18,4.18,0,0,1,1.54.27,4.11,4.11,0,0,1,1.21.73,4.84,4.84,0,0,1,.92,1.09,7.48,7.48,0,0,1,.63,1.34,8.9,8.9,0,0,1,.36,1.46,11,11,0,0,1,.13,1.49Zm-1.15-1.89c0-.38,0-.77-.09-1.18a6.93,6.93,0,0,0-.26-1.2,5.46,5.46,0,0,0-.45-1.12,3.6,3.6,0,0,0-.68-.93,2.91,2.91,0,0,0-2.16-.87,2.9,2.9,0,0,0-1.21.24,3.07,3.07,0,0,0-.94.64,3.57,3.57,0,0,0-.67.93,6.13,6.13,0,0,0-.46,1.12,6.91,6.91,0,0,0-.25,1.2q-.07.62-.09,1.17v1.89c0,.38,0,.77.09,1.18a8,8,0,0,0,.26,1.2,6.22,6.22,0,0,0,.46,1.13,3.94,3.94,0,0,0,.67.93,3.26,3.26,0,0,0,.94.64,3.25,3.25,0,0,0,2.45,0,3.35,3.35,0,0,0,.93-.64,4,4,0,0,0,.68-.93,6.19,6.19,0,0,0,.45-1.13,8,8,0,0,0,.24-1.2c.05-.41.08-.8.09-1.18Z"/><path class="cls-2" d="M297.37,42.48l2.87,8,3-8h1.54V56.7h-1.15V50.4l.09-6.36-3.15,8.38h-.77l-2.93-8.24.1,6.22v6.3h-1.14V42.48Z"/></g><rect class="cls-5" x="75.72" y="82.47" width="209" height="45.52"/><rect class="cls-5" x="75.72" y="142.01" width="209" height="45.52"/><rect class="cls-5" x="75.72" y="201.55" width="209" height="45.52"/><g class="cls-3"><path class="cls-2" d="M167.25,111.55h-1.11l-6.23-11.46v11.46h-1.11V98h1.11l6.23,11.45V98h1.11Z"/><path class="cls-2" d="M177.2,107.77H172l-1.2,3.78H169.7L174.12,98h1l4.38,13.58h-1.12Zm-4.85-1h4.53l-2.26-7.15Z"/><path class="cls-2" d="M183.22,98l2.73,7.69L188.86,98h1.46v13.58h-1.09v-6l.09-6.08-3,8h-.72l-2.8-7.88.09,6v6h-1.09V98Z"/><path class="cls-2" d="M200.66,105h-6v5.54h6.91v1h-8V98h8v1h-6.87v5.12h6Z"/></g><g class="cls-3"><path class="cls-2" d="M171.46,168.49H166.3l-1.21,3.78H164l4.43-13.58h1l4.39,13.58h-1.12Zm-4.85-1h4.54l-2.26-7.15Z"/><path class="cls-2" d="M184.72,170.66a4.54,4.54,0,0,1-.88.82,5.48,5.48,0,0,1-1,.57,5.58,5.58,0,0,1-1.15.31,7,7,0,0,1-1.21.1,4.43,4.43,0,0,1-1.49-.26,4.29,4.29,0,0,1-1.22-.68,5,5,0,0,1-.94-1,6.33,6.33,0,0,1-.67-1.26,8.05,8.05,0,0,1-.4-1.4,9.15,9.15,0,0,1-.15-1.46v-1.91a9.86,9.86,0,0,1,.13-1.42,8.18,8.18,0,0,1,.39-1.39,6.06,6.06,0,0,1,.64-1.24,4.3,4.3,0,0,1,.9-1,4.18,4.18,0,0,1,1.18-.68,4.27,4.27,0,0,1,1.47-.25,4.64,4.64,0,0,1,1.68.3,4.15,4.15,0,0,1,2.28,2.08,4.79,4.79,0,0,1,.45,1.64h-1.1a5.28,5.28,0,0,0-.39-1.22,3.54,3.54,0,0,0-.68-1,3,3,0,0,0-1-.63,3.38,3.38,0,0,0-1.27-.23,3.14,3.14,0,0,0-1.18.22,3.1,3.1,0,0,0-.91.59,3.36,3.36,0,0,0-.68.86,4.66,4.66,0,0,0-.47,1,7.27,7.27,0,0,0-.27,1.14c0,.39-.08.77-.09,1.13v1.93a7.71,7.71,0,0,0,.11,1.16,6.35,6.35,0,0,0,.29,1.16,6.14,6.14,0,0,0,.49,1.07,3.65,3.65,0,0,0,.72.88,3,3,0,0,0,.95.6,3.21,3.21,0,0,0,1.2.23,6.48,6.48,0,0,0,.87,0,5,5,0,0,0,.87-.19,3.17,3.17,0,0,0,.79-.37,2.36,2.36,0,0,0,.64-.58V166.8h-3.22v-1h4.28Z"/><path class="cls-2" d="M194.93,165.76h-6v5.54h6.9v1h-8V158.69h8v1h-6.87v5.12h6Z"/></g><g class="cls-3"><path class="cls-2" d="M148.53,227.61h-5.17l-1.2,3.79H141l4.42-13.59h1l4.38,13.59h-1.11Zm-4.85-1h4.53L146,219.46Z"/><path class="cls-2" d="M153.21,231.4V217.81h3.28a5.43,5.43,0,0,1,2.33.51,5.34,5.34,0,0,1,1.74,1.33,5.88,5.88,0,0,1,1.08,1.93,7.63,7.63,0,0,1,.39,2.36v1.33a7.58,7.58,0,0,1-.39,2.36,5.92,5.92,0,0,1-1.08,1.94,5.32,5.32,0,0,1-1.74,1.32,5.74,5.74,0,0,1-2.33.51Zm1.11-12.64v11.69h2.17a4.31,4.31,0,0,0,1.92-.44,4,4,0,0,0,1.37-1.15,5,5,0,0,0,.84-1.64,6.62,6.62,0,0,0,.29-1.95v-1.36a6.54,6.54,0,0,0-.29-1.93,5,5,0,0,0-.84-1.63,4.12,4.12,0,0,0-1.37-1.14,4.31,4.31,0,0,0-1.92-.45Z"/><path class="cls-2" d="M164.67,231.4V217.81H168a5.46,5.46,0,0,1,2.33.51,5.3,5.3,0,0,1,1.73,1.33,5.72,5.72,0,0,1,1.09,1.93,7.94,7.94,0,0,1,.39,2.36v1.33a7.88,7.88,0,0,1-.39,2.36,5.77,5.77,0,0,1-1.09,1.94,5.28,5.28,0,0,1-1.73,1.32,5.77,5.77,0,0,1-2.33.51Zm1.12-12.64v11.69H168a4.3,4.3,0,0,0,1.91-.44,4.17,4.17,0,0,0,1.38-1.15,5,5,0,0,0,.83-1.64,7,7,0,0,0,.3-1.95v-1.36a6.89,6.89,0,0,0-.3-1.93,5,5,0,0,0-.83-1.63,4.12,4.12,0,0,0-3.29-1.59Z"/><path class="cls-2" d="M180.85,225.71h-3.36v5.69h-1.1V217.81h3.84a5.48,5.48,0,0,1,1.68.29,4.21,4.21,0,0,1,1.39.78,3.71,3.71,0,0,1,.93,1.24,4,4,0,0,1,.34,1.69,3.47,3.47,0,0,1-.2,1.24,3.58,3.58,0,0,1-.55,1,4,4,0,0,1-.85.79,5.25,5.25,0,0,1-1.07.59l3.09,5.82v.13h-1.16Zm-3.36-.94h3a3.27,3.27,0,0,0,1.18-.24,3,3,0,0,0,1-.61,2.73,2.73,0,0,0,.63-.93,2.9,2.9,0,0,0,.23-1.19,3,3,0,0,0-.25-1.27,2.88,2.88,0,0,0-.68-.95,2.92,2.92,0,0,0-1-.59,4.4,4.4,0,0,0-1.27-.23h-2.73Z"/><path class="cls-2" d="M194.93,224.88h-6v5.54h6.9v1h-8V217.81h8v1h-6.87v5.12h6Z"/><path class="cls-2" d="M206.66,228.06a2.31,2.31,0,0,0-.15-.86,2.25,2.25,0,0,0-.4-.67,3,3,0,0,0-.59-.53,6.37,6.37,0,0,0-.72-.41c-.26-.12-.52-.22-.78-.32l-.78-.26q-.48-.15-1-.33a8.2,8.2,0,0,1-1-.42,6.91,6.91,0,0,1-.86-.54,3.83,3.83,0,0,1-.71-.68,3.28,3.28,0,0,1-.48-.86,3.12,3.12,0,0,1-.17-1.05,3,3,0,0,1,.38-1.5,3.57,3.57,0,0,1,1-1.1,4.5,4.5,0,0,1,1.37-.68,5.35,5.35,0,0,1,1.53-.23,4.77,4.77,0,0,1,1.65.29,4.2,4.2,0,0,1,1.38.8,3.91,3.91,0,0,1,1,1.24,4.11,4.11,0,0,1,.38,1.63h-1.13a3.93,3.93,0,0,0-.33-1.21,3,3,0,0,0-.67-.94,3.18,3.18,0,0,0-1-.61,3.56,3.56,0,0,0-1.25-.22,4.27,4.27,0,0,0-1.12.16,3.38,3.38,0,0,0-1,.46,2.48,2.48,0,0,0-.72.79,2.16,2.16,0,0,0-.27,1.1,2,2,0,0,0,.32,1.16,2.81,2.81,0,0,0,.81.8,5.57,5.57,0,0,0,1.09.55c.4.15.77.27,1.13.38s.66.21,1,.34a6.65,6.65,0,0,1,1,.44,7.76,7.76,0,0,1,.88.56,3.72,3.72,0,0,1,.71.72,3,3,0,0,1,.48.89,3.16,3.16,0,0,1,.17,1.09,3.1,3.1,0,0,1-.38,1.55,3.58,3.58,0,0,1-1,1.11,4.11,4.11,0,0,1-1.4.66,5.69,5.69,0,0,1-1.58.22,6,6,0,0,1-1.74-.26,4.82,4.82,0,0,1-1.5-.76,4.13,4.13,0,0,1-1.06-1.25,3.59,3.59,0,0,1-.44-1.69h1.13a3.53,3.53,0,0,0,.38,1.29,3.14,3.14,0,0,0,.78.94,3.49,3.49,0,0,0,1.1.57,4.77,4.77,0,0,0,2.52,0,3.31,3.31,0,0,0,1-.46,2.54,2.54,0,0,0,.74-.79A2.33,2.33,0,0,0,206.66,228.06Z"/><path class="cls-2" d="M218.12,228.06a2.54,2.54,0,0,0-.14-.86,2.25,2.25,0,0,0-.4-.67,2.78,2.78,0,0,0-.6-.53,5.47,5.47,0,0,0-.71-.41c-.26-.12-.52-.22-.79-.32l-.77-.26-1-.33a8.06,8.06,0,0,1-1-.42,6.36,6.36,0,0,1-.87-.54,4.17,4.17,0,0,1-.71-.68,3,3,0,0,1-.47-.86,2.89,2.89,0,0,1-.17-1.05,3,3,0,0,1,.37-1.5,3.6,3.6,0,0,1,1-1.1,4.57,4.57,0,0,1,1.36-.68,5.42,5.42,0,0,1,1.54-.23,4.77,4.77,0,0,1,1.65.29,4.31,4.31,0,0,1,1.38.8,3.74,3.74,0,0,1,.94,1.24,4,4,0,0,1,.39,1.63h-1.13a3.93,3.93,0,0,0-.33-1.21,3.16,3.16,0,0,0-.67-.94,3.11,3.11,0,0,0-1-.61,3.51,3.51,0,0,0-1.24-.22,4.34,4.34,0,0,0-1.13.16,3.22,3.22,0,0,0-1,.46,2.37,2.37,0,0,0-.72.79,2.28,2.28,0,0,0,0,2.26,2.84,2.84,0,0,0,.82.8,5.3,5.3,0,0,0,1.09.55c.39.15.77.27,1.12.38s.66.21,1,.34a6.54,6.54,0,0,1,1,.44,7.9,7.9,0,0,1,.89.56,3.72,3.72,0,0,1,.71.72,3.46,3.46,0,0,1,.48.89,3.41,3.41,0,0,1,.17,1.09,3,3,0,0,1-.39,1.55,3.55,3.55,0,0,1-1,1.11,4.2,4.2,0,0,1-1.4.66,5.7,5.7,0,0,1-1.59.22,5.94,5.94,0,0,1-1.73-.26,4.82,4.82,0,0,1-1.5-.76,4.16,4.16,0,0,1-1.07-1.25,3.72,3.72,0,0,1-.44-1.69h1.13a3.74,3.74,0,0,0,.39,1.29,2.87,2.87,0,0,0,.78.94,3.38,3.38,0,0,0,1.1.57,4.48,4.48,0,0,0,1.34.19,4.58,4.58,0,0,0,1.17-.15,3.27,3.27,0,0,0,1-.46,2.4,2.4,0,0,0,.73-.79A2.23,2.23,0,0,0,218.12,228.06Z"/></g></g></g></svg>